<?xml version="1.0" encoding="UTF-8" standalone="no"?>
<svg
   width="100"
   height="100"
   viewBox="0 0 156.25 156.25008"
   version="1.1"
   id="svg1"
   sodipodi:docname="aax_hover.svg"
   inkscape:version="1.3.2 (091e20ef0f, 2023-11-25)"
   xmlns:inkscape="http://www.inkscape.org/namespaces/inkscape"
   xmlns:sodipodi="http://sodipodi.sourceforge.net/DTD/sodipodi-0.dtd"
   xmlns="http://www.w3.org/2000/svg"
   xmlns:svg="http://www.w3.org/2000/svg">
  <defs
     id="defs1">
    <rect
       x="-6.5939685"
       y="-27.102536"
       width="145.38636"
       height="153.39802"
       id="rect2" />
  </defs>
  <sodipodi:namedview
     id="namedview1"
     pagecolor="#ffffff"
     bordercolor="#000000"
     borderopacity="0.25"
     inkscape:showpageshadow="2"
     inkscape:pageopacity="0.0"
     inkscape:pagecheckerboard="0"
     inkscape:deskcolor="#d1d1d1"
     inkscape:document-units="in"
     inkscape:zoom="8"
     inkscape:cx="51.875"
     inkscape:cy="37.125"
     inkscape:window-width="1920"
     inkscape:window-height="1029"
     inkscape:window-x="0"
     inkscape:window-y="0"
     inkscape:window-maximized="1"
     inkscape:current-layer="svg1"
     inkscape:lockguides="false"
     showguides="true" />
  <path
     id="Выделение"
     style="fill:#a0ea41;fill-opacity:1;stroke:none"
     d="M 24.45069 54.687514 C 19.561774 54.687514 15.625004 58.624284 15.625004 63.5132 L 15.625004 92.73684 C 15.625004 97.62573 19.561774 101.56253 24.45069 101.56253 L 24.496466 101.56253 L 33.447274 101.56253 L 122.80277 101.56253 L 131.75357 101.56253 L 131.79935 101.56253 C 136.6883 101.56253 140.62504 97.62573 140.62504 92.73684 L 140.62504 63.5132 C 140.62504 58.624284 136.6883 54.687514 131.79935 54.687514 L 131.75357 54.687514 L 122.80277 54.687514 L 33.447274 54.687514 L 24.496466 54.687514 L 24.45069 54.687514 z M 56.039443 66.680925 L 61.547867 66.680925 L 67.697161 89.465355 L 63.195817 89.465355 L 61.792008 83.83486 L 55.764785 83.83486 L 54.391493 89.465355 L 49.887098 89.465355 L 56.039443 66.680925 z M 74.856587 66.680925 L 80.365011 66.680925 L 86.514304 89.465355 L 82.01296 89.465355 L 80.609151 83.83486 L 74.581928 83.83486 L 73.208637 89.465355 L 68.704241 89.465355 L 74.856587 66.680925 z M 87.612937 66.680925 L 92.269921 66.680925 L 96.420313 73.928852 L 100.58596 66.680925 L 105.2399 66.680925 L 98.770167 77.89919 L 105.423 89.465355 L 100.76907 89.465355 L 96.420313 81.927511 L 92.086816 89.465355 L 87.429832 89.465355 L 94.116235 77.89919 L 87.612937 66.680925 z M 58.786026 70.800799 L 56.665054 80.126974 L 60.922257 80.126974 L 58.786026 70.800799 z M 77.603169 70.800799 L 75.482197 80.126974 L 79.7394 80.126974 L 77.603169 70.800799 z " />
  <text
     xml:space="preserve"
     transform="scale(1.5625004)"
     id="text2"
     style="font-style:normal;font-variant:normal;font-weight:bold;font-stretch:normal;font-size:66.6667px;font-family:Monospace;-inkscape-font-specification:'Monospace Bold';text-align:center;white-space:pre;shape-inside:url(#rect2);display:inline;fill:#b2a0a0;fill-opacity:1;stroke-width:0.672;stroke-linejoin:bevel;stroke-miterlimit:4.3" />
</svg>
