<?xml version="1.0" encoding="UTF-8" standalone="no"?>
<!-- Created with Inkscape (http://www.inkscape.org/) -->

<svg
   width="35"
   height="35"
   viewBox="0 0 9.2604165 9.260417"
   version="1.1"
   id="svg8"
   inkscape:version="1.3.2 (091e20ef0f, 2023-11-25)"
   sodipodi:docname="arch_icon_button.svg"
   xml:space="preserve"
   xmlns:inkscape="http://www.inkscape.org/namespaces/inkscape"
   xmlns:sodipodi="http://sodipodi.sourceforge.net/DTD/sodipodi-0.dtd"
   xmlns="http://www.w3.org/2000/svg"
   xmlns:svg="http://www.w3.org/2000/svg"
   xmlns:rdf="http://www.w3.org/1999/02/22-rdf-syntax-ns#"
   xmlns:cc="http://creativecommons.org/ns#"
   xmlns:dc="http://purl.org/dc/elements/1.1/"><defs
     id="defs2" /><sodipodi:namedview
     id="base"
     pagecolor="#ffffff"
     bordercolor="#666666"
     borderopacity="1.0"
     inkscape:pageopacity="0.51764706"
     inkscape:pageshadow="2"
     inkscape:zoom="11.313709"
     inkscape:cx="16.661203"
     inkscape:cy="19.357048"
     inkscape:document-units="mm"
     inkscape:current-layer="layer1"
     showgrid="false"
     showguides="true"
     inkscape:guide-bbox="true"
     fit-margin-top="0"
     fit-margin-left="0"
     fit-margin-right="0"
     fit-margin-bottom="0"
     inkscape:window-width="1920"
     inkscape:window-height="1029"
     inkscape:window-x="0"
     inkscape:window-y="0"
     inkscape:window-maximized="1"
     inkscape:pagecheckerboard="false"
     units="px"
     inkscape:showpageshadow="2"
     inkscape:deskcolor="#d1d1d1"
     inkscape:clip-to-page="false"><sodipodi:guide
       position="57.80958,9.2093408"
       orientation="1,0"
       id="guide867"
       inkscape:locked="false" /><sodipodi:guide
       position="9.5169607,8.2190138"
       orientation="0,1"
       id="guide881"
       inkscape:locked="false" /><sodipodi:guide
       position="3.4304483,1.0461392"
       orientation="0,1"
       id="guide883"
       inkscape:locked="false" /><sodipodi:guide
       position="10.799237,1.3926001"
       orientation="1,0"
       id="guide9996"
       inkscape:locked="false" /><sodipodi:guide
       position="1.0438639,8.0336185"
       orientation="1,0"
       id="guide1"
       inkscape:locked="false" /><sodipodi:guide
       position="8.213452,8.2268883"
       orientation="1,0"
       id="guide2"
       inkscape:locked="false" /></sodipodi:namedview><metadata
     id="metadata5"><rdf:RDF><cc:Work
         rdf:about=""><dc:format>image/svg+xml</dc:format><dc:type
           rdf:resource="http://purl.org/dc/dcmitype/StillImage" /></cc:Work></rdf:RDF></metadata><g
     inkscape:label="Layer 1"
     inkscape:groupmode="layer"
     id="layer1"
     transform="translate(-14.033305,-169.36185)"><rect
       style="opacity:1;fill:#25272e;fill-opacity:0.501961;stroke:none;stroke-width:0.0841093;stroke-linecap:butt;stroke-linejoin:miter;stroke-miterlimit:4;stroke-dasharray:none;stroke-dashoffset:0;stroke-opacity:1;paint-order:normal"
       id="rect815-3"
       width="9.260417"
       height="9.260417"
       x="14.033305"
       y="169.36185" /><path
       style="fill:#25272e;fill-opacity:1;stroke-width:0.027095"
       d="m 16.429399,177.56673 c -0.13011,-0.0316 -0.239758,-0.14456 -0.26699,-0.27514 -0.0052,-0.025 -0.0079,-0.16719 -0.0079,-0.41401 v -0.37601 h -0.376013 c -0.246816,0 -0.389069,-0.003 -0.414005,-0.008 -0.16167,-0.0337 -0.285316,-0.18562 -0.285316,-0.35052 0,-0.16491 0.123646,-0.31681 0.285316,-0.35052 0.02494,-0.005 0.167189,-0.008 0.414005,-0.008 h 0.376014 v -0.17922 -0.17922 h -0.376014 c -0.246816,0 -0.389069,-0.003 -0.414005,-0.008 -0.16167,-0.0338 -0.285316,-0.18562 -0.285316,-0.35054 0,-0.1649 0.123646,-0.3168 0.285316,-0.35051 0.02494,-0.005 0.167189,-0.008 0.414005,-0.008 h 0.376014 v -0.17921 -0.17923 h -0.376014 c -0.246816,0 -0.389069,-0.003 -0.414005,-0.008 -0.16167,-0.0337 -0.285316,-0.18562 -0.285316,-0.35052 0,-0.16491 0.123646,-0.31681 0.285316,-0.35052 0.02494,-0.005 0.167189,-0.008 0.414005,-0.008 h 0.376014 v -0.17923 -0.17923 h -0.376014 c -0.246816,0 -0.389069,-0.003 -0.414005,-0.008 -0.16167,-0.0338 -0.285316,-0.18562 -0.285316,-0.35053 0,-0.16491 0.123646,-0.31681 0.285316,-0.35052 0.02494,-0.005 0.167189,-0.008 0.414005,-0.008 h 0.376014 v -0.17922 -0.17923 h -0.376014 c -0.246816,0 -0.389069,-0.003 -0.414005,-0.008 -0.16167,-0.0337 -0.285316,-0.18563 -0.285316,-0.35052 0,-0.16492 0.123646,-0.31681 0.285316,-0.35054 0.02494,-0.005 0.167189,-0.008 0.414005,-0.008 h 0.376014 v -0.37602 c 0,-0.24682 0.0028,-0.38906 0.0079,-0.41401 0.03371,-0.16167 0.185617,-0.28531 0.350523,-0.28531 0.164904,0 0.316808,0.12364 0.350522,0.28531 0.0052,0.025 0.0079,0.16719 0.0079,0.41401 v 0.37602 h 0.179223 0.179223 v -0.37602 c 0,-0.24682 0.0027,-0.38906 0.0079,-0.41401 0.03371,-0.16167 0.185617,-0.28531 0.350522,-0.28531 0.164905,0 0.316809,0.12364 0.350523,0.28531 0.0052,0.025 0.0079,0.16719 0.0079,0.41401 v 0.37602 h 0.179222 0.179223 v -0.37602 c 0,-0.24682 0.0028,-0.38906 0.0079,-0.41401 0.03371,-0.16167 0.185619,-0.28531 0.350524,-0.28531 0.164904,0 0.316808,0.12364 0.350523,0.28531 0.0052,0.025 0.0079,0.16719 0.0079,0.41401 v 0.37602 h 0.179223 0.179222 v -0.37602 c 0,-0.24682 0.0027,-0.38906 0.0079,-0.41401 0.03371,-0.16167 0.185617,-0.28531 0.350523,-0.28531 0.164904,0 0.316807,0.12364 0.350521,0.28531 0.0052,0.025 0.0079,0.16719 0.0079,0.41401 v 0.37602 h 0.179221 0.179223 v -0.37602 c 0,-0.24682 0.0027,-0.38906 0.0079,-0.41401 0.03371,-0.16167 0.185617,-0.28531 0.350522,-0.28531 0.164906,0 0.316809,0.12364 0.350523,0.28531 0.0052,0.025 0.0079,0.16719 0.0079,0.41401 v 0.37602 h 0.376014 c 0.246816,0 0.389067,0.003 0.414004,0.008 0.161671,0.0338 0.285317,0.18562 0.285317,0.35054 0,0.16489 -0.123646,0.3168 -0.285317,0.35052 -0.02494,0.005 -0.167188,0.008 -0.414004,0.008 h -0.37611 v 0.17923 0.17922 h 0.376014 c 0.246816,0 0.389067,0.003 0.414004,0.008 0.161671,0.0337 0.285317,0.18561 0.285317,0.35052 0,0.16491 -0.123646,0.31681 -0.285317,0.35053 -0.02494,0.005 -0.167188,0.008 -0.414004,0.008 H 21.17242 v 0.17923 0.17923 h 0.376014 c 0.246816,0 0.389067,0.003 0.414004,0.008 0.161671,0.0337 0.285317,0.18561 0.285317,0.35052 0,0.1649 -0.123646,0.31681 -0.285317,0.35052 -0.02494,0.005 -0.167188,0.008 -0.414004,0.008 H 21.17242 v 0.17923 0.17921 h 0.376014 c 0.246816,0 0.389067,0.003 0.414004,0.008 0.161671,0.0338 0.285317,0.18561 0.285317,0.35051 0,0.16492 -0.123646,0.31682 -0.285317,0.35054 -0.02494,0.005 -0.167188,0.008 -0.414004,0.008 H 21.17242 v 0.17922 0.17922 h 0.376014 c 0.246816,0 0.389067,0.003 0.414004,0.008 0.161671,0.0337 0.285317,0.18561 0.285317,0.35052 0,0.1649 -0.123646,0.31681 -0.285317,0.35052 -0.02494,0.005 -0.167188,0.008 -0.414004,0.008 H 21.17242 v 0.37601 c 0,0.24682 -0.0027,0.38907 -0.0079,0.41401 -0.03371,0.16166 -0.185617,0.28532 -0.350523,0.28532 -0.164905,0 -0.316808,-0.12366 -0.350522,-0.28532 -0.0052,-0.025 -0.0079,-0.16719 -0.0079,-0.41401 v -0.37601 h -0.178988 -0.179222 v 0.37601 c 0,0.24682 -0.0027,0.38907 -0.0079,0.41401 -0.03371,0.16166 -0.185617,0.28532 -0.350522,0.28532 -0.164905,0 -0.316808,-0.12366 -0.350522,-0.28532 -0.0052,-0.025 -0.0079,-0.16719 -0.0079,-0.41401 v -0.37601 h -0.179289 -0.179223 v 0.37601 c 0,0.24682 -0.0027,0.38907 -0.0079,0.41401 -0.03371,0.16166 -0.185618,0.28532 -0.350522,0.28532 -0.164906,0 -0.316809,-0.12366 -0.350524,-0.28532 -0.0052,-0.025 -0.0079,-0.16719 -0.0079,-0.41401 v -0.37601 h -0.179289 -0.179222 v 0.37601 c 0,0.24682 -0.0027,0.38907 -0.0079,0.41401 -0.02801,0.13434 -0.143045,0.24938 -0.277394,0.2774 -0.119222,0.0249 -0.236629,-0.011 -0.324676,-0.099 -0.05134,-0.0513 -0.0852,-0.11238 -0.09898,-0.17841 -0.0052,-0.025 -0.0079,-0.16719 -0.0079,-0.41401 v -0.37601 h -0.179223 -0.179223 v 0.37601 c 0,0.24682 -0.0027,0.38907 -0.0079,0.41401 -0.02801,0.13434 -0.143045,0.24938 -0.277394,0.2774 -0.04832,0.0101 -0.10944,0.009 -0.156662,-0.002 z m 3.741111,-1.78997 c 0.134349,-0.0281 0.249377,-0.14306 0.277394,-0.2774 0.0055,-0.0263 0.0079,-0.26394 0.0079,-0.77244 v -0.73446 H 20.26911 c -0.210766,0 -0.256671,-0.006 -0.358143,-0.0477 -0.120271,-0.0493 -0.204759,-0.0991 -0.51616,-0.30366 -0.344778,-0.22658 -0.458542,-0.29184 -0.596594,-0.34224 -0.05191,-0.019 -0.05347,-0.0191 -0.289418,-0.0216 l -0.237227,-0.002 -0.0123,0.0323 c -0.0068,0.0178 -0.02507,0.052 -0.0407,0.0762 -0.08295,0.12834 -0.211764,0.21387 -0.361411,0.23997 -0.07849,0.0137 -0.100873,0.0137 -0.179364,0 -0.224989,-0.0392 -0.397785,-0.21203 -0.437019,-0.43702 -0.01369,-0.0785 -0.01369,-0.10088 0,-0.17937 0.03924,-0.22499 0.21203,-0.39778 0.437019,-0.43702 0.07849,-0.0137 0.100873,-0.0137 0.179364,0 0.149647,0.0262 0.278459,0.11162 0.361411,0.23997 0.01562,0.0242 0.03386,0.0582 0.04054,0.0757 l 0.01214,0.0318 h 0.203642 c 0.224705,0 0.269169,0.005 0.367262,0.0439 0.114751,0.0453 0.214114,0.10355 0.523989,0.30733 0.365522,0.24039 0.488477,0.30926 0.620201,0.34744 0.06025,0.0175 0.06963,0.0181 0.26596,0.0181 h 0.203512 v -0.55524 c 0,-0.37766 -0.0025,-0.56739 -0.0079,-0.59323 -0.02801,-0.13435 -0.143044,-0.24938 -0.277394,-0.27739 -0.05379,-0.0112 -2.960024,-0.0112 -3.013816,0 -0.134349,0.0281 -0.249378,0.14304 -0.277394,0.27739 -0.0055,0.0263 -0.0079,0.26395 -0.0079,0.77245 v 0.73447 h 0.186694 c 0.210766,0 0.256671,0.006 0.358142,0.0477 0.120273,0.0493 0.204761,0.0991 0.516161,0.30368 0.344779,0.22656 0.458542,0.29182 0.596594,0.34222 0.05191,0.019 0.05347,0.0191 0.289419,0.0216 l 0.237226,0.002 0.0123,-0.0323 c 0.0068,-0.0178 0.02509,-0.052 0.0407,-0.0762 0.08295,-0.12835 0.211763,-0.21387 0.361411,-0.23998 0.07849,-0.0137 0.100871,-0.0137 0.179362,0 0.22499,0.0393 0.397786,0.21205 0.43702,0.43703 0.01369,0.0785 0.01369,0.10087 0,0.17937 -0.03165,0.18149 -0.153119,0.33404 -0.321953,0.40432 -0.05243,0.0219 -0.154813,0.0436 -0.204749,0.0436 -0.04998,0 -0.152343,-0.0219 -0.204901,-0.0437 -0.124449,-0.0518 -0.243219,-0.16901 -0.28673,-0.28295 l -0.01214,-0.0318 h -0.203642 c -0.224705,0 -0.26917,-0.005 -0.367262,-0.0439 -0.114752,-0.0452 -0.214114,-0.10354 -0.52399,-0.30733 -0.365522,-0.24038 -0.488476,-0.30926 -0.620201,-0.34742 -0.06025,-0.0175 -0.06963,-0.0181 -0.265959,-0.0181 h -0.203513 v 0.55523 c 0,0.37767 0.0025,0.5674 0.0079,0.59324 0.02723,0.13058 0.13688,0.24356 0.266989,0.27513 0.05026,0.0122 2.966146,0.0144 3.024222,0.002 z m -0.534645,-0.72924 c 0.06302,-0.0325 0.099,-0.0903 0.099,-0.15895 0,-0.0518 -0.01203,-0.0817 -0.04871,-0.12071 -0.03629,-0.0385 -0.07302,-0.0544 -0.126446,-0.0544 -0.05343,0 -0.09016,0.0159 -0.126445,0.0544 -0.03667,0.0391 -0.04871,0.0688 -0.04871,0.12071 0,0.0519 0.01204,0.0817 0.04871,0.12068 0.05402,0.0574 0.135551,0.0728 0.202597,0.0383 z M 17.84364,173.2553 c 0.06303,-0.0325 0.09901,-0.0903 0.09901,-0.15895 0,-0.0519 -0.01204,-0.0817 -0.04871,-0.12072 -0.03629,-0.0386 -0.07302,-0.0544 -0.126446,-0.0544 -0.05343,0 -0.09016,0.0158 -0.126445,0.0544 -0.03667,0.0391 -0.04871,0.0688 -0.04871,0.12072 0,0.0518 0.01204,0.0817 0.04871,0.12068 0.05402,0.0574 0.135551,0.0728 0.202596,0.0383 z"
       id="path3" /></g></svg>
