<?xml version="1.0" encoding="UTF-8" standalone="no"?>
<svg
   width="100"
   height="100"
   viewBox="0 0 156.24992 156.24992"
   version="1.1"
   id="svg1"
   sodipodi:docname="bsd.svg"
   inkscape:version="1.3.2 (091e20ef0f, 2023-11-25)"
   xmlns:inkscape="http://www.inkscape.org/namespaces/inkscape"
   xmlns:sodipodi="http://sodipodi.sourceforge.net/DTD/sodipodi-0.dtd"
   xmlns="http://www.w3.org/2000/svg"
   xmlns:svg="http://www.w3.org/2000/svg">
  <defs
     id="defs1" />
  <sodipodi:namedview
     id="namedview1"
     pagecolor="#ffffff"
     bordercolor="#000000"
     borderopacity="0.25"
     inkscape:showpageshadow="2"
     inkscape:pageopacity="0.0"
     inkscape:pagecheckerboard="0"
     inkscape:deskcolor="#d1d1d1"
     inkscape:document-units="in"
     inkscape:zoom="1.2603753"
     inkscape:cx="327.68017"
     inkscape:cy="264.20701"
     inkscape:window-width="1920"
     inkscape:window-height="1029"
     inkscape:window-x="0"
     inkscape:window-y="0"
     inkscape:window-maximized="1"
     inkscape:current-layer="svg1" />
  <path
     id="Выделение"
     fill="none"
     stroke="black"
     stroke-width="0.135869"
     d="m 24.864296,47.557056 c 0,0 -1.796192,-3.260863 -1.796192,-3.260863 -2.086952,-3.955154 -3.998633,-8.01221 -5.498629,-12.228234 -1.086954,-3.054341 -1.959235,-6.247269 -1.944289,-9.510849 0.0041,-0.718748 0.104619,-1.479616 0.293477,-2.173908 0.864129,-3.176624 3.605971,-3.838307 6.499986,-3.80434 2.350538,0.02853 5.099174,0.789401 7.336941,1.491845 4.554337,1.429345 8.657589,3.480971 12.90758,5.607325 0,0 3.532601,1.868202 3.532601,1.868202 0,0 0,0.271739 0,0.271739 -5.396727,3.029884 -11.980952,9.175252 -15.835563,13.994534 0,0 -3.547547,4.891294 -3.547547,4.891294 -0.528531,0.81114 -1.273095,2.263582 -1.948365,2.853255 z M 133.42384,17.315274 c 2.4932,-0.302989 5.50678,0.09511 6.67118,2.66032 0.39267,0.868205 0.52854,2.042115 0.52989,2.989124 0.005,3.562492 -1.37635,7.584223 -2.69021,10.869542 -2.15353,5.384499 -5.83015,12.402147 -8.99454,17.255397 0,0 -3.17527,4.755424 -3.17527,4.755424 -0.59646,0.798912 -1.13994,1.601899 -1.98777,2.158962 -0.78532,0.5163 -1.53532,0.65761 -2.44564,0.74456 -0.60598,0.10327 -0.65897,0.0326 -1.22283,0 -2.30298,-0.27309 -3.51901,-0.75679 -5.57064,-1.7826 -5.33015,-2.665755 -10.50948,-7.858679 -13.35594,-13.077417 -1.316581,-2.41168 -2.876361,-6.404878 -1.677991,-9.103241 0.570651,-1.285324 1.697011,-2.062496 2.805701,-2.853255 0,0 5.16303,-3.403525 5.16303,-3.403525 3.77445,-2.368202 7.67933,-4.475534 11.68476,-6.414389 4.58695,-2.220103 9.19835,-4.063849 14.26627,-4.798902 z m -1.22282,32.687429 c 0,0 2.06793,4.076078 2.06793,4.076078 1.32744,2.809776 2.66983,6.508142 3.48233,9.510852 3.90081,14.42116 2.36548,30.1752 -4.49863,43.478157 -3.30027,6.39809 -7.80841,12.27036 -13.144,17.09643 -5.64129,5.10325 -12.41845,9.21602 -19.56517,11.83693 -17.942901,6.57879 -38.475461,4.25407 -54.347709,-6.4796 C 39.615622,125.07047 34.40096,119.85581 29.894176,113.31778 19.420014,98.118083 16.807248,78.222753 22.509681,60.736373 c 2.809777,-8.61411 7.650799,-16.55431 13.908937,-23.097774 8.256776,-8.633133 19.90349,-14.956489 31.652101,-17.172517 2.33152,-0.440216 6.38043,-1.029889 8.69564,-1.033965 0,0 1.63043,0 1.63043,0 0,0 1.49456,-0.09239 1.49456,-0.09239 0,0 1.08696,0.09239 1.08696,0.09239 0,0 2.03803,0 2.03803,0 0,0 1.3587,0.123641 1.3587,0.123641 2.33015,0.163043 4.6345,0.449727 6.92933,0.908966 4.05298,0.811139 8.019,1.975539 11.820631,3.607329 1.04619,0.448368 3.53939,1.510866 4.34781,2.153528 0,0 -5.2989,3.001352 -5.2989,3.001352 -0.41712,0.156249 -1.59782,-0.01495 -2.173911,0 -2.1413,-0.0027 -3.95923,0.995921 -4.65352,3.112765 -0.29484,0.898096 -0.24864,1.653529 -0.23777,2.581516 0.034,2.831515 1.97146,6.663029 3.35869,9.103241 1.933421,3.399449 4.350531,6.21466 7.103241,8.967372 3.65081,3.650807 8.54482,7.411666 13.31519,9.452426 2.99456,1.28125 7.48096,2.61412 9.84645,-0.48505 0.34103,-0.44701 0.4932,-0.82745 0.65353,-1.3587 0.2731,-0.9076 0.24456,-1.38315 0.23369,-2.30977 0,0 -0.44701,-2.989129 -0.44701,-2.989129 0.0435,-0.429347 0.58288,-1.221465 0.81658,-1.630431 z"
     style="fill:#25272e;fill-opacity:1;stroke:none" />
</svg>
