<?xml version="1.0" encoding="UTF-8" standalone="no"?>
<svg
   width="79.999992"
   height="78.780602"
   viewBox="0 0 124.99992 123.09463"
   version="1.1"
   id="svg1"
   sodipodi:docname="bsd_bg.svg"
   inkscape:version="1.3.2 (091e20ef0f, 2023-11-25)"
   xmlns:inkscape="http://www.inkscape.org/namespaces/inkscape"
   xmlns:sodipodi="http://sodipodi.sourceforge.net/DTD/sodipodi-0.dtd"
   xmlns="http://www.w3.org/2000/svg"
   xmlns:svg="http://www.w3.org/2000/svg">
  <defs
     id="defs1" />
  <sodipodi:namedview
     id="namedview1"
     pagecolor="#ffffff"
     bordercolor="#000000"
     borderopacity="0.25"
     inkscape:showpageshadow="2"
     inkscape:pageopacity="0.0"
     inkscape:pagecheckerboard="0"
     inkscape:deskcolor="#d1d1d1"
     inkscape:document-units="in"
     inkscape:zoom="1.2603753"
     inkscape:cx="317.36579"
     inkscape:cy="253.89263"
     inkscape:window-width="1920"
     inkscape:window-height="1029"
     inkscape:window-x="0"
     inkscape:window-y="0"
     inkscape:window-maximized="1"
     inkscape:current-layer="svg1" />
  <path
     id="Выделение"
     fill="none"
     stroke="black"
     stroke-width="0.135869"
     d="m 9.2392992,30.979413 c 0,0 -1.796192,-3.260863 -1.796192,-3.260863 C 5.3561552,23.763396 3.4444742,19.70634 1.9444782,15.490316 0.85752424,12.435975 -0.01475676,9.2430466 1.8923621e-4,5.9794666 0.00428924,5.2607186 0.10480824,4.4998506 0.29366624,3.8055586 1.1577952,0.62893462 3.8996372,-0.03274838 6.7936522,0.00121862 c 2.350538,0.02853 5.0991738,0.789401 7.3369408,1.49184498 4.554337,1.429345 8.657589,3.480971 12.90758,5.607325 0,0 3.532601,1.868202 3.532601,1.868202 0,0 0,0.271739 0,0.271739 -5.396727,3.0298844 -11.980952,9.1752524 -15.835563,13.9945344 0,0 -3.547547,4.891294 -3.547547,4.891294 -0.528531,0.81114 -1.2730948,2.263582 -1.9483648,2.853255 z M 117.79884,0.73763062 c 2.4932,-0.302989 5.50678,0.09511 6.67118,2.66031998 0.39267,0.868205 0.52854,2.042115 0.52989,2.989124 0.005,3.562492 -1.37635,7.5842234 -2.69021,10.8695424 -2.15353,5.384499 -5.83015,12.402147 -8.99454,17.255397 0,0 -3.17527,4.755424 -3.17527,4.755424 -0.59646,0.798912 -1.13994,1.601899 -1.98777,2.158962 -0.78532,0.5163 -1.53532,0.65761 -2.44564,0.74456 -0.60598,0.10327 -0.65897,0.0326 -1.22283,0 -2.30298,-0.27309 -3.51901,-0.75679 -5.570637,-1.7826 -5.33015,-2.665755 -10.50948,-7.858679 -13.35594,-13.077417 -1.316581,-2.41168 -2.876361,-6.404878 -1.677991,-9.103241 0.570651,-1.285324 1.697011,-2.062496 2.805701,-2.853255 0,0 5.16303,-3.403525 5.16303,-3.403525 3.77445,-2.3682024 7.67933,-4.4755344 11.684757,-6.4143894 4.58695,-2.220103 9.19835,-4.063849 14.26627,-4.79890198 z M 116.57602,33.42506 c 0,0 2.06793,4.076078 2.06793,4.076078 1.32744,2.809776 2.66983,6.508142 3.48233,9.510852 3.90081,14.42116 2.36548,30.1752 -4.49863,43.478157 -3.30027,6.39809 -7.80841,12.270363 -13.144,17.096433 -5.641287,5.10325 -12.418447,9.21602 -19.565167,11.83693 -17.942901,6.57879 -38.475461,4.25407 -54.347709,-6.4796 C 23.990625,108.49283 18.775963,103.27817 14.269179,96.740137 3.7950172,81.54044 1.1822512,61.64511 6.8846842,44.15873 9.6944612,35.54462 14.535483,27.60442 20.793621,21.060956 29.050397,12.427823 40.697111,6.1044666 52.445722,3.8884386 c 2.33152,-0.440216 6.38043,-1.029889 8.69564,-1.033965 0,0 1.63043,0 1.63043,0 0,0 1.49456,-0.09239 1.49456,-0.09239 0,0 1.08696,0.09239 1.08696,0.09239 0,0 2.03803,0 2.03803,0 0,0 1.3587,0.123641 1.3587,0.123641 2.33015,0.163043 4.6345,0.449727 6.92933,0.908966 4.05298,0.811139 8.019,1.975539 11.820631,3.607329 1.04619,0.448368 3.53939,1.510866 4.34781,2.153528 0,0 -5.2989,3.0013524 -5.2989,3.0013524 -0.41712,0.156249 -1.59782,-0.01495 -2.173911,0 -2.1413,-0.0027 -3.95923,0.995921 -4.65352,3.112765 -0.29484,0.898096 -0.24864,1.653529 -0.23777,2.581516 0.034,2.831515 1.97146,6.663029 3.35869,9.103241 1.933421,3.399449 4.350531,6.21466 7.103241,8.967372 3.65081,3.650807 8.54482,7.411666 13.315187,9.452426 2.99456,1.28125 7.48096,2.61412 9.84645,-0.48505 0.34103,-0.44701 0.4932,-0.82745 0.65353,-1.3587 0.2731,-0.9076 0.24456,-1.38315 0.23369,-2.30977 0,0 -0.44701,-2.989129 -0.44701,-2.989129 0.0435,-0.429347 0.58288,-1.221465 0.81658,-1.630431 z"
     style="fill:#222329;fill-opacity:1;stroke:none" />
</svg>
