<?xml version="1.0" encoding="UTF-8" standalone="no"?>
<!-- Created with Inkscape (http://www.inkscape.org/) -->

<svg
   width="1000"
   height="1000"
   viewBox="0 0 264.58333 264.58334"
   version="1.1"
   id="svg8"
   inkscape:version="1.3.2 (091e20ef0f, 2023-11-25)"
   sodipodi:docname="cart_check_icon_button.svg"
   xml:space="preserve"
   xmlns:inkscape="http://www.inkscape.org/namespaces/inkscape"
   xmlns:sodipodi="http://sodipodi.sourceforge.net/DTD/sodipodi-0.dtd"
   xmlns="http://www.w3.org/2000/svg"
   xmlns:svg="http://www.w3.org/2000/svg"
   xmlns:rdf="http://www.w3.org/1999/02/22-rdf-syntax-ns#"
   xmlns:cc="http://creativecommons.org/ns#"
   xmlns:dc="http://purl.org/dc/elements/1.1/"><defs
     id="defs2" /><sodipodi:namedview
     id="base"
     pagecolor="#ffffff"
     bordercolor="#666666"
     borderopacity="1.0"
     inkscape:pageopacity="0.51764706"
     inkscape:pageshadow="2"
     inkscape:zoom="0.5"
     inkscape:cx="533"
     inkscape:cy="476"
     inkscape:document-units="px"
     inkscape:current-layer="layer1"
     showgrid="false"
     showguides="true"
     inkscape:guide-bbox="true"
     fit-margin-top="0"
     fit-margin-left="0"
     fit-margin-right="0"
     fit-margin-bottom="0"
     inkscape:window-width="1920"
     inkscape:window-height="1029"
     inkscape:window-x="0"
     inkscape:window-y="0"
     inkscape:window-maximized="1"
     inkscape:pagecheckerboard="false"
     units="px"
     inkscape:showpageshadow="2"
     inkscape:deskcolor="#d1d1d1"
     inkscape:clip-to-page="false"><sodipodi:guide
       position="31.751289,322.95521"
       orientation="1,0"
       id="guide1"
       inkscape:locked="false" /><sodipodi:guide
       position="49.07528,222.27048"
       orientation="0,-1"
       id="guide2"
       inkscape:locked="false" /></sodipodi:namedview><metadata
     id="metadata5"><rdf:RDF><cc:Work
         rdf:about=""><dc:format>image/svg+xml</dc:format><dc:type
           rdf:resource="http://purl.org/dc/dcmitype/StillImage" /></cc:Work></rdf:RDF></metadata><g
     inkscape:label="Layer 1"
     inkscape:groupmode="layer"
     id="layer1"
     transform="translate(-14.033305,-169.36185)"><rect
       style="opacity:1;fill:#25272e;fill-opacity:0.501961;stroke:none;stroke-width:2.40312;stroke-linecap:butt;stroke-linejoin:miter;stroke-miterlimit:4;stroke-dasharray:none;stroke-dashoffset:0;stroke-opacity:1;paint-order:normal"
       id="rect815-3"
       width="264.58334"
       height="264.58334"
       x="14.033305"
       y="169.36185" /><path
       id="Выделение"
       fill="none"
       stroke="#000000"
       stroke-width="0.937554"
       d="m 125.1868,349.27962 c 1.54804,1.89204 2.54302,3.83172 3.44008,6.0863 4.4774,11.23849 0.70125,24.459 -9.26176,31.43442 -9.15327,6.40914 -21.193561,6.40914 -30.431504,0.18259 -3.649138,-2.45833 -6.229193,-5.57029 -8.351468,-9.38877 -2.270456,-4.08313 -3.080193,-8.88071 -3.027268,-13.49572 0.07679,-6.45413 3.334233,-13.53011 7.938654,-17.9837 1.804716,-1.7465 3.89788,-3.17545 6.0863,-4.39272 0.767406,-0.42869 2.095808,-0.75152 2.17519,-1.73327 0,0 -0.531893,-2.61711 -0.531893,-2.61711 0,0 -1.410428,-6.0863 -1.410428,-6.0863 0,0 -3.969331,-17.20042 -3.969331,-17.20042 0,0 -13.106713,-56.89369 -13.106713,-56.89369 0,0 -4.292169,-18.52352 -4.292169,-18.52352 -0.275209,-1.12729 -0.844145,-4.98547 -1.704164,-5.55177 -0.497484,-0.32548 -1.450124,-0.26991 -2.034942,-0.26991 0,0 -9.791006,0 -9.791006,0 -1.902635,-0.003 -3.281308,-0.16936 -5.027811,-1.00027 -6.546742,-3.11725 -8.190049,-11.76244 -3.151644,-16.98343 2.222818,-2.30485 5.056922,-3.18075 8.179455,-3.18604 0,0 20.640502,0 20.640502,0 3.789387,0.045 7.327378,1.92644 9.179731,5.29244 1.323104,2.40276 1.791488,5.75816 2.431874,8.46789 0,0 3.908466,16.93579 3.908466,16.93579 0,0 1.910566,8.20328 1.910566,8.20328 0.19053,0.78064 0.423399,2.50067 0.976453,3.01669 0.545123,0.51072 1.532159,0.42075 2.233412,0.42339 0,0 6.615538,0 6.615538,0 2.32074,-0.045 3.56182,-2.03229 5.29244,-3.46125 2.25458,-1.85765 5.48826,-3.78674 8.20328,-4.88756 3.00875,-1.21991 7.07069,-2.23077 10.32024,-2.23606 0,0 14.28958,0 14.28958,0 0.46838,-2.97964 3.55652,-7.73489 5.49091,-10.05563 8.73251,-10.47638 24.02501,-13.96409 36.58396,-8.87806 7.66344,3.10401 12.56159,9.00244 18.2589,14.69975 0,0 10.84949,10.84948 10.84949,10.84948 0.89443,0.89443 3.20193,3.43215 4.23395,3.81056 0.51337,0.19053 1.2993,0.15877 1.85235,0.15877 0,0 15.6127,0 15.6127,0 1.61948,0.003 2.97964,0.12437 4.49857,0.76211 1.11406,0.46573 2.2731,1.12465 3.17281,1.93174 1.12199,1.01086 1.79678,2.04024 2.44246,3.39245 2.33397,4.90609 -0.15877,9.83071 -1.73327,14.55421 0,0 -14.37955,43.13335 -14.37955,43.13335 0,0 -4.67323,14.02495 -4.67323,14.02495 0,0 -2.55888,7.93865 -2.55888,7.93865 2.3022,0.53984 4.60706,1.68829 6.61554,2.91085 11.59308,7.05482 15.72647,22.33408 9.6931,34.40083 -4.82406,9.65075 -14.2049,14.67592 -24.77655,14.5542 -2.84997,-0.0344 -6.35621,-0.90236 -8.99714,-1.9582 -13.49041,-5.39565 -19.88897,-20.90512 -14.55419,-34.29499 0.89706,-2.25458 1.89204,-4.19426 3.44008,-6.0863 z m 37.04706,-42.33949 c 0,0 0,10.05563 0,10.05563 0.0132,8.12124 7.52055,13.29989 14.55419,10.352 3.26808,-1.36808 6.20538,-4.91402 8.73252,-7.44116 0,0 15.08344,-15.08344 15.08344,-15.08344 0,0 8.4679,-8.4679 8.4679,-8.4679 3.26544,-3.26544 6.08366,-5.57029 6.08366,-10.58487 0,-5.01458 -2.81822,-7.31944 -6.08366,-10.58487 0,0 -8.4679,-8.4679 -8.4679,-8.4679 0,0 -15.08344,-15.08344 -15.08344,-15.08344 -2.52714,-2.52714 -5.46444,-6.07307 -8.73252,-7.44117 -7.03364,-2.94788 -14.54096,2.23076 -14.55419,10.352 0,0 0,10.05564 0,10.05564 0,0 -31.22538,0 -31.22538,0 -6.68434,0.0106 -11.10353,4.42976 -11.11412,11.11411 0,0 0,20.37587 0,20.37587 0.0318,6.5494 4.65206,10.83892 11.11412,10.8495 z m -59.01067,53.00375 c -1.16698,0.23021 -1.96613,0.48955 -2.8632,1.33104 -3.508892,3.29191 -1.045263,9.88628 4.45093,9.09505 4.66264,-0.67213 5.67085,-6.11805 3.08814,-8.87012 -1.27283,-1.3575 -2.88702,-1.71739 -4.67587,-1.55597 z m 111.14116,0 c -1.16698,0.23021 -1.96614,0.48955 -2.86321,1.33104 -3.50888,3.29191 -1.04526,9.88628 4.45094,9.09505 4.66263,-0.67213 5.67084,-6.11805 3.08813,-8.87012 -1.27283,-1.3575 -2.88702,-1.71739 -4.67586,-1.55597 z"
       style="fill:#25272e;fill-opacity:1;stroke:none" /></g></svg>
