<?xml version="1.0" encoding="UTF-8" standalone="no"?>
<!-- Created with Inkscape (http://www.inkscape.org/) -->

<svg
   width="1000"
   height="1000"
   viewBox="0 0 264.58333 264.58334"
   version="1.1"
   id="svg8"
   inkscape:version="1.3.2 (091e20ef0f, 2023-11-25)"
   sodipodi:docname="cart_rem_icon_button.svg"
   xml:space="preserve"
   xmlns:inkscape="http://www.inkscape.org/namespaces/inkscape"
   xmlns:sodipodi="http://sodipodi.sourceforge.net/DTD/sodipodi-0.dtd"
   xmlns="http://www.w3.org/2000/svg"
   xmlns:svg="http://www.w3.org/2000/svg"
   xmlns:rdf="http://www.w3.org/1999/02/22-rdf-syntax-ns#"
   xmlns:cc="http://creativecommons.org/ns#"
   xmlns:dc="http://purl.org/dc/elements/1.1/"><defs
     id="defs2" /><sodipodi:namedview
     id="base"
     pagecolor="#ffffff"
     bordercolor="#666666"
     borderopacity="1.0"
     inkscape:pageopacity="0.51764706"
     inkscape:pageshadow="2"
     inkscape:zoom="0.25"
     inkscape:cx="1070"
     inkscape:cy="464"
     inkscape:document-units="px"
     inkscape:current-layer="layer1"
     showgrid="false"
     showguides="true"
     inkscape:guide-bbox="true"
     fit-margin-top="0"
     fit-margin-left="0"
     fit-margin-right="0"
     fit-margin-bottom="0"
     inkscape:window-width="1920"
     inkscape:window-height="1029"
     inkscape:window-x="0"
     inkscape:window-y="0"
     inkscape:window-maximized="1"
     inkscape:pagecheckerboard="false"
     units="px"
     inkscape:showpageshadow="2"
     inkscape:deskcolor="#d1d1d1"
     inkscape:clip-to-page="false"><sodipodi:guide
       position="31.751289,322.95521"
       orientation="1,0"
       id="guide1"
       inkscape:locked="false" /><sodipodi:guide
       position="49.07528,222.27048"
       orientation="0,-1"
       id="guide2"
       inkscape:locked="false" /></sodipodi:namedview><metadata
     id="metadata5"><rdf:RDF><cc:Work
         rdf:about=""><dc:format>image/svg+xml</dc:format><dc:type
           rdf:resource="http://purl.org/dc/dcmitype/StillImage" /></cc:Work></rdf:RDF></metadata><g
     inkscape:label="Layer 1"
     inkscape:groupmode="layer"
     id="layer1"
     transform="translate(-14.033305,-169.36185)"><rect
       style="opacity:1;fill:#25272e;fill-opacity:0.501961;stroke:none;stroke-width:2.40312;stroke-linecap:butt;stroke-linejoin:miter;stroke-miterlimit:4;stroke-dasharray:none;stroke-dashoffset:0;stroke-opacity:1;paint-order:normal"
       id="rect815-3"
       width="264.58334"
       height="264.58334"
       x="14.033305"
       y="169.36185" /><path
       id="Выделение"
       fill="none"
       stroke="#000000"
       stroke-width="0.937554"
       d="m 125.16847,349.26909 c 1.54804,1.89204 2.54302,3.83172 3.44008,6.0863 4.4774,11.23849 0.70125,24.45899 -9.26176,31.43442 -9.15327,6.40914 -21.193562,6.40914 -30.431502,0.18259 -3.649138,-2.45833 -6.229202,-5.57029 -8.351468,-9.38878 -2.270455,-4.08312 -3.080192,-8.8807 -3.027268,-13.49571 0.07679,-6.45413 3.334233,-13.53011 7.938654,-17.9837 1.804716,-1.7465 3.897871,-3.17546 6.0863,-4.39272 0.767397,-0.42869 2.095798,-0.75152 2.17519,-1.73327 0,0 -0.531893,-2.61711 -0.531893,-2.61711 0,0 -1.410437,-6.0863 -1.410437,-6.0863 0,0 -3.969322,-17.20042 -3.969322,-17.20042 0,0 -13.106722,-56.89369 -13.106722,-56.89369 0,0 -4.29216,-18.52352 -4.29216,-18.52352 -0.275209,-1.12729 -0.844145,-4.98547 -1.704163,-5.55176 -0.497494,-0.32549 -1.450134,-0.26992 -2.034942,-0.26992 0,0 -9.791007,0 -9.791007,0 -1.902634,-0.003 -3.281317,-0.16936 -5.02782,-1.00027 -6.546742,-3.11725 -8.19004,-11.76244 -3.151644,-16.98343 2.222828,-2.30485 5.056922,-3.18075 8.179464,-3.18604 0,0 20.640502,0 20.640502,0 3.789378,0.045 7.327378,1.92644 9.179722,5.29244 1.323114,2.40276 1.791497,5.75816 2.431874,8.46789 0,0 3.908466,16.9358 3.908466,16.9358 0,0 1.910575,8.20327 1.910575,8.20327 0.19053,0.78064 0.423399,2.50067 0.976453,3.01669 0.545118,0.51072 1.532156,0.42075 2.233409,0.4234 0,0 6.615539,0 6.615539,0 2.41865,-0.045 3.96933,-2.3816 5.55706,-3.96934 0,0 11.11411,-11.11411 11.11411,-11.11411 0,0 13.49572,-13.49571 13.49572,-13.49571 4.93519,-4.9352 8.42026,-8.82514 15.08344,-11.52428 5.34271,-2.16196 8.93893,-2.29956 14.5542,-2.23605 5.73171,0.0688 13.0141,3.17546 17.46503,6.69228 2.68856,2.12227 5.71848,5.37711 8.20328,7.86191 0,0 15.08345,15.08345 15.08345,15.08345 0,0 9.26175,9.26176 9.26175,9.26176 2.04289,2.04288 2.58801,3.43479 5.55706,3.44009 0,0 15.61269,0 15.61269,0 1.61949,0.003 2.97964,0.12436 4.49858,0.7621 1.11405,0.46573 2.27309,1.12465 3.17281,1.93174 1.12199,1.01086 1.79677,2.04024 2.44246,3.39246 2.33396,4.90608 -0.15878,9.8307 -1.73328,14.5542 0,0 -14.37954,43.13335 -14.37954,43.13335 0,0 -4.67323,14.02495 -4.67323,14.02495 0,0 -2.55888,7.93865 -2.55888,7.93865 2.3022,0.53984 4.60706,1.68829 6.61553,2.91084 11.59308,7.05483 15.72648,22.33409 9.6931,34.40084 -4.82405,9.65075 -14.2049,14.67592 -24.77654,14.5542 -2.84997,-0.0344 -6.35621,-0.90236 -8.99714,-1.95821 -13.49042,-5.39564 -19.88897,-20.90511 -14.55419,-34.29498 0.89706,-2.25458 1.89204,-4.19426 3.44008,-6.0863 z m 58.2168,-63.50923 c 0,0 10.05562,0 10.05562,0 8.12124,-0.0132 13.2999,-7.52055 10.35201,-14.5542 -1.3681,-3.26808 -4.91403,-6.20538 -7.44117,-8.73252 0,0 -15.08344,-15.08344 -15.08344,-15.08344 0,0 -8.46789,-8.4679 -8.46789,-8.4679 -3.26544,-3.26543 -5.57029,-6.08365 -10.58487,-6.08365 -5.01459,0 -7.31945,2.81822 -10.58488,6.08365 0,0 -8.4679,8.4679 -8.4679,8.4679 0,0 -15.08344,15.08344 -15.08344,15.08344 -2.52714,2.52714 -6.07307,5.46444 -7.44117,8.73252 -2.94788,7.03365 2.23077,14.54097 10.35201,14.5542 0,0 10.05563,0 10.05563,0 0,0 0,31.22537 0,31.22537 0.0106,6.68435 4.42977,11.10353 11.11412,11.11411 0,0 20.37587,0 20.37587,0 6.54939,-0.0318 10.83891,-4.65205 10.8495,-11.11411 z m -80.18041,74.17349 c -1.16698,0.23021 -1.96613,0.48955 -2.8632,1.33104 -3.508893,3.2919 -1.045263,9.88627 4.45093,9.09505 4.66263,-0.67213 5.67085,-6.11805 3.08814,-8.87012 -1.27283,-1.3575 -2.88702,-1.71739 -4.67587,-1.55597 z m 111.14116,0 c -1.16699,0.23021 -1.96615,0.48955 -2.86321,1.33104 -3.50889,3.2919 -1.04526,9.88627 4.45094,9.09505 4.66263,-0.67213 5.67084,-6.11805 3.08813,-8.87012 -1.27283,-1.3575 -2.88702,-1.71739 -4.67586,-1.55597 z"
       style="fill:#25272e;fill-opacity:1;stroke:none" /></g></svg>
