<?xml version="1.0" encoding="UTF-8" standalone="no"?>
<!-- Created with Inkscape (http://www.inkscape.org/) -->

<svg
   width="1000"
   height="1000"
   viewBox="0 0 264.58333 264.58334"
   version="1.1"
   id="svg8"
   inkscape:version="1.3.2 (091e20ef0f, 2023-11-25)"
   sodipodi:docname="cart_icon_button.svg"
   xml:space="preserve"
   xmlns:inkscape="http://www.inkscape.org/namespaces/inkscape"
   xmlns:sodipodi="http://sodipodi.sourceforge.net/DTD/sodipodi-0.dtd"
   xmlns="http://www.w3.org/2000/svg"
   xmlns:svg="http://www.w3.org/2000/svg"
   xmlns:rdf="http://www.w3.org/1999/02/22-rdf-syntax-ns#"
   xmlns:cc="http://creativecommons.org/ns#"
   xmlns:dc="http://purl.org/dc/elements/1.1/"><defs
     id="defs2" /><sodipodi:namedview
     id="base"
     pagecolor="#ffffff"
     bordercolor="#666666"
     borderopacity="1.0"
     inkscape:pageopacity="0.51764706"
     inkscape:pageshadow="2"
     inkscape:zoom="0.70710678"
     inkscape:cx="511.2382"
     inkscape:cy="386.0803"
     inkscape:document-units="px"
     inkscape:current-layer="layer1"
     showgrid="false"
     showguides="true"
     inkscape:guide-bbox="true"
     fit-margin-top="0"
     fit-margin-left="0"
     fit-margin-right="0"
     fit-margin-bottom="0"
     inkscape:window-width="1920"
     inkscape:window-height="1029"
     inkscape:window-x="0"
     inkscape:window-y="0"
     inkscape:window-maximized="1"
     inkscape:pagecheckerboard="false"
     units="px"
     inkscape:showpageshadow="2"
     inkscape:deskcolor="#d1d1d1"
     inkscape:clip-to-page="false"><sodipodi:guide
       position="31.751289,322.95521"
       orientation="1,0"
       id="guide1"
       inkscape:locked="false" /><sodipodi:guide
       position="24.337284,232.82948"
       orientation="0,-1"
       id="guide2"
       inkscape:locked="false" /></sodipodi:namedview><metadata
     id="metadata5"><rdf:RDF><cc:Work
         rdf:about=""><dc:format>image/svg+xml</dc:format><dc:type
           rdf:resource="http://purl.org/dc/dcmitype/StillImage" /></cc:Work></rdf:RDF></metadata><g
     inkscape:label="Layer 1"
     inkscape:groupmode="layer"
     id="layer1"
     transform="translate(-14.033305,-169.36185)"><rect
       style="opacity:1;fill:#25272e;fill-opacity:0.501961;stroke:none;stroke-width:2.40312;stroke-linecap:butt;stroke-linejoin:miter;stroke-miterlimit:4;stroke-dasharray:none;stroke-dashoffset:0;stroke-opacity:1;paint-order:normal"
       id="rect815-3"
       width="264.58334"
       height="264.58334"
       x="14.033305"
       y="169.36185" /><path
       id="Выделение #2"
       fill="none"
       stroke="#000000"
       stroke-width="0.937554"
       d="m 125.18793,349.29851 c 1.54804,1.89204 2.54302,3.83172 3.44008,6.0863 4.4774,11.23849 0.70125,24.45899 -9.26176,31.43442 -9.15327,6.40915 -21.193565,6.40915 -30.431515,0.18259 -3.64913,-2.45833 -6.2292,-5.57029 -8.35146,-9.38878 -2.27046,-4.08311 -3.0802,-8.88071 -3.02727,-13.49571 0.0768,-6.45412 3.33423,-13.53011 7.93865,-17.9837 1.80472,-1.7465 3.89788,-3.17546 6.0863,-4.39272 0.76741,-0.42869 2.09581,-0.75153 2.17519,-1.73327 0,0 -0.53189,-2.61711 -0.53189,-2.61711 0,0 -1.41043,-6.0863 -1.41043,-6.0863 0,0 -3.96933,-17.20042 -3.96933,-17.20042 0,0 -13.10671,-56.89368 -13.10671,-56.89368 0,0 -4.29217,-18.52353 -4.29217,-18.52353 -0.27521,-1.12729 -0.84415,-4.98547 -1.70417,-5.55177 -0.49749,-0.32548 -1.45012,-0.26991 -2.03494,-0.26991 0,0 -9.791,0 -9.791,0 -1.90264,-0.003 -3.28131,-0.16936 -5.02781,-1.00027 -6.54676,-3.11724 -8.19005,-11.76243 -3.15166,-16.98343 2.22283,-2.30485 5.05692,-3.18075 8.17947,-3.18604 0,0 20.6405,0 20.6405,0 3.78938,0.045 7.32738,1.92645 9.17973,5.29244 1.3231,2.40276 1.79149,5.75816 2.43187,8.46789 0,0 3.90846,16.93579 3.90846,16.93579 0,0 1.91057,8.20328 1.91057,8.20328 0.19053,0.78064 0.4234,2.50067 0.97646,3.01669 0.54512,0.51072 1.53216,0.42075 2.23341,0.42339 0,0 137.603335,0 137.603335,0 1.61948,0.003 2.97964,0.12438 4.49857,0.76211 1.11406,0.46574 2.2731,1.12465 3.17282,1.93175 1.12198,1.01085 1.79677,2.04023 2.44245,3.39244 2.33397,4.90609 -0.15877,9.83071 -1.73327,14.55421 0,0 -14.37955,43.13334 -14.37955,43.13334 0,0 -4.67322,14.02496 -4.67322,14.02496 0,0 -2.55889,7.93866 -2.55889,7.93866 2.3022,0.53982 4.60707,1.68828 6.61554,2.91083 11.59308,7.05482 15.72647,22.33408 9.6931,34.40084 -4.82405,9.65075 -14.2049,14.67592 -24.77654,14.55419 -2.84998,-0.0344 -6.35621,-0.90235 -8.99714,-1.9582 -13.49042,-5.39563 -19.88897,-20.90512 -14.5542,-34.29498 0.89707,-2.25458 1.89204,-4.19426 3.44009,-6.0863 z m -12.1726,-74.07558 c -1.55598,0.3149 -2.28633,0.50543 -3.70471,1.24637 -3.67559,1.92644 -5.72112,5.737 -5.54647,9.84923 0.0582,1.40778 0.68272,3.83437 0.99233,5.29243 0,0 1.41308,6.61554 1.41308,6.61554 0,0 4.2313,18.52352 4.2313,18.52352 0.99763,4.33981 1.3972,7.81958 5.78992,10.23822 3.00876,1.65654 5.18924,1.42103 8.46791,1.40514 0,0 3.7047,-0.26461 3.7047,-0.26461 0,0 65.09696,0 65.09696,0 2.82616,-0.006 6.4409,-0.49485 8.73252,-2.25723 3.36864,-2.59329 4.45094,-6.3324 5.73436,-10.18 0,0 5.29243,-15.8773 5.29243,-15.8773 0,0 2.64622,-7.93865 2.64622,-7.93865 0.60069,-1.80737 1.31782,-3.63327 1.39985,-5.55706 0.2805,-6.60497 -4.67323,-11.10354 -11.10353,-11.0956 0,0 -61.65688,0 -61.65688,0 0,0 -20.6405,0 -20.6405,0 z m 20.11125,21.19356 c 0,0 17.20042,0 17.20042,0 0,0 33.34234,0 33.34234,0 1.44748,-0.0397 2.69121,-0.0238 3.96669,0.78857 2.81292,1.79149 3.16223,6.05985 0.74623,8.34353 -1.39456,1.3231 -2.91084,1.40778 -4.71292,1.41044 0,0 -48.42578,0 -48.42578,0 -1.93439,-0.003 -3.52212,-0.12438 -4.94049,-1.63537 -2.57478,-2.74413 -1.65653,-7.72961 2.82351,-8.90717 z m -29.90226,63.54627 c -1.16698,0.23023 -1.96614,0.48956 -2.8632,1.33106 -3.508895,3.29189 -1.045265,9.88626 4.45093,9.09505 4.66263,-0.67214 5.67085,-6.11806 3.08813,-8.87012 -1.27282,-1.35751 -2.88702,-1.7174 -4.67586,-1.55599 z m 111.14115,0 c -1.16698,0.23023 -1.96614,0.48956 -2.86321,1.33106 -3.50888,3.29189 -1.04525,9.88626 4.45094,9.09505 4.66264,-0.67214 5.67084,-6.11806 3.08814,-8.87012 -1.27284,-1.35751 -2.88702,-1.7174 -4.67587,-1.55599 z"
       style="fill:#25272e;fill-opacity:1;stroke:none" /></g></svg>
