<?xml version="1.0" encoding="UTF-8" standalone="no"?>
<!-- Created with Inkscape (http://www.inkscape.org/) -->

<svg
   width="1000"
   height="1000"
   viewBox="0 0 264.58333 264.58334"
   version="1.1"
   id="svg8"
   inkscape:version="1.3.2 (091e20ef0f, 2023-11-25)"
   sodipodi:docname="cart_check_num_icon_button.svg"
   xml:space="preserve"
   xmlns:inkscape="http://www.inkscape.org/namespaces/inkscape"
   xmlns:sodipodi="http://sodipodi.sourceforge.net/DTD/sodipodi-0.dtd"
   xmlns="http://www.w3.org/2000/svg"
   xmlns:svg="http://www.w3.org/2000/svg"
   xmlns:rdf="http://www.w3.org/1999/02/22-rdf-syntax-ns#"
   xmlns:cc="http://creativecommons.org/ns#"
   xmlns:dc="http://purl.org/dc/elements/1.1/"><defs
     id="defs2" /><sodipodi:namedview
     id="base"
     pagecolor="#ffffff"
     bordercolor="#666666"
     borderopacity="1.0"
     inkscape:pageopacity="0.51764706"
     inkscape:pageshadow="2"
     inkscape:zoom="0.70710678"
     inkscape:cx="420.02143"
     inkscape:cy="530.33008"
     inkscape:document-units="px"
     inkscape:current-layer="layer1"
     showgrid="false"
     showguides="true"
     inkscape:guide-bbox="true"
     fit-margin-top="0"
     fit-margin-left="0"
     fit-margin-right="0"
     fit-margin-bottom="0"
     inkscape:window-width="1920"
     inkscape:window-height="1029"
     inkscape:window-x="0"
     inkscape:window-y="0"
     inkscape:window-maximized="1"
     inkscape:pagecheckerboard="false"
     units="px"
     inkscape:showpageshadow="2"
     inkscape:deskcolor="#d1d1d1"
     inkscape:clip-to-page="false"><sodipodi:guide
       position="31.751289,322.95521"
       orientation="1,0"
       id="guide1"
       inkscape:locked="false" /><sodipodi:guide
       position="49.07528,222.27048"
       orientation="0,-1"
       id="guide2"
       inkscape:locked="false" /></sodipodi:namedview><metadata
     id="metadata5"><rdf:RDF><cc:Work
         rdf:about=""><dc:format>image/svg+xml</dc:format><dc:type
           rdf:resource="http://purl.org/dc/dcmitype/StillImage" /></cc:Work></rdf:RDF></metadata><g
     inkscape:label="Layer 1"
     inkscape:groupmode="layer"
     id="layer1"
     transform="translate(-14.033305,-169.36185)"><rect
       style="opacity:1;fill:#25272e;fill-opacity:0.501961;stroke:none;stroke-width:2.40312;stroke-linecap:butt;stroke-linejoin:miter;stroke-miterlimit:4;stroke-dasharray:none;stroke-dashoffset:0;stroke-opacity:1;paint-order:normal"
       id="rect815-3"
       width="264.58334"
       height="264.58334"
       x="14.033305"
       y="169.36185" /><path
       id="Выделение"
       style="fill:#25272e;fill-opacity:1;stroke:none"
       d="M 56.914409 211.67606 C 53.791879 211.68135 50.957879 212.55758 48.735063 214.86243 C 43.696663 220.08342 45.340073 228.72864 51.886809 231.84589 C 53.63331 232.6768 55.011776 232.84283 56.914409 232.84583 L 66.705542 232.84583 C 67.29036 232.84583 68.243077 232.79062 68.74056 233.1161 C 69.600579 233.6824 70.169124 237.54041 70.444332 238.6677 L 74.736577 257.19111 L 87.84327 314.0848 L 91.812537 331.2853 L 93.223304 337.37175 L 93.755054 339.98865 C 93.675672 340.97039 92.347399 341.29318 91.579993 341.72187 C 89.391576 342.93914 87.298257 344.36839 85.493543 346.11489 C 80.889127 350.56847 77.631799 357.64416 77.55501 364.09829 C 77.502085 368.71329 78.311761 373.51098 80.582215 377.5941 C 82.704488 381.41258 85.284509 384.52435 88.933643 386.98268 C 98.171577 393.20922 110.21212 393.20939 119.36538 386.80026 C 129.32838 379.82485 133.10422 366.60448 128.62683 355.366 C 127.72977 353.11142 126.73477 351.17159 125.18673 349.27955 L 193.98821 349.27955 C 192.44017 351.17159 191.44569 353.11142 190.54863 355.366 C 185.21386 368.75586 191.61238 384.26542 205.10278 389.66107 C 207.74371 390.71691 211.24968 391.58469 214.09965 391.61909 C 224.67129 391.74081 234.05237 386.71568 238.87643 377.06494 C 244.90979 364.9982 240.77603 349.71875 229.18296 342.66393 C 227.17449 341.44138 224.87006 340.29284 222.56786 339.753 L 225.12636 331.81447 L 229.79998 317.78948 L 244.17947 274.6562 C 245.75396 269.9327 248.24666 265.00813 245.91269 260.10205 C 245.26701 258.74984 244.59194 257.72035 243.46995 256.70949 C 242.57024 255.9024 241.41159 255.24356 240.29753 254.77783 C 238.7786 254.14009 237.41806 254.0186 235.79858 254.0156 L 223.29754 254.0156 A 63.188877 63.188877 0 0 0 163.72081 211.86778 A 63.188877 63.188877 0 0 0 104.29963 254.0156 L 98.19561 254.0156 C 97.494358 254.01296 96.507277 254.10309 95.962155 253.59237 C 95.409101 253.07635 95.176 251.35614 94.98547 250.5755 L 93.074993 242.37238 L 89.166704 225.43646 C 88.526319 222.72674 88.057914 219.37152 86.734811 216.96876 C 84.88246 213.60277 81.344393 211.72106 77.55501 211.67606 L 56.914409 211.67606 z M 104.52959 359.928 C 105.79792 360.02475 106.94427 360.48187 107.89889 361.49999 C 110.4816 364.25206 109.47335 369.69761 104.81071 370.36974 C 99.314523 371.16097 96.850931 364.56659 100.35982 361.27468 C 101.25689 360.4332 102.05623 360.17423 103.22321 359.94402 C 103.67042 359.90366 104.10682 359.89575 104.52959 359.928 z M 215.67061 359.928 C 216.93893 360.02475 218.08581 360.48187 219.04043 361.49999 C 221.62314 364.25206 220.61487 369.69761 215.95225 370.36974 C 210.45605 371.16097 207.99248 364.56659 211.50136 361.27468 C 212.39843 360.4332 213.19725 360.17423 214.36423 359.94402 C 214.81144 359.90366 215.24784 359.89575 215.67061 359.928 z " /></g></svg>
