<?xml version="1.0" encoding="UTF-8" standalone="no"?>
<!-- Created with Inkscape (http://www.inkscape.org/) -->

<svg
   width="1000"
   height="1000"
   viewBox="0 0 264.58333 264.58334"
   version="1.1"
   id="svg8"
   inkscape:version="1.3.2 (091e20ef0f, 2023-11-25)"
   sodipodi:docname="cart_empty_icon_button.svg"
   xml:space="preserve"
   xmlns:inkscape="http://www.inkscape.org/namespaces/inkscape"
   xmlns:sodipodi="http://sodipodi.sourceforge.net/DTD/sodipodi-0.dtd"
   xmlns="http://www.w3.org/2000/svg"
   xmlns:svg="http://www.w3.org/2000/svg"
   xmlns:rdf="http://www.w3.org/1999/02/22-rdf-syntax-ns#"
   xmlns:cc="http://creativecommons.org/ns#"
   xmlns:dc="http://purl.org/dc/elements/1.1/"><defs
     id="defs2" /><sodipodi:namedview
     id="base"
     pagecolor="#ffffff"
     bordercolor="#666666"
     borderopacity="1.0"
     inkscape:pageopacity="0.51764706"
     inkscape:pageshadow="2"
     inkscape:zoom="0.5"
     inkscape:cx="742"
     inkscape:cy="560"
     inkscape:document-units="px"
     inkscape:current-layer="layer1"
     showgrid="false"
     showguides="true"
     inkscape:guide-bbox="true"
     fit-margin-top="0"
     fit-margin-left="0"
     fit-margin-right="0"
     fit-margin-bottom="0"
     inkscape:window-width="1920"
     inkscape:window-height="1029"
     inkscape:window-x="0"
     inkscape:window-y="0"
     inkscape:window-maximized="1"
     inkscape:pagecheckerboard="false"
     units="px"
     inkscape:showpageshadow="2"
     inkscape:deskcolor="#d1d1d1"
     inkscape:clip-to-page="false"><sodipodi:guide
       position="31.751289,322.95521"
       orientation="1,0"
       id="guide1"
       inkscape:locked="false" /><sodipodi:guide
       position="24.337284,232.82948"
       orientation="0,-1"
       id="guide2"
       inkscape:locked="false" /></sodipodi:namedview><metadata
     id="metadata5"><rdf:RDF><cc:Work
         rdf:about=""><dc:format>image/svg+xml</dc:format><dc:type
           rdf:resource="http://purl.org/dc/dcmitype/StillImage" /></cc:Work></rdf:RDF></metadata><g
     inkscape:label="Layer 1"
     inkscape:groupmode="layer"
     id="layer1"
     transform="translate(-14.033305,-169.36185)"><rect
       style="opacity:1;fill:#25272e;fill-opacity:0.501961;stroke:none;stroke-width:2.40312;stroke-linecap:butt;stroke-linejoin:miter;stroke-miterlimit:4;stroke-dasharray:none;stroke-dashoffset:0;stroke-opacity:1;paint-order:normal"
       id="rect815-3"
       width="264.58334"
       height="264.58334"
       x="14.033305"
       y="169.36185" /><path
       id="rect3-6"
       style="color:#000000;fill:#25272e;fill-rule:evenodd;stroke-linecap:round;stroke-linejoin:round;stroke-miterlimit:4.3;-inkscape-stroke:none;paint-order:stroke fill markers"
       d="m 202.06421,211.61147 c -7.64049,0.22315 -14.38036,3.50556 -19.64015,8.76535 l -19.76365,19.76366 -19.74246,-19.74195 c -4.67504,-4.67503 -10.52385,-7.74685 -17.12868,-8.57261 -6.60481,-0.82574 -14.60406,1.0142 -20.29126,6.7014 v 0.002 l -1.87121,1.87121 c -5.685104,5.68655 -7.524216,13.68295 -6.698813,20.28713 0.615943,4.92824 2.483598,9.43414 5.333013,13.34699 h -4.064356 c -0.70125,-0.003 -1.688336,0.0875 -2.233456,-0.42323 -0.553058,-0.51602 -0.786154,-2.23623 -0.976684,-3.01687 l -1.910478,-8.20312 -3.908289,-16.93592 c -0.640378,-2.70971 -1.108796,-6.06547 -2.431892,-8.46821 -1.852348,-3.36599 -5.39043,-5.24719 -9.179802,-5.29219 H 56.915442 c -3.122544,0.005 -5.956521,0.88101 -8.179345,3.18586 -5.03838,5.22098 -3.395001,13.86622 3.151745,16.98346 1.746496,0.83089 3.124964,0.99745 5.0276,1.00045 h 9.791134 c 0.584818,0 1.537528,-0.0557 2.035018,0.26975 0.860018,0.5663 1.428562,4.42483 1.703772,5.55212 l 4.292244,18.52342 13.106694,56.89368 3.969267,17.2005 1.410766,6.08593 0.531751,2.61742 c -0.07938,0.98172 -1.407653,1.30453 -2.175061,1.73322 -2.188416,1.21726 -4.281734,2.646 -6.08645,4.3925 -4.604412,4.45359 -7.861734,11.5298 -7.938534,17.98392 -0.05293,4.61498 0.756751,9.41272 3.027205,13.49581 2.122256,3.81849 4.702305,6.93025 8.351429,9.38858 9.23793,6.22654 21.278483,6.22671 30.431733,-0.18242 9.96299,-6.97541 13.73885,-20.19632 9.26145,-31.43477 -0.89706,-2.25458 -1.89206,-4.1939 -3.4401,-6.08594 h 68.802 c -1.54803,1.89204 -2.54303,3.83136 -3.4401,6.08594 -5.33475,13.38982 1.06377,28.89943 14.55415,34.29506 2.64093,1.05585 6.14689,1.92414 8.99687,1.95854 10.57162,0.12173 19.95275,-4.90342 24.77678,-14.55415 6.03337,-12.06674 1.90011,-27.34619 -9.69295,-34.40101 -2.00845,-1.22253 -4.31341,-2.37111 -6.61561,-2.91093 l 2.5585,-7.93853 4.67361,-14.02499 14.37949,-43.13328 c 1.5745,-4.7235 4.06718,-9.64808 1.73323,-14.55415 -0.64568,-1.35221 -1.32077,-2.38171 -2.44275,-3.39256 -0.89972,-0.8071 -2.05837,-1.46592 -3.17241,-1.93166 -1.51893,-0.63773 -2.87948,-0.75923 -4.49896,-0.76223 h -12.73514 c 2.85864,-3.9178 4.73225,-8.43155 5.34955,-13.36869 0.82581,-6.60488 -1.01392,-14.60224 -6.70088,-20.28921 l -0.002,-0.002 -1.86914,-1.86914 -0.002,-0.002 c -4.97531,-4.97406 -11.83303,-7.06569 -17.77515,-6.89208 z m 0.49041,15.86053 c 2.33014,-0.0681 4.50039,0.66496 6.08748,2.25206 l 1.8712,1.87068 c 3.62765,3.62764 2.7929,10.30294 -1.8712,14.96705 l -30.98932,30.98932 30.77124,30.77125 c 4.66411,4.66412 5.49885,11.33941 1.87121,14.96705 l -1.87121,1.87068 c -3.62764,3.62765 -10.30293,2.79343 -14.96704,-1.87068 l -30.77125,-30.77125 -30.75006,30.75006 c -4.66412,4.66411 -11.3394,5.49885 -14.96705,1.8712 l -1.87068,-1.8712 c -3.62764,-3.62764 -2.79343,-10.30293 1.87068,-14.96705 l 30.75007,-30.75006 -30.96814,-30.96813 c -4.66411,-4.66412 -5.49833,-11.3394 -1.87069,-14.96705 l 1.87069,-1.8712 c 3.62765,-3.62765 10.30345,-2.7929 14.96756,1.8712 l 30.96762,30.96814 30.98932,-30.98933 c 2.62356,-2.62356 5.88366,-4.03524 8.87957,-4.12274 z m -98.024,132.47512 c 1.26833,0.0968 2.41469,0.55335 3.36931,1.57148 2.5827,2.75204 1.57496,8.19812 -3.08767,8.87026 -5.496183,0.79121 -7.959779,-5.80318 -4.45089,-9.09505 0.89706,-0.8415 1.69591,-1.10096 2.86287,-1.33119 0.44721,-0.0403 0.88361,-0.0478 1.30638,-0.0155 z m 111.14102,0 c 1.26833,0.0968 2.41521,0.55335 3.36982,1.57148 2.5827,2.75204 1.57446,8.19812 -3.08818,8.87026 -5.49617,0.79121 -7.95977,-5.80318 -4.45089,-9.09505 0.89707,-0.8415 1.69591,-1.10096 2.86287,-1.33119 0.44722,-0.0403 0.88361,-0.0478 1.30638,-0.0155 z"
       sodipodi:nodetypes="ssccscccsccccccccccccsccccccccccccccccccccccccccccccssccssssccccsccscccccccccccsssccccssccccs" /></g></svg>
