<?xml version="1.0" encoding="UTF-8" standalone="no"?>
<svg
   width="100"
   height="100"
   viewBox="0 0 156.25 156.25008"
   version="1.1"
   id="svg1"
   sodipodi:docname="clap_hover.svg"
   inkscape:version="1.3.2 (091e20ef0f, 2023-11-25)"
   xmlns:inkscape="http://www.inkscape.org/namespaces/inkscape"
   xmlns:sodipodi="http://sodipodi.sourceforge.net/DTD/sodipodi-0.dtd"
   xmlns="http://www.w3.org/2000/svg"
   xmlns:svg="http://www.w3.org/2000/svg">
  <defs
     id="defs1">
    <rect
       x="-6.5939685"
       y="-27.102536"
       width="145.38636"
       height="153.39802"
       id="rect2" />
  </defs>
  <sodipodi:namedview
     id="namedview1"
     pagecolor="#ffffff"
     bordercolor="#000000"
     borderopacity="0.25"
     inkscape:showpageshadow="2"
     inkscape:pageopacity="0.0"
     inkscape:pagecheckerboard="0"
     inkscape:deskcolor="#d1d1d1"
     inkscape:document-units="in"
     inkscape:zoom="7.5422328"
     inkscape:cx="49.322264"
     inkscape:cy="53.16728"
     inkscape:window-width="1920"
     inkscape:window-height="1029"
     inkscape:window-x="0"
     inkscape:window-y="0"
     inkscape:window-maximized="1"
     inkscape:current-layer="svg1"
     inkscape:lockguides="false"
     showguides="true" />
  <path
     id="Выделение"
     style="fill:#a0ea41;fill-opacity:1;stroke:none"
     d="M 122.80277,54.687465 H 33.447274 24.496466 24.45069 c -4.888926,0 -8.825686,3.93676 -8.825686,8.825686 v 29.223644 c 0,4.8889 3.93676,8.825675 8.825686,8.825675 h 0.04578 l 8.950808,10e-5 h 89.355492 8.9508 0.0458 c 4.88895,0 8.82569,-3.936775 8.82569,-8.825675 V 63.513151 c 0,-4.888926 -3.93674,-8.825686 -8.82569,-8.825686 h -0.0458 z M 51.773085,66.268889 c 0.86466,0 1.69373,0.09155 2.487183,0.274658 0.793453,0.183105 1.536052,0.457764 2.227784,0.823975 v 5.004884 C 55.71494,71.660333 54.962168,71.14153 54.22975,70.816009 c -0.722245,-0.33569 -1.469934,-0.50354 -2.243042,-0.50354 -1.647945,0 -2.894086,0.656136 -3.738405,1.968384 -0.834143,1.302079 -1.251221,3.239957 -1.251221,5.813602 0,2.56347 0.417078,4.50134 1.251221,5.8136 0.844319,1.30208 2.09046,1.95312 3.738405,1.95312 0.773108,0 1.520797,-0.16276 2.243042,-0.48828 0.732418,-0.33569 1.48519,-0.85958 2.258302,-1.57165 v 5.00488 c -0.712077,0.36621 -1.459762,0.64087 -2.243043,0.82398 -0.783281,0.1831 -1.607264,0.27465 -2.471924,0.27465 -3.072091,0 -5.41688,-1.01216 -7.034304,-3.0365 -1.617424,-2.0243 -2.426148,-4.94897 -2.426148,-8.7738 0,-3.835034 0.808724,-6.764742 2.426148,-8.789066 1.617424,-2.024325 3.962213,-3.0365 7.034304,-3.0365 z m 10.467532,0.411987 h 4.501343 v 18.814089 h 9.628299 v 3.96729 H 62.240617 Z m 22.033697,0 h 5.508424 l 6.149293,22.781379 h -4.501344 l -1.403808,-5.6305 h -6.027224 l -1.373291,5.6305 H 78.12502 Z m 14.633182,0 h 6.179814 c 3.14327,0 5.40161,0.559497 6.7749,1.678467 1.38346,1.118974 2.0752,2.934784 2.0752,5.44739 0,2.512602 -0.69174,4.328412 -2.0752,5.447392 -1.37329,1.11897 -3.63163,1.67846 -6.7749,1.67846 h -1.67847 v 8.52967 h -4.501344 z m 4.501344,3.784181 v 6.683348 h 1.84631 c 1.47502,0 2.50753,-0.24922 3.09754,-0.747678 0.60018,-0.49845 0.90027,-1.363126 0.90027,-2.593994 0,-1.230872 -0.30009,-2.095545 -0.90027,-2.593995 -0.59001,-0.498453 -1.62252,-0.747681 -3.09754,-0.747681 z m -16.387944,0.335693 -2.120972,9.323125 h 4.257203 z"
     sodipodi:nodetypes="cccssssccccssssccsscccscscscccsscssscccccccccccccccccscscsccccccscscsccccc" />
  <text
     xml:space="preserve"
     transform="scale(1.5625004)"
     id="text2"
     style="font-style:normal;font-variant:normal;font-weight:bold;font-stretch:normal;font-size:66.6667px;font-family:Monospace;-inkscape-font-specification:'Monospace Bold';text-align:center;white-space:pre;shape-inside:url(#rect2);display:inline;fill:#b2a0a0;fill-opacity:1;stroke-width:0.672;stroke-linejoin:bevel;stroke-miterlimit:4.3" />
</svg>
