<?xml version="1.0" encoding="UTF-8" standalone="no"?>
<!-- Created with Inkscape (http://www.inkscape.org/) -->

<svg
   width="35"
   height="35"
   viewBox="0 0 9.2604165 9.260417"
   version="1.1"
   id="svg8"
   inkscape:version="1.3.2 (091e20ef0f, 2023-11-25)"
   sodipodi:docname="download_icon_button.svg"
   xmlns:inkscape="http://www.inkscape.org/namespaces/inkscape"
   xmlns:sodipodi="http://sodipodi.sourceforge.net/DTD/sodipodi-0.dtd"
   xmlns="http://www.w3.org/2000/svg"
   xmlns:svg="http://www.w3.org/2000/svg"
   xmlns:rdf="http://www.w3.org/1999/02/22-rdf-syntax-ns#"
   xmlns:cc="http://creativecommons.org/ns#"
   xmlns:dc="http://purl.org/dc/elements/1.1/">
  <defs
     id="defs2" />
  <sodipodi:namedview
     id="base"
     pagecolor="#ffffff"
     bordercolor="#666666"
     borderopacity="1.0"
     inkscape:pageopacity="0.51764706"
     inkscape:pageshadow="2"
     inkscape:zoom="6.5195331"
     inkscape:cx="50.770507"
     inkscape:cy="5.3684826"
     inkscape:document-units="mm"
     inkscape:current-layer="layer1"
     showgrid="false"
     showguides="true"
     inkscape:guide-bbox="true"
     fit-margin-top="0"
     fit-margin-left="0"
     fit-margin-right="0"
     fit-margin-bottom="0"
     inkscape:window-width="1920"
     inkscape:window-height="1029"
     inkscape:window-x="0"
     inkscape:window-y="0"
     inkscape:window-maximized="1"
     inkscape:pagecheckerboard="false"
     units="px"
     inkscape:showpageshadow="2"
     inkscape:deskcolor="#d1d1d1"
     inkscape:clip-to-page="false">
    <sodipodi:guide
       position="57.80958,9.2093408"
       orientation="1,0"
       id="guide867"
       inkscape:locked="false" />
    <sodipodi:guide
       position="18.744082,8.0068908"
       orientation="0,1"
       id="guide881"
       inkscape:locked="false" />
    <sodipodi:guide
       position="17.954012,1.3915208"
       orientation="0,1"
       id="guide883"
       inkscape:locked="false" />
    <sodipodi:guide
       position="10.799237,1.3926001"
       orientation="1,0"
       id="guide9996"
       inkscape:locked="false" />
  </sodipodi:namedview>
  <metadata
     id="metadata5">
    <rdf:RDF>
      <cc:Work
         rdf:about="">
        <dc:format>image/svg+xml</dc:format>
        <dc:type
           rdf:resource="http://purl.org/dc/dcmitype/StillImage" />
      </cc:Work>
    </rdf:RDF>
  </metadata>
  <g
     inkscape:label="Layer 1"
     inkscape:groupmode="layer"
     id="layer1"
     transform="translate(-14.033305,-169.36185)">
    <rect
       style="opacity:1;fill:#25272e;fill-opacity:0.501961;stroke:none;stroke-width:0.0841093;stroke-linecap:butt;stroke-linejoin:miter;stroke-miterlimit:4;stroke-dasharray:none;stroke-dashoffset:0;stroke-opacity:1;paint-order:normal"
       id="rect815-3"
       width="9.260417"
       height="9.260417"
       x="14.033305"
       y="169.36185" />
    <g
       aria-label=""
       style="font-style:normal;font-weight:normal;font-size:7.72109px;line-height:0;font-family:sans-serif;letter-spacing:0px;word-spacing:0px;fill:#000000;fill-opacity:1;stroke:none;stroke-width:0.193027"
       id="text825"
       transform="translate(-0.1)">
      <path
         d="m 20.610889,176.59292 q 0.08186,-0.0819 0.08186,-0.19389 0,-0.11203 -0.08186,-0.19389 -0.08187,-0.0819 -0.193889,-0.0819 -0.112025,0 -0.193889,0.0819 -0.08187,0.0819 -0.08187,0.19389 0,0.11202 0.08187,0.19389 0.08186,0.0819 0.193889,0.0819 0.112024,0 0.193889,-0.0819 z m 1.103013,0 q 0.08186,-0.0819 0.08186,-0.19389 0,-0.11203 -0.08186,-0.19389 -0.08187,-0.0819 -0.193889,-0.0819 -0.112025,0 -0.193889,0.0819 -0.08187,0.0819 -0.08187,0.19389 0,0.11202 0.08187,0.19389 0.08186,0.0819 0.193889,0.0819 0.112024,0 0.193889,-0.0819 z m 0.63337,-1.15903 v 1.37877 q 0,0.17234 -0.120642,0.29299 -0.120642,0.12064 -0.292987,0.12064 h -6.342325 q -0.172346,0 -0.292988,-0.12064 -0.120642,-0.12065 -0.120642,-0.29299 v -1.37877 q 0,-0.17234 0.120642,-0.29299 0.120642,-0.12064 0.292988,-0.12064 h 2.003519 l 0.581667,0.58598 q 0.249902,0.24128 0.585976,0.24128 0.336074,0 0.585976,-0.24128 l 0.585975,-0.58598 h 1.999212 q 0.172345,0 0.292987,0.12064 0.120642,0.12065 0.120642,0.29299 z m -1.400309,-2.45162 q 0.07325,0.17666 -0.06032,0.30161 l -1.930273,1.93027 q -0.07756,0.0819 -0.193889,0.0819 -0.116333,0 -0.193889,-0.0819 l -1.930273,-1.93027 q -0.133568,-0.12495 -0.06032,-0.30161 0.07325,-0.16803 0.25421,-0.16803 h 1.103013 v -1.93028 q 0,-0.11202 0.08186,-0.19389 0.08187,-0.0819 0.19389,-0.0819 h 1.103013 q 0.112024,0 0.193889,0.0819 0.08186,0.0819 0.08186,0.19389 v 1.93028 h 1.103013 q 0.180963,0 0.25421,0.16803 z"
         style="font-style:normal;font-variant:normal;font-weight:normal;font-stretch:normal;font-family:FontAwesome;-inkscape-font-specification:FontAwesome;fill:#25272e;fill-opacity:1;stroke-width:0.193027"
         id="path9989"
         inkscape:connector-curvature="0" />
    </g>
  </g>
</svg>
