<?xml version="1.0" encoding="UTF-8" standalone="no"?>
<svg
   width="100"
   height="100"
   viewBox="0 0 156.25 156.25008"
   version="1.1"
   id="svg1"
   sodipodi:docname="gst.svg"
   inkscape:version="1.3.2 (091e20ef0f, 2023-11-25)"
   xmlns:inkscape="http://www.inkscape.org/namespaces/inkscape"
   xmlns:sodipodi="http://sodipodi.sourceforge.net/DTD/sodipodi-0.dtd"
   xmlns="http://www.w3.org/2000/svg"
   xmlns:svg="http://www.w3.org/2000/svg">
  <defs
     id="defs1">
    <rect
       x="-6.5939685"
       y="-27.102536"
       width="145.38636"
       height="153.39802"
       id="rect2" />
  </defs>
  <sodipodi:namedview
     id="namedview1"
     pagecolor="#ffffff"
     bordercolor="#000000"
     borderopacity="0.25"
     inkscape:showpageshadow="2"
     inkscape:pageopacity="0.0"
     inkscape:pagecheckerboard="0"
     inkscape:deskcolor="#d1d1d1"
     inkscape:document-units="in"
     inkscape:zoom="8"
     inkscape:cx="51.875"
     inkscape:cy="37.125"
     inkscape:window-width="1920"
     inkscape:window-height="1029"
     inkscape:window-x="0"
     inkscape:window-y="0"
     inkscape:window-maximized="1"
     inkscape:current-layer="svg1"
     inkscape:lockguides="false"
     showguides="true" />
  <path
     id="Выделение"
     style="fill:#9da3ca;fill-opacity:1;stroke:none"
     d="M 24.45069 54.687514 C 19.561774 54.687514 15.625004 58.624284 15.625004 63.5132 L 15.625004 92.73684 C 15.625004 97.62573 19.561774 101.56253 24.45069 101.56253 L 24.496466 101.56253 L 33.447274 101.56253 L 122.80277 101.56253 L 131.75357 101.56253 L 131.79935 101.56253 C 136.6883 101.56253 140.62504 97.62573 140.62504 92.73684 L 140.62504 63.5132 C 140.62504 58.624284 136.6883 54.687514 131.79935 54.687514 L 131.75357 54.687514 L 122.80277 54.687514 L 33.447274 54.687514 L 24.496466 54.687514 L 24.45069 54.687514 z M 60.63234 66.268938 C 61.548016 66.268938 62.447993 66.401138 63.333146 66.665666 C 64.218299 66.920021 65.047092 67.291198 65.820329 67.779558 L 65.820329 72.769184 C 65.18953 71.95525 64.46243 71.345096 63.638322 70.938129 C 62.824388 70.520987 61.929495 70.312518 60.952774 70.312518 C 59.243513 70.312518 57.967274 70.958264 57.122817 72.250385 C 56.278361 73.532331 55.856338 75.482791 55.856338 78.097554 C 55.856338 80.630924 56.263107 82.557994 57.077041 83.880637 C 57.890975 85.20328 59.075691 85.86428 60.63234 85.86428 C 61.100352 85.86428 61.507121 85.823603 61.853043 85.742209 C 62.198965 85.650642 62.478619 85.518442 62.692277 85.345481 L 62.692277 80.996725 L 59.610001 80.996725 L 59.610001 77.212544 L 66.629045 77.212544 L 66.629045 87.649559 C 65.76424 88.392273 64.808332 88.956666 63.760392 89.343285 C 62.722626 89.719729 61.609095 89.90786 60.418717 89.90786 C 57.468206 89.90786 55.190297 88.885852 53.582777 86.840843 C 51.975258 84.785659 51.168836 81.872174 51.168836 78.097554 C 51.168836 74.26189 51.980342 71.330099 53.598036 69.305438 C 55.225904 67.280777 57.569913 66.268938 60.63234 66.268938 z M 77.603169 66.268938 C 78.651109 66.268938 79.69854 66.390969 80.746481 66.635149 C 81.794421 66.869155 82.831683 67.219994 83.859274 67.688006 L 83.859274 72.082538 C 82.892728 71.400868 81.911397 70.882237 80.914327 70.526141 C 79.917258 70.170045 78.930842 69.992083 77.954122 69.992083 C 76.865485 69.992083 76.031608 70.210722 75.451679 70.648211 C 74.871751 71.085701 74.581928 71.711109 74.581928 72.525043 C 74.581928 73.155842 74.790398 73.679557 75.207539 74.096699 C 75.634854 74.503666 76.519578 74.959248 77.862569 75.457783 L 79.800435 76.190205 C 81.631787 76.861701 82.979211 77.751509 83.844016 78.860494 C 84.708821 79.969479 85.141013 81.367749 85.141013 83.056662 C 85.141013 85.356026 84.459674 87.074626 83.096335 88.214134 C 81.743169 89.343467 79.694069 89.90786 76.947041 89.90786 C 75.817708 89.90786 74.683838 89.770575 73.54433 89.495873 C 72.414997 89.231344 71.318752 88.834744 70.260638 88.305687 L 70.260638 83.651755 C 71.461191 84.506386 72.623535 85.141963 73.742695 85.559104 C 74.872028 85.976245 75.985559 86.184714 77.08437 86.184714 C 78.193356 86.184714 79.052656 85.935568 79.663106 85.437034 C 80.273557 84.928325 80.578634 84.221563 80.578634 83.316061 C 80.578634 82.634392 80.375249 82.039491 79.968282 81.530783 C 79.561315 81.0119 78.9715 80.60513 78.198262 80.310079 L 75.985737 79.470846 C 73.716896 78.606041 72.17829 77.700979 71.37453 76.75478 C 70.57077 75.798408 70.169085 74.514033 70.169085 72.906513 C 70.169085 70.841155 70.830086 69.219162 72.152728 68.038958 C 73.475371 66.858753 75.293631 66.268938 77.603169 66.268938 z M 88.391136 66.680925 L 104.4617 66.680925 L 104.4617 70.617694 L 98.678614 70.617694 L 98.678614 89.465355 L 94.17727 89.465355 L 94.17727 70.617694 L 88.391136 70.617694 L 88.391136 66.680925 z " />
  <text
     xml:space="preserve"
     transform="scale(1.5625004)"
     id="text2"
     style="font-style:normal;font-variant:normal;font-weight:bold;font-stretch:normal;font-size:66.6667px;font-family:Monospace;-inkscape-font-specification:'Monospace Bold';text-align:center;white-space:pre;shape-inside:url(#rect2);display:inline;fill:#b2a0a0;fill-opacity:1;stroke-width:0.672;stroke-linejoin:bevel;stroke-miterlimit:4.3" />
</svg>
