<?xml version="1.0" encoding="UTF-8" standalone="no"?>
<svg
   width="100"
   height="100"
   viewBox="0 0 156.25 156.25008"
   version="1.1"
   id="svg1"
   sodipodi:docname="jack_hover.svg"
   inkscape:version="1.3.2 (091e20ef0f, 2023-11-25)"
   xmlns:inkscape="http://www.inkscape.org/namespaces/inkscape"
   xmlns:sodipodi="http://sodipodi.sourceforge.net/DTD/sodipodi-0.dtd"
   xmlns="http://www.w3.org/2000/svg"
   xmlns:svg="http://www.w3.org/2000/svg">
  <defs
     id="defs1">
    <rect
       x="-6.5939685"
       y="-27.102536"
       width="145.38636"
       height="153.39802"
       id="rect2" />
  </defs>
  <sodipodi:namedview
     id="namedview1"
     pagecolor="#ffffff"
     bordercolor="#000000"
     borderopacity="0.25"
     inkscape:showpageshadow="2"
     inkscape:pageopacity="0.0"
     inkscape:pagecheckerboard="0"
     inkscape:deskcolor="#d1d1d1"
     inkscape:document-units="in"
     inkscape:zoom="5.333164"
     inkscape:cx="66.002096"
     inkscape:cy="45.376441"
     inkscape:window-width="1920"
     inkscape:window-height="1029"
     inkscape:window-x="0"
     inkscape:window-y="0"
     inkscape:window-maximized="1"
     inkscape:current-layer="svg1"
     inkscape:lockguides="false" />
  <path
     id="Выделение"
     style="fill:#a0ea41;fill-opacity:1;stroke:none"
     d="m 24.496466,54.687516 h -0.04578 c -4.888931,0 -8.825686,3.936755 -8.825686,8.825686 v 29.223643 c 0,4.88891 3.936755,8.825675 8.825686,8.825675 h 0.04578 8.950808 89.355496 8.9508 0.0458 c 4.88895,0 8.82569,-3.936765 8.82569,-8.825675 V 63.513201 c 0,-4.888931 -3.93674,-8.825686 -8.82569,-8.825686 h -0.0458 -8.9508 -89.355496 z m 64.904802,11.581423 c 0.864662,0 1.693729,0.09155 2.487183,0.274658 0.793454,0.183105 1.536055,0.457764 2.227784,0.823975 v 5.004884 c -0.773109,-0.712074 -1.525882,-1.230876 -2.258301,-1.556397 -0.722249,-0.335691 -1.469934,-0.50354 -2.243043,-0.50354 -1.647943,0 -2.894087,0.656134 -3.738404,1.968384 -0.834144,1.30208 -1.251221,3.239956 -1.251221,5.813602 0,2.56347 0.417077,4.50134 1.251221,5.8136 0.844317,1.30208 2.090461,1.95312 3.738404,1.95312 0.773109,0 1.520794,-0.16276 2.243043,-0.48828 0.732419,-0.33569 1.485192,-0.85958 2.258301,-1.57165 v 5.00488 c -0.712074,0.36621 -1.459759,0.64087 -2.243043,0.82398 -0.783281,0.1831 -1.607262,0.27465 -2.471924,0.27465 -3.072094,0 -5.416876,-1.01216 -7.034304,-3.0365 -1.617426,-2.02431 -2.426148,-4.94896 -2.426148,-8.7738 0,-3.835036 0.808722,-6.76474 2.426148,-8.789066 1.617428,-2.024327 3.96221,-3.0365 7.034304,-3.0365 z M 45.364391,66.680926 H 55.37416 v 15.472419 c 0,2.77707 -0.584924,4.76583 -1.754762,5.96619 -1.159662,1.19016 -3.077199,1.78527 -5.752564,1.78527 -0.966387,0 -1.978561,-0.13224 -3.0365,-0.39672 -1.047767,-0.26449 -2.105717,-0.65613 -3.173829,-1.17493 v -5.21851 c 0.874834,0.89518 1.805627,1.57674 2.792359,2.04468 0.996904,0.46794 1.998905,0.7019 3.005982,0.7019 1.18001,0 2.044679,-0.295 2.593995,-0.88501 0.549314,-0.59 0.823975,-1.53096 0.823975,-2.82287 V 70.648212 h -5.508425 z m 20.095831,0 h 5.508424 l 6.149294,22.781379 h -4.501344 l -1.403809,-5.6305 h -6.027223 l -1.373292,5.6305 h -4.501344 z m 32.760628,0 h 4.50134 v 9.002688 l 7.04957,-9.002688 h 5.09643 l -7.18689,8.972171 7.44629,13.809208 h -5.00488 l -5.40161,-10.25391 -1.99891,2.53296 v 7.72095 H 98.22085 Z M 68.206805,70.8008 66.085832,80.123925 h 4.257204 z"
     sodipodi:nodetypes="cssssccccssssccccsscccscscscccssssssccscsccccsssccccccccccccccccccccccccccccc" />
  <text
     xml:space="preserve"
     transform="scale(1.5625004)"
     id="text2"
     style="font-style:normal;font-variant:normal;font-weight:bold;font-stretch:normal;font-size:66.6667px;font-family:Monospace;-inkscape-font-specification:'Monospace Bold';text-align:center;white-space:pre;shape-inside:url(#rect2);display:inline;fill:#b2a0a0;fill-opacity:1;stroke-width:0.672;stroke-linejoin:bevel;stroke-miterlimit:4.3" />
</svg>
