<?xml version="1.0" encoding="UTF-8" standalone="no"?>
<svg
   width="100"
   height="100"
   viewBox="0 0 156.25008 156.25"
   version="1.1"
   id="svg1"
   sodipodi:docname="lin.svg"
   inkscape:version="1.3.2 (091e20ef0f, 2023-11-25)"
   xmlns:inkscape="http://www.inkscape.org/namespaces/inkscape"
   xmlns:sodipodi="http://sodipodi.sourceforge.net/DTD/sodipodi-0.dtd"
   xmlns="http://www.w3.org/2000/svg"
   xmlns:svg="http://www.w3.org/2000/svg">
  <defs
     id="defs1" />
  <sodipodi:namedview
     id="namedview1"
     pagecolor="#ffffff"
     bordercolor="#000000"
     borderopacity="0.25"
     inkscape:showpageshadow="2"
     inkscape:pageopacity="0.0"
     inkscape:pagecheckerboard="0"
     inkscape:deskcolor="#d1d1d1"
     inkscape:document-units="px"
     inkscape:zoom="1.5896748"
     inkscape:cx="294.39983"
     inkscape:cy="245.96225"
     inkscape:window-width="1920"
     inkscape:window-height="1029"
     inkscape:window-x="0"
     inkscape:window-y="0"
     inkscape:window-maximized="1"
     inkscape:current-layer="svg1" />
  <path
     id="Выделение"
     fill="none"
     stroke="black"
     stroke-width="0.16319"
     d="m 91.755469,133.28853 c 0,0 -5.385248,-0.19093 -5.385248,-0.19093 -3.242576,-0.32475 -4.646,-0.829 -8.159472,-0.7882 -2.193264,0.0261 -5.305288,0.6756 -7.506712,1.07378 0,0 -1.958272,0.34759 -1.958272,0.34759 0,0 -1.78856,0.22031 -1.78856,0.22031 -0.791464,0.18604 -0.943232,0.83227 -1.383848,1.45892 -0.558104,0.79309 -0.939968,1.19617 -1.72328,1.76897 -2.478848,1.8114 -4.882624,2.01865 -7.833088,1.98438 -1.008512,-0.013 -2.438055,-0.27089 -3.426983,-0.51078 -5.168208,-1.25493 -6.041272,-2.73342 -10.117744,-3.75336 0,0 -3.1006,-0.63154 -3.1006,-0.63154 -2.61592,-0.36228 -6.413344,-0.59238 -8.812224,-1.361 -1.91748,-0.61523 -3.412296,-1.627 -3.910024,-3.69787 -0.155024,-0.64297 -0.182768,-1.13907 -0.16808,-1.79508 0.0604,-2.60124 1.176592,-4.48935 1.289192,-6.03802 0,0 -0.638064,-7.01714 -0.638064,-7.01714 0.03264,-2.68773 1.494808,-4.75533 3.916544,-5.89277 1.491552,-0.70008 3.428608,-1.06888 4.732496,-2.03987 1.241864,-0.92201 2.32708,-2.74973 3.338856,-3.98018 0.37044,-0.44878 1.11784,-1.10316 1.236976,-1.6319 0,0 0,-1.468701 0,-1.468701 0,0 0,-3.426976 0,-3.426976 0.0212,-2.374409 0.977504,-5.887878 1.734696,-8.159475 2.06272,-6.186511 5.80628,-12.547634 9.662448,-17.787647 2.516384,-3.418818 5.381991,-6.397026 7.217871,-10.280934 1.550296,-3.278475 2.31892,-6.517786 2.606136,-10.117745 0,0 0.150128,-2.121462 0.150128,-2.121462 0,0 -0.163184,-2.93741 -0.163184,-2.93741 0,0 -0.326384,-5.058872 -0.326384,-5.058872 0,0 0,-4.242925 0,-4.242925 0,0 0.148504,-1.958274 0.148504,-1.958274 0.31496,-4.309832 1.4018,-8.738793 4.304936,-12.076017 0.985664,-1.132535 1.814672,-1.79182 3.05328,-2.611031 1.445856,-0.954659 3.069592,-1.582938 4.732488,-2.051291 2.694264,-0.760463 5.540288,-0.918757 8.322664,-0.886119 1.173336,0.01469 3.09244,0.306796 4.242928,0.592378 5.39504,1.339785 8.813855,4.53177 10.860252,9.688557 2.805224,7.069366 2.346664,14.902458 2.358088,22.356951 0.01304,8.211692 6.315435,14.321505 10.953275,20.398679 7.43002,9.740776 13.51535,21.665028 9.44541,34.106584 4.42896,1.29247 4.05689,6.34971 5.45868,9.79137 1.00525,2.46416 4.42733,4.80103 4.64438,8.32265 0.11423,1.87179 -0.97261,3.35518 -2.43316,4.39959 0,0 -7.50672,3.99161 -7.50672,3.99161 -1.43606,0.81269 -2.84112,1.627 -4.07973,2.73343 0,0 -4.24293,4.30657 -4.24293,4.30657 -3.74683,3.16098 -8.98848,5.50438 -13.871101,3.65218 -1.31368,-0.49936 -2.263437,-1.12764 -3.263789,-2.11331 -1.215759,-1.2027 -2.341767,-2.84928 -2.611031,-4.56767 z M 84.738325,45.655816 c 1.230448,0.221938 2.473952,1.07705 3.066328,0.796365 0.35576,-0.169717 0.682136,-0.778414 0.855112,-1.122743 0.576064,-1.14559 0.957928,-2.469056 0.974248,-3.753357 0.0392,-3.456352 -1.05584,-7.286408 -4.732496,-8.471164 -0.594008,-0.190931 -1.018304,-0.182772 -1.631896,-0.177876 -3.79252,0.03917 -6.021688,4.092791 -6.038008,7.506713 -0.0016,0.398183 -0.06688,1.37732 0.16156,1.680852 0.221936,0.295372 0.802888,0.407973 1.143952,0.509151 0.8698,0.257839 1.148856,0.404709 1.95828,0.747407 0,-1.770605 -0.11424,-3.294794 1.176592,-4.725965 2.178576,-2.413572 4.202128,0.669076 4.35716,2.930882 0.141976,2.069241 -0.594008,2.52454 -1.290832,4.079735 z M 70.214469,43.371164 c 0.51568,-0.189299 2.305864,-0.89591 2.485376,-1.349576 0.243152,-0.471618 0.03104,-1.551932 0,-2.077401 -0.279056,-2.206322 -1.578048,-5.218799 -3.95408,-5.763852 -0.758832,-0.174612 -1.432808,-0.09139 -2.121464,0.282319 -1.54704,0.842057 -2.563704,2.960256 -2.759536,4.665585 0,0 0,2.447842 0,2.447842 0.0016,1.316938 0.450408,2.777484 1.108056,3.916546 0.228464,0.396551 0.654392,1.093369 1.163544,1.116215 0.373704,0.01795 1.124376,-0.572794 1.467072,-0.789836 -0.646232,-1.442595 -1.542144,-2.165524 -1.434432,-4.079736 0.08322,-1.48992 1.289192,-4.262507 2.979832,-2.413571 1.078688,1.179859 1.065632,2.565337 1.065632,4.045465 z m 4.079736,-0.442243 c -3.09244,0.471617 -3.782736,1.400165 -6.038008,3.330697 0,0 -1.795088,1.375686 -1.795088,1.375686 -1.44096,1.080314 -2.872136,1.695538 -2.767688,3.732142 0.114232,2.194898 2.312392,3.440034 3.910016,4.528506 2.599608,1.770606 3.617912,3.914916 7.180336,3.957344 3.926336,0.0457 5.003384,-1.50787 8.159472,-3.159347 1.496448,-0.783309 2.495168,-0.835529 4.24292,-2.069242 1.235344,-0.873063 2.372776,-2.168787 2.44132,-3.746829 0.07672,-1.752654 -0.784944,-2.609399 -2.278128,-3.366598 0,0 -4.89568,-1.907684 -4.89568,-1.907684 0,0 -2.121464,-1.202706 -2.121464,-1.202706 -1.857096,-1.006879 -3.906752,-1.67106 -6.038008,-1.471969 z m -2.937408,3.053274 c 0.328008,-1.036253 1.45728,-1.261454 2.284648,-0.652757 -0.850216,0.453666 -1.298984,0.835529 -2.284648,0.652757 z m 5.058872,-0.815947 c 0.969344,-0.274158 1.933792,-0.293741 2.284648,0.815947 -0.922016,0.171349 -1.623736,-0.177877 -2.284648,-0.815947 z m -11.260072,5.222061 c 0.846952,0.262736 1.643312,1.533981 2.44784,2.212849 1.910944,1.612312 4.567672,3.231151 7.180336,2.981471 2.816648,-0.26763 6.034744,-1.910948 8.322656,-3.516732 0,0 2.09372,-1.589465 2.09372,-1.589465 0.656024,-0.590746 0.696824,-0.9824 1.65964,-0.90407 -0.794736,1.744495 -3.2132,3.257262 -4.89568,4.118902 -4.177648,2.139413 -7.307624,3.650547 -11.912832,1.488287 -1.251664,-0.587482 -4.135216,-2.624086 -4.729232,-3.812105 -0.16808,-0.33617 -0.153392,-0.62012 -0.166448,-0.979137 z m 24.6416,3.1006 c 0,0 -0.326376,0 -0.326376,0 -1.046048,1.460545 -2.589816,2.516381 -4.242928,3.190353 0,0 -1.958272,0.786573 -1.958272,0.786573 0,0 -2.611032,1.569882 -2.611032,1.569882 -2.366248,1.385479 -4.938112,2.247119 -7.669904,1.46381 -3.22136,-0.923652 -3.820264,-2.890085 -7.669904,-5.052345 -0.0098,3.010845 -1.112952,6.927391 -2.067608,9.791365 -1.318568,3.958976 -2.932512,7.793927 -4.673744,11.58645 0,0 -3.506944,7.833092 -3.506944,7.833092 -0.778407,1.98112 -1.785287,5.571287 -2.110039,7.669903 0,0 -0.696816,5.548443 -0.696816,5.548443 -0.742512,-1.524192 -1.339784,-2.08556 -1.886472,-3.916548 -1.2794,-4.275563 -0.388384,-9.021112 1.302256,-13.055154 0,0 2.501696,-5.058873 2.501696,-5.058873 0.499359,-0.998719 1.065623,-1.97296 1.183119,-3.100599 -1.088471,0.951394 -2.912927,4.603574 -3.630967,6.038009 -3.120176,6.243627 -5.980888,14.463479 -1.30388,20.725053 1.765712,2.366247 3.906752,3.454727 6.240359,5.062147 2.542496,1.75264 4.843464,3.60974 6.780528,6.03474 1.566616,1.96154 3.981816,5.82748 1.209232,7.86572 -0.344328,0.25295 -0.73272,0.42593 -1.1358,0.56137 -0.719664,0.23989 -1.059096,0.22031 -1.795088,0.22195 0.390024,0.91385 1.099904,1.658 1.69228,2.44784 0,0 1.927264,2.52453 1.927264,2.52453 0.939976,0.82738 3.629336,2.04966 4.866312,2.47885 5.342824,1.8473 11.09688,1.4377 16.318944,-0.62991 1.584568,-0.62828 3.098968,-1.39364 4.569304,-2.25364 0.535256,-0.31333 1.499712,-0.8698 1.875048,-1.33327 0.473247,-0.58258 0.977503,-2.73341 1.201071,-3.56079 0.73272,-2.70731 0.669072,-4.47302 0.855112,-7.18033 0,0 0.545048,-4.5693 0.545048,-4.5693 0.380229,-2.25854 1.232077,-4.86304 2.881925,-6.51289 1.109688,-1.109689 2.134519,-1.344681 2.500069,-1.749393 0.46672,-0.520576 0.20561,-1.613944 1.1619,-2.831336 1.38874,-1.770603 3.50042,-1.659635 5.46195,-1.1668 1.92401,0.48304 4.98544,1.853832 6.52758,3.06796 0.75883,0.59564 1.60089,1.405056 1.9387,2.338499 0.23336,0.74741 0.0799,1.21087 0,1.95828 0.28721,-0.008 0.65765,0.0163 0.87796,-0.16156 0.42265,-0.3427 0.31495,-1.95664 0.1844,-2.449475 -0.10281,-0.390024 -0.30679,-0.801256 -0.52221,-1.142328 -1.18475,-1.879936 -4.89732,-4.151535 -7.04816,-4.73249 0.39329,-2.090456 0.49936,-2.398885 0.48957,-4.569304 -0.0228,-4.771659 -2.28465,-9.814212 -4.89568,-13.707911 -0.82573,-1.230449 -1.75102,-2.333609 -2.74648,-3.426979 -0.62012,-0.678868 -0.99382,-1.316938 -1.98601,-1.305515 0,0 4.11074,5.385251 4.11074,5.385251 1.8114,2.955361 3.55426,7.268458 3.55916,10.770502 0,0 0,1.142327 0,1.142327 -0.003,2.261805 -0.53036,2.883556 -0.81594,4.732493 0,0 -2.77423,-0.163189 -2.77423,-0.163189 -0.10444,-1.284301 -0.70661,-3.446561 -1.07378,-4.732494 -1.44423,-5.063768 -3.08265,-7.981595 -5.381987,-12.565586 -2.1998,-4.383268 -3.973661,-8.957468 -5.68878,-13.544722 -0.639704,-1.708594 -2.398888,-6.721773 -2.542496,-8.322661 z m 11.260073,47.324931 c -1.561725,0.51895 -2.464165,1.95827 -3.030429,3.42698 -1.070528,2.77585 -1.189656,5.72305 -1.390376,8.64904 -0.303536,4.44527 -0.642968,5.55986 -1.848933,9.79136 -0.65276,2.29118 -1.860359,6.32849 -1.711855,8.64904 0.28884,4.54646 4.050356,7.9669 8.634353,7.65522 3.70929,-0.25132 6.98613,-2.21285 9.62654,-4.7325 0,0 3.5918,-3.71093 3.5918,-3.71093 1.15864,-1.02156 3.33886,-2.36625 4.7325,-3.08591 0,0 5.87482,-2.94883 5.87482,-2.94883 1.03462,-0.63481 2.01376,-1.27451 2.42988,-2.47885 0.90081,-2.60287 -2.456,-5.5925 -3.71908,-7.50671 -2.19,-3.3209 -0.9514,-9.19899 -5.72795,-10.45717 -0.75393,-0.19747 -1.8163,-0.16483 -2.61103,-0.15014 -1.34142,0.0261 -2.21285,1.2843 -3.2638,1.99907 -1.81792,1.23861 -4.77655,2.58982 -7.01714,1.95175 -0.95466,-0.2709 -1.60089,-0.80127 -2.27812,-1.50298 -0.65113,-0.67561 -1.04605,-1.25329 -1.4018,-2.12146 -0.50915,-1.24514 -0.65439,-2.13452 -0.88938,-3.42698 z m -57.116304,0.21215 c -3.054904,0.59727 -4.4208,4.13196 -6.527576,6.14571 -2.31076,2.20959 -5.324872,2.02192 -7.173808,3.77621 -2.74484,2.6045 -0.860008,6.4215 -0.822472,9.61185 0.02448,2.28139 -0.82084,3.68808 -1.205968,5.87482 -0.203992,1.16354 -0.164824,2.62734 0.616856,3.58364 1.533976,1.87341 5.37056,1.89789 7.606256,2.19653 2.793808,0.3737 5.662672,0.63154 8.322664,1.63189 0,0 4.242928,1.91258 4.242928,1.91258 1.959904,0.86654 5.037656,1.74613 7.180327,1.77224 2.315664,0.0261 4.329416,-0.11913 6.364392,-1.38222 2.68936,-1.6678 3.64728,-5.34119 2.68936,-8.24596 -1.101528,-3.34538 -4.80756,-7.44959 -6.9894,-10.28093 -2.095352,-2.72036 -3.645656,-5.80138 -5.277551,-8.81223 -1.946848,-3.5918 -4.13032,-8.27207 -9.026008,-7.78413 z"
     style="fill:#25272e;fill-opacity:1;stroke:none" />
</svg>
