<?xml version="1.0" encoding="UTF-8" standalone="no"?>
<svg
   width="70.580841"
   height="80"
   viewBox="0 0 110.28263 125"
   version="1.1"
   id="svg1"
   sodipodi:docname="mac_bg.svg"
   inkscape:version="1.3.2 (091e20ef0f, 2023-11-25)"
   xmlns:inkscape="http://www.inkscape.org/namespaces/inkscape"
   xmlns:sodipodi="http://sodipodi.sourceforge.net/DTD/sodipodi-0.dtd"
   xmlns="http://www.w3.org/2000/svg"
   xmlns:svg="http://www.w3.org/2000/svg">
  <defs
     id="defs1" />
  <sodipodi:namedview
     id="namedview1"
     pagecolor="#ffffff"
     bordercolor="#000000"
     borderopacity="0.25"
     inkscape:showpageshadow="2"
     inkscape:pageopacity="0.0"
     inkscape:pagecheckerboard="0"
     inkscape:deskcolor="#d1d1d1"
     inkscape:document-units="in"
     inkscape:zoom="1.5896748"
     inkscape:cx="279.93147"
     inkscape:cy="235.8973"
     inkscape:window-width="1920"
     inkscape:window-height="1029"
     inkscape:window-x="0"
     inkscape:window-y="0"
     inkscape:window-maximized="1"
     inkscape:current-layer="svg1" />
  <path
     id="Выделение #1"
     fill="none"
     stroke="#000000"
     stroke-width="0.167095"
     d="m 82.043597,0 c 1.72275,9.617968 -5.116438,19.535036 -13.200478,24.120113 -3.31515,1.879815 -6.24934,2.957575 -10.02567,3.49562 -0.64332,0.0919 -3.10629,0.481232 -3.55244,0.12365 -0.25732,-0.207198 -0.30912,-0.696785 -0.35925,-1.004239 -0.14203,-0.873905 -0.10861,-2.098709 -0.0986,-3.007704 0.0384,-3.199862 1.5473,-6.819132 3.1748,-9.524395 C 61.679769,8.055633 67.959179,3.749604 74.691429,1.503852 76.932179,0.756939 79.675867,0.0518 82.043597,0 Z M 110.2826,91.567867 c -3.2383,7.97208 -8.51347,16.290063 -13.798683,23.059063 -3.35192,4.296 -7.95203,8.85267 -13.43775,10.10923 -1.38689,0.31748 -2.76542,0.26735 -4.17737,0.25064 -3.569138,-0.0418 -7.686348,-2.34768 -11.028238,-3.6059 -3.18483,-1.1964 -6.64202,-1.61247 -10.02568,-1.57404 -3.28843,0.0384 -6.84921,0.95913 -9.85859,2.24409 -2.82891,1.20642 -6.04715,2.89909 -9.1902,2.93585 0,0 -1.83804,0 -1.83804,0 -2.45964,-0.003 -4.72043,-0.97416 -6.85088,-2.12043 -3.85488,-2.07699 -6.78405,-4.66194 -9.85859,-7.73816 C 11.923999,106.83029 4.6620693,93.947297 1.7763393,82.544757 0.83058933,78.813534 0.41618933,76.531021 0.15217933,72.686173 c 0,0 -0.15204999558,-2.005136 -0.15204999558,-2.005136 C -0.01327067,62.314608 1.0110493,55.234808 4.7222193,47.621975 c 3.40873,-6.992911 9.2286397,-12.78107 16.1647397,-16.249954 3.45719,-1.727759 7.97376,-3.126341 11.86372,-3.133025 0,0 1.67095,0 1.67095,0 5.28353,0.06182 10.97979,2.815545 15.87399,4.62518 2.45796,0.908995 5.89008,1.986755 8.52183,1.884827 4.46309,-0.173778 8.40653,-2.645108 12.365,-4.453072 3.35693,-1.533929 7.662958,-2.599993 11.362438,-2.558219 2.02852,0.02339 4.73379,0.629947 6.68378,1.216449 5.26515,1.580715 10.5938,4.578393 14.871433,8.007176 2.04189,1.637527 5.03289,4.628521 6.1825,6.984556 -4.91259,1.435343 -9.31887,3.841506 -12.622333,7.853449 -8.60705,10.456783 -6.30783,26.573062 3.766313,35.206845 2.64678,2.26914 5.54587,3.5942 8.85602,4.56168 z"
     style="fill:#222329;fill-opacity:1;stroke:none;stroke-opacity:1" />
</svg>
