<?xml version="1.0" encoding="UTF-8" standalone="no"?>
<svg
   width="100"
   height="100"
   viewBox="0 0 156.25 156.25008"
   version="1.1"
   id="svg1"
   sodipodi:docname="rtas.svg"
   inkscape:version="1.3.2 (091e20ef0f, 2023-11-25)"
   xmlns:inkscape="http://www.inkscape.org/namespaces/inkscape"
   xmlns:sodipodi="http://sodipodi.sourceforge.net/DTD/sodipodi-0.dtd"
   xmlns="http://www.w3.org/2000/svg"
   xmlns:svg="http://www.w3.org/2000/svg">
  <defs
     id="defs1">
    <rect
       x="-6.5939685"
       y="-27.102536"
       width="145.38636"
       height="153.39802"
       id="rect2" />
  </defs>
  <sodipodi:namedview
     id="namedview1"
     pagecolor="#ffffff"
     bordercolor="#000000"
     borderopacity="0.25"
     inkscape:showpageshadow="2"
     inkscape:pageopacity="0.0"
     inkscape:pagecheckerboard="0"
     inkscape:deskcolor="#d1d1d1"
     inkscape:document-units="in"
     inkscape:zoom="8"
     inkscape:cx="51.875"
     inkscape:cy="37.125"
     inkscape:window-width="1920"
     inkscape:window-height="1029"
     inkscape:window-x="0"
     inkscape:window-y="0"
     inkscape:window-maximized="1"
     inkscape:current-layer="svg1"
     inkscape:lockguides="false"
     showguides="true" />
  <path
     id="Выделение"
     style="fill:#9da3ca;fill-opacity:1;stroke:none"
     d="M 24.45069 54.687514 C 19.561774 54.687514 15.625004 58.624284 15.625004 63.5132 L 15.625004 92.73684 C 15.625004 97.62573 19.561774 101.56253 24.45069 101.56253 L 24.496466 101.56253 L 33.447274 101.56253 L 122.80277 101.56253 L 131.75357 101.56253 L 131.79935 101.56253 C 136.6883 101.56253 140.62504 97.62573 140.62504 92.73684 L 140.62504 63.5132 C 140.62504 58.624284 136.6883 54.687514 131.79935 54.687514 L 131.75357 54.687514 L 122.80277 54.687514 L 33.447274 54.687514 L 24.496466 54.687514 L 24.45069 54.687514 z M 105.82888 66.268938 C 106.87682 66.268938 107.92426 66.390969 108.9722 66.635149 C 110.02014 66.869155 111.0574 67.219994 112.08499 67.688006 L 112.08499 72.082538 C 111.11844 71.400868 110.13711 70.882237 109.14004 70.526141 C 108.14297 70.170045 107.15656 69.992083 106.17984 69.992083 C 105.0912 69.992083 104.25732 70.210722 103.67739 70.648211 C 103.09747 71.085701 102.80764 71.711109 102.80764 72.525043 C 102.80764 73.155842 103.01611 73.679557 103.43325 74.096699 C 103.86057 74.503666 104.74529 74.959248 106.08828 75.457783 L 108.02615 76.190205 C 109.8575 76.861701 111.20493 77.751509 112.06973 78.860494 C 112.93454 79.969479 113.36673 81.367749 113.36673 83.056662 C 113.36673 85.356026 112.68539 87.074626 111.32205 88.214134 C 109.96888 89.343467 107.91978 89.90786 105.17276 89.90786 C 104.04342 89.90786 102.90955 89.770575 101.77005 89.495873 C 100.64071 89.231344 99.544468 88.834744 98.486353 88.305687 L 98.486353 83.651755 C 99.686906 84.506386 100.84925 85.141963 101.96841 85.559104 C 103.09774 85.976245 104.21127 86.184714 105.31009 86.184714 C 106.41907 86.184714 107.27837 85.935568 107.88882 85.437034 C 108.49927 84.928325 108.80435 84.221563 108.80435 83.316061 C 108.80435 82.634392 108.60096 82.039491 108.194 81.530783 C 107.78703 81.0119 107.19721 80.60513 106.42398 80.310079 L 104.21145 79.470846 C 101.94261 78.606041 100.40401 77.700979 99.600245 76.75478 C 98.796485 75.798408 98.394801 74.514033 98.394801 72.906513 C 98.394801 70.841155 99.058853 69.219162 100.3815 68.038958 C 101.70414 66.858753 103.51935 66.268938 105.82888 66.268938 z M 42.004405 66.680925 L 48.507703 66.680925 C 51.437866 66.680925 53.537812 67.199556 54.809584 68.237322 C 56.091531 69.275088 56.732192 70.963181 56.732192 73.303241 C 56.732192 74.870065 56.350846 76.118847 55.587783 77.044697 C 54.82472 77.970547 53.726442 78.524771 52.291884 78.707906 C 52.739547 78.799473 53.125978 79.013027 53.451552 79.348775 C 53.7873 79.674349 54.194069 80.315011 54.672255 81.271383 L 58.792129 89.465355 L 53.84828 89.465355 L 51.101698 83.71279 C 51.020304 83.550003 50.913527 83.32628 50.781263 83.041403 C 49.977503 81.321967 49.031764 80.462667 47.943128 80.462667 L 46.508801 80.462667 L 46.508801 89.465355 L 42.004405 89.465355 L 42.004405 66.680925 z M 60.165421 66.680925 L 76.235981 66.680925 L 76.235981 70.617694 L 70.452899 70.617694 L 70.452899 89.465355 L 65.951555 89.465355 L 65.951555 70.617694 L 60.165421 70.617694 L 60.165421 66.680925 z M 84.265158 66.680925 L 89.773583 66.680925 L 95.922876 89.465355 L 91.421532 89.465355 L 90.017723 83.83486 L 83.9905 83.83486 L 82.617209 89.465355 L 78.112813 89.465355 L 84.265158 66.680925 z M 46.508801 70.465106 L 46.508801 76.678486 L 48.629773 76.678486 C 49.860849 76.678486 50.740487 76.439509 51.269544 75.961323 C 51.808776 75.472963 52.07826 74.671626 52.07826 73.562641 C 52.07826 72.453656 51.81386 71.660455 51.284803 71.182269 C 50.755746 70.704083 49.871023 70.465106 48.629773 70.465106 L 46.508801 70.465106 z M 87.011741 70.800799 L 84.890769 80.126974 L 89.147972 80.126974 L 87.011741 70.800799 z " />
  <text
     xml:space="preserve"
     transform="scale(1.5625004)"
     id="text2"
     style="font-style:normal;font-variant:normal;font-weight:bold;font-stretch:normal;font-size:66.6667px;font-family:Monospace;-inkscape-font-specification:'Monospace Bold';text-align:center;white-space:pre;shape-inside:url(#rect2);display:inline;fill:#b2a0a0;fill-opacity:1;stroke-width:0.672;stroke-linejoin:bevel;stroke-miterlimit:4.3" />
</svg>
