<?xml version="1.0" encoding="UTF-8" standalone="no"?>
<svg
   width="68.642654"
   height="80.000008"
   viewBox="0 0 107.25415 125.00008"
   version="1.1"
   id="svg1"
   sodipodi:docname="src_bg.svg"
   inkscape:version="1.3.2 (091e20ef0f, 2023-11-25)"
   xmlns:inkscape="http://www.inkscape.org/namespaces/inkscape"
   xmlns:sodipodi="http://sodipodi.sourceforge.net/DTD/sodipodi-0.dtd"
   xmlns="http://www.w3.org/2000/svg"
   xmlns:svg="http://www.w3.org/2000/svg">
  <defs
     id="defs1" />
  <sodipodi:namedview
     id="namedview1"
     pagecolor="#ffffff"
     bordercolor="#000000"
     borderopacity="0.25"
     inkscape:showpageshadow="2"
     inkscape:pageopacity="0.0"
     inkscape:pagecheckerboard="0"
     inkscape:deskcolor="#d1d1d1"
     inkscape:document-units="in"
     inkscape:zoom="1.333291"
     inkscape:cx="252.75803"
     inkscape:cy="300.00953"
     inkscape:window-width="1920"
     inkscape:window-height="1029"
     inkscape:window-x="0"
     inkscape:window-y="0"
     inkscape:window-maximized="1"
     inkscape:current-layer="svg1" />
  <path
     id="Выделение"
     fill="none"
     stroke="black"
     stroke-width="0.137682"
     d="m 6.195684,4.387967e-5 c 0,0 7.159457,0 7.159457,0 0,0 13.768188,0 13.768188,0 0,0 41.717606,0 41.717606,0 C 72.21965,-0.00955612 76.59793,1.5572259 79.30476,3.5536129 c 1.44841,1.068411 3.9969,3.732556 5.36959,5.105244 0,0 7.5725,7.5725031 7.5725,7.5725031 0,0 6.60873,6.60873 6.60873,6.60873 1.33276,1.33276 3.68712,3.56183 4.75003,4.956547 2.03356,2.668275 3.64306,7.090616 3.64857,10.463822 0,0 0,66.638021 0,66.638021 0,0 0,13.21746 0,13.21746 -0.0207,4.30669 -3.1364,6.87721 -7.29714,6.8841 0,0 -76.826486,0 -76.826486,0 0,0 -15.833415,0 -15.833415,0 C 2.841754,124.99304 0.006884,122.15828 0,117.7029 c 0,0 0,-89.768581 0,-89.768581 0,0 0,-20.6522811 0,-20.6522811 0.0055,-3.242408 1.564066,-6.030466 4.818865,-6.99286202 z M 62.645251,8.9342209 c 0,0 -53.695929,0 -53.695929,0 0,0 0,107.1164991 0,107.1164991 0,0 89.355538,0 89.355538,0 0,0 0,-71.456895 0,-71.456895 0,0 -28.500152,0 -28.500152,0 -4.157992,-0.0069 -7.152573,-2.816971 -7.159457,-7.021775 z M 97.75413,35.782185 c -0.26848,-2.592549 -3.13915,-4.551762 -4.79546,-6.334742 0,0 -5.11213,-5.09836 -5.11213,-5.09836 0,0 -9.54411,-9.593673 -9.54411,-9.593673 0,0 -2.70958,-2.655883 -2.70958,-2.655883 -1.17305,-1.193702 -2.36537,-2.4314621 -4.13596,-2.6145791 0,0 0,26.2972371 0,26.2972371 z m -42.130654,8.74693 c 1.200586,-0.198262 2.391534,0.141812 3.579728,0.301523 0.724207,0.09775 1.842184,0.169349 2.47552,0.512177 0.5108,0.275363 0.856382,0.762757 1.016093,1.316238 0.235436,0.812323 -0.29464,3.184582 -0.451597,4.130456 0,0 -1.5145,9.087004 -1.5145,9.087004 0,0 -5.369593,32.217558 -5.369593,32.217558 0,0 -1.904141,11.427589 -1.904141,11.427589 -0.24645,1.48008 -0.137682,3.34154 -1.961966,3.78213 -0.641598,0.1542 -1.418124,-0.0372 -2.065228,-0.14595 0,0 -1.927547,-0.3208 -1.927547,-0.3208 -1.250151,-0.20652 -2.625593,-0.27398 -2.975305,-1.80087 -0.184494,-0.80407 0.413046,-3.56046 0.578264,-4.54351 0,0 1.650806,-9.913089 1.650806,-9.913089 0,0 0.619568,-3.99278 0.619568,-3.99278 0,0 1.306601,-7.5725 1.306601,-7.5725 0,0 0.669134,-4.40582 0.669134,-4.40582 0,0 2.567767,-15.145004 2.567767,-15.145004 0,0 1.860082,-11.152231 1.860082,-11.152231 0.250581,-1.499356 0.133551,-3.232771 1.846314,-3.782121 z m -20.652281,8.258158 c 1.503486,-0.09913 2.968421,1.350659 4.130456,2.219432 0.472249,0.352466 1.232253,0.830222 1.555805,1.295586 0.352466,0.50667 0.435075,1.190949 0.29877,1.784357 -0.191378,0.837106 -0.765511,1.405732 -1.27218,2.065229 0,0 -1.850445,2.478273 -1.850445,2.478273 0,0 -6.716121,8.949321 -6.716121,8.949321 0,0 -2.164359,2.89132 -2.164359,2.89132 -0.194132,0.26986 -0.740729,0.95689 -0.805439,1.23914 -0.107392,0.46123 0.391016,1.02297 0.648481,1.37682 0,0 2.47552,3.30436 2.47552,3.30436 0,0 6.592208,8.81164 6.592208,8.81164 0,0 1.759575,2.34059 1.759575,2.34059 0.499785,0.64298 1.15102,1.39885 1.33276,2.20291 0.344205,1.52139 -0.660873,2.15059 -1.716893,2.94226 0,0 -1.652182,1.20885 -1.652182,1.20885 -0.629206,0.45848 -1.14276,0.94587 -1.927546,1.10283 -1.65769,0.33182 -2.438346,-1.2474 -3.287844,-2.36262 0,0 -6.725759,-8.94932 -6.725759,-8.94932 0,0 -5.906552,-7.84787 -5.906552,-7.84787 -0.585148,-0.78065 -2.231823,-2.72334 -2.362621,-3.57973 -0.176233,-1.15928 0.440582,-1.76645 1.089063,-2.61595 0,0 2.375013,-3.16668 2.375013,-3.16668 0,0 9.844254,-13.079782 9.844254,-13.079782 0,0 1.960589,-2.615955 1.960589,-2.615955 0.750367,-1.000948 1.018846,-1.697618 2.325447,-1.995011 z m 36.623375,-0.0041 c 1.70588,-0.2079 2.25523,0.944497 3.14879,2.136822 0,0 5.36959,7.159458 5.36959,7.159458 0,0 6.91989,9.224688 6.91989,9.224688 0,0 1.86146,2.47827 1.86146,2.47827 0.38551,0.50529 0.87153,1.00232 0.98167,1.65218 0.19138,1.14139 -0.38275,1.76646 -1.02022,2.61596 0,0 -2.45625,3.30436 -2.45625,3.30436 0,0 -4.68806,6.19569 -4.68806,6.19569 0,0 -4.85604,6.47105 -4.85604,6.47105 0,0 -2.38603,3.16668 -2.38603,3.16668 -0.40341,0.5466 -0.88116,1.31761 -1.49798,1.62878 -1.63979,0.82333 -3.481973,-1.05602 -4.681182,-1.95509 -0.414423,-0.31116 -1.160658,-0.83848 -1.484211,-1.20058 -0.411668,-0.45986 -0.615438,-1.0216 -0.553481,-1.63979 0.107392,-1.09595 2.171243,-3.57423 2.921609,-4.54351 0,0 7.221415,-9.63773 7.221415,-9.63773 0,0 1.96197,-2.61595 1.96197,-2.61595 0.20927,-0.27537 0.73522,-0.92247 0.78891,-1.23914 0.0757,-0.4516 -0.45848,-1.03124 -0.7187,-1.37682 0,0 -2.39566,-3.16668 -2.39566,-3.16668 0,0 -7.104385,-9.50005 -7.104385,-9.50005 -0.714569,-0.951382 -2.553999,-3.052407 -2.676536,-4.130456 -0.183117,-1.603994 0.96102,-2.103779 2.039069,-2.922986 0.976164,-0.743483 2.112042,-1.788488 3.304362,-2.105156 z"
     style="fill:#222329;fill-opacity:1;stroke:none" />
</svg>
