<?xml version="1.0" encoding="UTF-8" standalone="no"?>
<svg
   width="100"
   height="100"
   viewBox="0 0 156.25 156.25008"
   version="1.1"
   id="svg1"
   sodipodi:docname="vst2.svg"
   inkscape:version="1.3.2 (091e20ef0f, 2023-11-25)"
   xmlns:inkscape="http://www.inkscape.org/namespaces/inkscape"
   xmlns:sodipodi="http://sodipodi.sourceforge.net/DTD/sodipodi-0.dtd"
   xmlns="http://www.w3.org/2000/svg"
   xmlns:svg="http://www.w3.org/2000/svg">
  <defs
     id="defs1">
    <rect
       x="-6.5939685"
       y="-27.102536"
       width="145.38636"
       height="153.39802"
       id="rect2" />
  </defs>
  <sodipodi:namedview
     id="namedview1"
     pagecolor="#ffffff"
     bordercolor="#000000"
     borderopacity="0.25"
     inkscape:showpageshadow="2"
     inkscape:pageopacity="0.0"
     inkscape:pagecheckerboard="0"
     inkscape:deskcolor="#d1d1d1"
     inkscape:document-units="in"
     inkscape:zoom="3.7711164"
     inkscape:cx="84.855509"
     inkscape:cy="53.299866"
     inkscape:window-width="1920"
     inkscape:window-height="1029"
     inkscape:window-x="0"
     inkscape:window-y="0"
     inkscape:window-maximized="1"
     inkscape:current-layer="svg1"
     inkscape:lockguides="false" />
  <path
     id="Выделение"
     style="fill:#9da3ca;fill-opacity:1;stroke:none"
     d="M 122.80277,54.68744 H 33.447274 l -8.950808,4e-6 h -0.04578 c -4.888921,0 -8.825686,3.936765 -8.825686,8.825686 v 29.22364 c 0,4.88889 3.936765,8.82568 8.825686,8.82568 h 0.04578 l 8.950808,1.5e-4 h 89.355496 l 8.9508,-5e-5 h 0.0458 c 4.88895,0 8.82569,-3.93679 8.82569,-8.82568 V 63.513126 c 0,-4.888921 -3.93674,-8.825686 -8.82569,-8.825686 h -0.0458 z M 68.206805,66.268864 c 1.047765,0 2.095546,0.122071 3.143311,0.366211 1.047765,0.233968 2.085374,0.584921 3.112794,1.052857 v 4.394532 c -0.966385,-0.681555 -1.948045,-1.200359 -2.944947,-1.556397 -0.996903,-0.356038 -1.983649,-0.534058 -2.960206,-0.534058 -1.088455,0 -1.922613,0.218714 -2.502442,0.656128 -0.579834,0.437419 -0.869751,1.063035 -0.869751,1.876832 0,0.630692 0.208537,1.154583 0.62561,1.571656 0.427246,0.406896 1.312262,0.859583 2.65503,1.358032 l 1.937867,0.732422 c 1.831045,0.671391 3.17892,1.561481 4.04358,2.670291 0.86466,1.1088 1.296997,2.50753 1.296997,4.19617 0,2.29894 -0.681565,4.01815 -2.044678,5.15747 -1.352941,1.12915 -3.402722,1.69372 -6.149294,1.69372 -1.129141,0 -2.263393,-0.13733 -3.40271,-0.41198 -1.129146,-0.26449 -2.222703,-0.66122 -3.280641,-1.19019 v -4.65393 c 1.200353,0.85449 2.360032,1.49028 3.479005,1.90735 1.129145,0.41707 2.243048,0.62561 3.341676,0.62561 1.1088,0 1.968385,-0.24923 2.578736,-0.74768 0.610347,-0.50863 0.915527,-1.21566 0.915527,-2.12097 0,-0.68156 -0.203451,-1.27666 -0.610352,-1.78528 -0.406896,-0.5188 -0.996908,-0.9257 -1.77002,-1.22071 l -2.212524,-0.83923 c -2.268464,-0.86466 -3.804531,-1.77002 -4.608156,-2.71607 -0.803625,-0.956188 -1.205445,-2.237962 -1.205445,-3.845211 0,-2.065013 0.661224,-3.687547 1.983643,-4.867555 1.322424,-1.180008 3.138236,-1.77002 5.44739,-1.77002 z m 36.666875,0 c 2.41089,0 4.30299,0.564581 5.67628,1.693726 1.38342,1.118973 2.07519,2.649954 2.07519,4.592897 0,0.895177 -0.15259,1.734421 -0.45776,2.5177 -0.29501,0.783284 -0.80872,1.653033 -1.54114,2.609253 -0.53914,0.69173 -2.01925,2.24813 -4.44031,4.66919 -1.31225,1.31226 -2.35494,2.36003 -3.12805,3.14331 h 9.59778 v 3.96729 H 98.190333 v -3.84522 l 2.441407,-2.59399 c 2.89917,-3.08227 4.65902,-4.97946 5.27954,-5.69153 0.76294,-0.874838 1.31226,-1.647952 1.64795,-2.319338 0.33569,-0.681554 0.50354,-1.352951 0.50354,-2.01416 0,-1.017248 -0.3103,-1.800539 -0.93078,-2.349855 -0.61036,-0.559484 -1.48011,-0.839233 -2.60926,-0.839233 -0.80363,0 -1.70898,0.162765 -2.71606,0.488281 -0.99691,0.315348 -2.039601,0.778203 -3.128056,1.38855 v -4.196168 c 1.088455,-0.396724 2.151496,-0.696822 3.189086,-0.900268 1.04777,-0.213623 2.04981,-0.320435 3.00598,-0.320435 z m -64.010632,0.411987 h 4.531861 l 3.997804,19.027719 4.013062,-19.027719 h 4.531862 L 52.520765,89.46223 h -6.240846 z m 38.131723,0 H 95.06228 V 70.61762 H 89.279198 V 89.46223 H 84.777854 V 70.61762 h -5.783083 z"
     sodipodi:nodetypes="cccssssccccssssccscccsssscccsscsccccscsccccsssscsccsccccccccscsccccsccccccccccccccccc" />
  <text
     xml:space="preserve"
     transform="scale(1.5625004)"
     id="text2"
     style="fill:#b2a0a0;stroke-width:0.672;stroke-miterlimit:4.3;stroke-linejoin:bevel;fill-opacity:1;-inkscape-font-specification:'Monospace Bold';font-family:Monospace;font-weight:bold;font-style:normal;font-stretch:normal;font-variant:normal;font-size:66.66666667px;text-align:center;white-space:pre;shape-inside:url(#rect2)" />
</svg>
