<?xml version="1.0" encoding="UTF-8" standalone="no"?>
<svg
   width="79.577835"
   height="80"
   viewBox="0 0 124.34044 125"
   version="1.1"
   id="svg1"
   sodipodi:docname="win_bg.svg"
   inkscape:version="1.3.2 (091e20ef0f, 2023-11-25)"
   xmlns:inkscape="http://www.inkscape.org/namespaces/inkscape"
   xmlns:sodipodi="http://sodipodi.sourceforge.net/DTD/sodipodi-0.dtd"
   xmlns="http://www.w3.org/2000/svg"
   xmlns:svg="http://www.w3.org/2000/svg">
  <defs
     id="defs1" />
  <sodipodi:namedview
     id="namedview1"
     pagecolor="#ffffff"
     bordercolor="#000000"
     borderopacity="0.25"
     inkscape:showpageshadow="2"
     inkscape:pageopacity="0.0"
     inkscape:pagecheckerboard="0"
     inkscape:deskcolor="#d1d1d1"
     inkscape:document-units="in"
     inkscape:zoom="1.1240698"
     inkscape:cx="232.19199"
     inkscape:cy="164.58053"
     inkscape:window-width="1920"
     inkscape:window-height="1029"
     inkscape:window-x="0"
     inkscape:window-y="0"
     inkscape:window-maximized="1"
     inkscape:current-layer="svg1" />
  <path
     id="Выделение #2"
     fill="none"
     stroke="#000000"
     stroke-width="1"
     d="M 56.89315,59.861492 V 11.378632 L 57.061358,10.158314 58.04751,9.823552 60.68603,9.421177 72.55939,7.681401 109.49871,2.188325 119.55808,0.704156 124.3404,0 V 59.531677 H 96.470998 l -2.47362,0.164908 H 60.026406 l -2.473624,0.164907 z M 0,60.026401 V 19.788924 l 0.0058,-1.461363 2.962554,-0.385604 3.627969,-0.506266 5.277046,-0.780014 11.708446,-1.769459 18.634568,-2.727574 8.575207,-1.274736 V 59.861492 H 25.560751 l -2.473624,0.164909 z m 0,5.441953 h 20.448554 l 2.473621,0.164909 H 50.791574 V 114.61084 L 43.535631,113.66593 31.662279,111.99376 10.719,109.05016 0,107.51981 Z m 56.89315,0.164909 h 6.101584 l 2.803432,0.164907 h 28.199212 12.862812 l 2.47361,0.164908 h 15.0066 v 59.036962 l -4.94723,-0.68108 -9.56465,-1.34399 -13.192612,-1.88654 -13.687343,-1.88161 -16.820575,-2.33344 -9.23484,-1.27309 z"
     sodipodi:nodetypes="ccccccccccccccccccccccccccccccccccccccccccccccccccccc"
     style="fill:#222329;fill-opacity:1;stroke:none;stroke-width:0.173154;stroke-dasharray:none" />
</svg>
