<?xml version="1.0" encoding="UTF-8" standalone="no"?>
<svg
   width="100"
   height="100"
   viewBox="0 0 156.25 156.25008"
   version="1.1"
   id="svg1"
   sodipodi:docname="gst_hover.svg"
   inkscape:version="1.3.2 (091e20ef0f, 2023-11-25)"
   xmlns:inkscape="http://www.inkscape.org/namespaces/inkscape"
   xmlns:sodipodi="http://sodipodi.sourceforge.net/DTD/sodipodi-0.dtd"
   xmlns="http://www.w3.org/2000/svg"
   xmlns:svg="http://www.w3.org/2000/svg">
  <defs
     id="defs1">
    <rect
       x="-6.5939685"
       y="-27.102536"
       width="145.38636"
       height="153.39802"
       id="rect2" />
  </defs>
  <sodipodi:namedview
     id="namedview1"
     pagecolor="#ffffff"
     bordercolor="#000000"
     borderopacity="0.25"
     inkscape:showpageshadow="2"
     inkscape:pageopacity="0.0"
     inkscape:pagecheckerboard="0"
     inkscape:deskcolor="#d1d1d1"
     inkscape:document-units="in"
     inkscape:zoom="5.6568543"
     inkscape:cx="63.63961"
     inkscape:cy="94.045201"
     inkscape:window-width="1920"
     inkscape:window-height="1029"
     inkscape:window-x="0"
     inkscape:window-y="0"
     inkscape:window-maximized="1"
     inkscape:current-layer="svg1"
     inkscape:lockguides="false" />
  <path
     id="Выделение"
     style="fill:#a0ea41;fill-opacity:1;stroke:none"
     d="M 30.694588 15.625004 L 29.318245 15.914921 C 26.063458 16.877313 24.501966 19.664104 24.496466 22.9065 L 24.496466 43.560802 L 24.496466 78.12502 L 24.45069 78.12502 C 19.561759 78.12502 15.625004 82.061775 15.625004 86.950706 L 15.625004 116.17435 C 15.625004 121.06326 19.561759 125.00003 24.45069 125.00003 L 24.496466 125.00003 L 24.496466 133.32828 C 24.50335 137.78366 27.340904 140.61804 31.796273 140.62504 L 47.628796 140.62504 L 124.45377 140.62504 C 128.61447 140.61815 131.73287 138.04692 131.75357 133.74027 L 131.75357 125.00003 L 131.79935 125.00003 C 136.6883 125.00003 140.62504 121.06326 140.62504 116.17435 L 140.62504 86.950706 C 140.62504 82.061775 136.6883 78.12502 131.79935 78.12502 L 131.75357 78.12502 L 131.75357 53.884901 C 131.74806 50.511711 130.13723 46.088688 128.10367 43.420421 C 127.04076 42.025712 124.68484 39.797121 123.35208 38.464365 L 116.74503 31.857308 L 109.17361 24.282843 C 107.80092 22.910163 105.25093 20.245658 103.80252 19.177251 C 101.09569 17.180872 96.716736 15.615404 93.338037 15.625004 L 51.620497 15.625004 L 37.854014 15.625004 L 30.694588 15.625004 z M 33.447274 24.560553 L 87.142967 24.560553 L 87.142967 53.198256 C 87.149851 57.403044 90.144416 60.210401 94.302392 60.217301 L 122.80277 60.217301 L 122.80277 78.12502 L 33.447274 78.12502 L 33.447274 24.560553 z M 95.953394 25.10987 C 97.723976 25.292987 98.91853 26.531529 100.09158 27.725227 L 102.80154 30.380257 L 112.34439 39.974986 L 117.45608 45.071423 C 119.11239 46.854395 121.98497 48.814333 122.25345 51.406874 L 95.953394 51.406874 L 95.953394 25.10987 z M 60.65065 89.709496 C 61.566326 89.709496 62.469355 89.841696 63.354508 90.106224 C 64.239662 90.360579 65.068454 90.731756 65.841692 91.220116 L 65.841692 96.212793 C 65.210893 95.398859 64.483793 94.788705 63.659684 94.381738 C 62.84575 93.964597 61.947806 93.756128 60.971085 93.756128 C 59.261823 93.756128 57.985585 94.401874 57.141128 95.693994 C 56.296671 96.97594 55.874648 98.923349 55.874648 101.53811 C 55.874648 104.07148 56.281417 105.99855 57.095352 107.32119 C 57.909286 108.64384 59.094001 109.30484 60.65065 109.30484 C 61.118662 109.30484 61.525432 109.26416 61.871354 109.18277 C 62.217276 109.0912 62.49693 108.959 62.710587 108.78604 L 62.710587 104.43728 L 59.628311 104.43728 L 59.628311 100.6531 L 66.650408 100.6531 L 66.650408 111.09012 C 65.785603 111.83283 64.829695 112.40028 63.781755 112.78689 C 62.743989 113.16334 61.627406 113.35147 60.437027 113.35147 C 57.486516 113.35147 55.208608 112.32641 53.601088 110.2814 C 51.993568 108.22622 51.190199 105.31273 51.190199 101.53811 C 51.190199 97.702448 51.998653 94.770656 53.616347 92.745995 C 55.244215 90.721334 57.588223 89.709496 60.65065 89.709496 z M 77.62148 89.709496 C 78.66942 89.709496 79.716851 89.831526 80.764791 90.075707 C 81.812731 90.309713 82.853045 90.660551 83.880637 91.128563 L 83.880637 95.526148 C 82.91409 94.844478 81.929707 94.325847 80.932638 93.969751 C 79.935569 93.613654 78.949153 93.435693 77.972432 93.435693 C 76.883795 93.435693 76.049918 93.654331 75.46999 94.091821 C 74.890062 94.529311 74.600239 95.154718 74.600239 95.968652 C 74.600239 96.599451 74.808708 97.123167 75.225849 97.540308 C 75.653165 97.947275 76.537888 98.399806 77.880879 98.898341 L 79.818746 99.630763 C 81.650098 100.30226 83.000573 101.19207 83.865378 102.30105 C 84.730183 103.41004 85.162375 104.80831 85.162375 106.49722 C 85.162375 108.79658 84.481037 110.51824 83.117697 111.65774 C 81.764532 112.78708 79.712379 113.35147 76.965352 113.35147 C 75.836018 113.35147 74.702149 113.21418 73.562641 112.93948 C 72.433307 112.67495 71.340115 112.27835 70.282 111.7493 L 70.282 107.09231 C 71.482553 107.94694 72.641846 108.58252 73.761005 108.99966 C 74.890339 109.4168 76.00387 109.62527 77.102681 109.62527 C 78.211666 109.62527 79.070966 109.37613 79.681417 108.87759 C 80.291867 108.36888 80.596944 107.66212 80.596944 106.75662 C 80.596944 106.07495 80.39356 105.48005 79.986593 104.97134 C 79.579626 104.45246 78.98981 104.04569 78.216573 103.75064 L 76.004048 102.9114 C 73.735207 102.0466 72.199652 101.14154 71.395892 100.19534 C 70.592132 99.238966 70.190448 97.957642 70.190448 96.350122 C 70.190448 94.284765 70.851448 92.65972 72.174091 91.479516 C 73.496734 90.299311 75.311942 89.709496 77.62148 89.709496 z M 88.412498 90.121483 L 104.48306 90.121483 L 104.48306 94.061303 L 98.696925 94.061303 L 98.696925 112.90896 L 94.195581 112.90896 L 94.195581 94.061303 L 88.412498 94.061303 L 88.412498 90.121483 z M 33.447274 125.00003 L 122.80277 125.00003 L 122.80277 131.67423 L 33.447274 131.67423 L 33.447274 125.00003 z " />
  <text
     xml:space="preserve"
     transform="scale(1.5625004)"
     id="text2"
     style="font-style:normal;font-variant:normal;font-weight:bold;font-stretch:normal;font-size:66.6667px;font-family:Monospace;-inkscape-font-specification:'Monospace Bold';text-align:center;white-space:pre;shape-inside:url(#rect2);display:inline;fill:#b2a0a0;fill-opacity:1;stroke-width:0.672;stroke-linejoin:bevel;stroke-miterlimit:4.3" />
</svg>
