<?xml version="1.0" encoding="UTF-8" standalone="no"?>
<svg
   width="100"
   height="100"
   viewBox="0 0 156.25 156.25008"
   version="1.1"
   id="svg1"
   sodipodi:docname="jack_hover.svg"
   inkscape:version="1.3.2 (091e20ef0f, 2023-11-25)"
   xmlns:inkscape="http://www.inkscape.org/namespaces/inkscape"
   xmlns:sodipodi="http://sodipodi.sourceforge.net/DTD/sodipodi-0.dtd"
   xmlns="http://www.w3.org/2000/svg"
   xmlns:svg="http://www.w3.org/2000/svg">
  <defs
     id="defs1">
    <rect
       x="-6.5939685"
       y="-27.102536"
       width="145.38636"
       height="153.39802"
       id="rect2" />
  </defs>
  <sodipodi:namedview
     id="namedview1"
     pagecolor="#ffffff"
     bordercolor="#000000"
     borderopacity="0.25"
     inkscape:showpageshadow="2"
     inkscape:pageopacity="0.0"
     inkscape:pagecheckerboard="0"
     inkscape:deskcolor="#d1d1d1"
     inkscape:document-units="in"
     inkscape:zoom="3.7711164"
     inkscape:cx="84.855508"
     inkscape:cy="53.299866"
     inkscape:window-width="1920"
     inkscape:window-height="1029"
     inkscape:window-x="0"
     inkscape:window-y="0"
     inkscape:window-maximized="1"
     inkscape:current-layer="svg1"
     inkscape:lockguides="false" />
  <path
     id="Выделение"
     style="fill:#a0ea41;fill-opacity:1;stroke:none"
     d="M 30.694588 15.625004 L 29.318245 15.914921 C 26.063452 16.877315 24.501966 19.664098 24.496466 22.9065 L 24.496466 43.560802 L 24.496466 78.12502 L 24.45069 78.12502 C 19.561749 78.12502 15.625004 82.061765 15.625004 86.950706 L 15.625004 116.17435 C 15.625004 121.06328 19.561749 125.00003 24.45069 125.00003 L 24.496466 125.00003 L 24.496466 133.32828 C 24.50335 137.78366 27.340896 140.61804 31.796273 140.62504 L 47.628796 140.62504 L 124.45377 140.62504 C 128.61449 140.61815 131.73287 138.04694 131.75357 133.74027 L 131.75357 125.00003 L 131.79935 125.00003 C 136.6883 125.00003 140.62504 121.06328 140.62504 116.17435 L 140.62504 86.950706 C 140.62504 82.061765 136.6883 78.12502 131.79935 78.12502 L 131.75357 78.12502 L 131.75357 53.884901 C 131.74806 50.511703 130.13723 46.088692 128.10367 43.420421 C 127.04076 42.025708 124.68484 39.797123 123.35208 38.464365 L 116.74503 31.857308 L 109.17361 24.282843 C 107.80092 22.910159 105.25093 20.24566 103.80252 19.177251 C 101.09569 17.180868 96.716744 15.615404 93.338037 15.625004 L 51.620497 15.625004 L 37.854014 15.625004 L 30.694588 15.625004 z M 33.447274 24.560553 L 87.142967 24.560553 L 87.142967 53.198256 C 87.149851 57.403052 90.144408 60.210401 94.302392 60.217301 L 122.80277 60.217301 L 122.80277 78.12502 L 33.447274 78.12502 L 33.447274 24.560553 z M 95.953394 25.10987 C 97.72398 25.292987 98.91853 26.531527 100.09158 27.725227 L 102.80154 30.380257 L 112.34439 39.974986 L 117.45608 45.071423 C 119.11239 46.854399 121.98497 48.814329 122.25345 51.406874 L 95.953394 51.406874 L 95.953394 25.10987 z M 89.401268 89.706444 C 90.265932 89.706444 91.094995 89.797997 91.888451 89.981102 C 92.681907 90.164207 93.424504 90.438866 94.116235 90.805077 L 94.116235 95.809961 C 93.343124 95.097885 92.590355 94.579085 91.857934 94.253564 C 91.135685 93.917871 90.388002 93.750024 89.614891 93.750024 C 87.966944 93.750024 86.720806 94.406154 85.876487 95.718408 C 85.042341 97.02049 84.625266 98.958362 84.625266 101.53201 C 84.625266 104.09548 85.042341 106.03335 85.876487 107.34561 C 86.720806 108.64769 87.966944 109.29873 89.614891 109.29873 C 90.388002 109.29873 91.135685 109.13597 91.857934 108.81045 C 92.590355 108.47476 93.343124 107.95087 94.116235 107.2388 L 94.116235 112.24368 C 93.404159 112.60989 92.656476 112.88455 91.873192 113.06766 C 91.089909 113.25076 90.265932 113.34231 89.401268 113.34231 C 86.329168 113.34231 83.984394 112.33015 82.366964 110.30581 C 80.749534 108.28148 79.940816 105.35687 79.940816 101.53201 C 79.940816 97.69697 80.749534 94.767274 82.366964 92.742944 C 83.984394 90.718613 86.329168 89.706444 89.401268 89.706444 z M 45.364391 90.118431 L 55.37416 90.118431 L 55.37416 105.59085 C 55.37416 108.36794 54.789238 110.35668 53.619398 111.55704 C 52.459732 112.74722 50.542205 113.34231 47.866834 113.34231 C 46.900445 113.34231 45.888275 113.21007 44.830334 112.94559 C 43.782565 112.6811 42.724619 112.28946 41.656505 111.77066 L 41.656505 106.55215 C 42.531341 107.44733 43.46213 108.12889 44.448864 108.59683 C 45.44577 109.06477 46.447767 109.29873 47.454846 109.29873 C 48.634858 109.29873 49.499525 109.00373 50.048841 108.41372 C 50.598157 107.82372 50.872816 106.88276 50.872816 105.59085 L 50.872816 94.085717 L 45.364391 94.085717 L 45.364391 90.118431 z M 65.460222 90.118431 L 70.968646 90.118431 L 77.11794 112.89981 L 72.616596 112.89981 L 71.212787 107.26931 L 65.185564 107.26931 L 63.812272 112.89981 L 59.310928 112.89981 L 65.460222 90.118431 z M 98.22085 90.118431 L 102.72219 90.118431 L 102.72219 99.121119 L 109.77176 90.118431 L 114.86819 90.118431 L 107.6813 99.090602 L 115.12759 112.89981 L 110.12271 112.89981 L 104.7211 102.6459 L 102.72219 105.17886 L 102.72219 112.89981 L 98.22085 112.89981 L 98.22085 90.118431 z M 68.206805 94.238305 L 66.085832 103.56143 L 70.343036 103.56143 L 68.206805 94.238305 z M 33.447274 125.00003 L 122.80277 125.00003 L 122.80277 131.67423 L 33.447274 131.67423 L 33.447274 125.00003 z " />
  <text
     xml:space="preserve"
     transform="scale(1.5625004)"
     id="text2"
     style="font-style:normal;font-variant:normal;font-weight:bold;font-stretch:normal;font-size:66.6667px;font-family:Monospace;-inkscape-font-specification:'Monospace Bold';text-align:center;white-space:pre;shape-inside:url(#rect2);display:inline;fill:#b2a0a0;fill-opacity:1;stroke-width:0.672;stroke-linejoin:bevel;stroke-miterlimit:4.3" />
</svg>
