<?xml version="1.0" encoding="UTF-8" standalone="no"?>
<svg
   width="100"
   height="100"
   viewBox="0 0 156.25 156.25008"
   version="1.1"
   id="svg1"
   sodipodi:docname="lv2_hover.svg"
   inkscape:version="1.3.2 (091e20ef0f, 2023-11-25)"
   xmlns:inkscape="http://www.inkscape.org/namespaces/inkscape"
   xmlns:sodipodi="http://sodipodi.sourceforge.net/DTD/sodipodi-0.dtd"
   xmlns="http://www.w3.org/2000/svg"
   xmlns:svg="http://www.w3.org/2000/svg">
  <defs
     id="defs1" />
  <sodipodi:namedview
     id="namedview1"
     pagecolor="#ffffff"
     bordercolor="#000000"
     borderopacity="0.25"
     inkscape:showpageshadow="2"
     inkscape:pageopacity="0.0"
     inkscape:pagecheckerboard="0"
     inkscape:deskcolor="#d1d1d1"
     inkscape:document-units="in"
     inkscape:zoom="3.7711164"
     inkscape:cx="84.855509"
     inkscape:cy="53.299866"
     inkscape:window-width="1920"
     inkscape:window-height="1029"
     inkscape:window-x="0"
     inkscape:window-y="0"
     inkscape:window-maximized="1"
     inkscape:current-layer="svg1"
     inkscape:lockguides="false" />
  <path
     id="Выделение"
     style="fill:#a0ea41;fill-opacity:1;stroke:none"
     d="M 30.694588 15.625004 L 29.318245 15.914921 C 26.063452 16.877315 24.501966 19.664098 24.496466 22.9065 L 24.496466 43.560802 L 24.496466 78.12502 L 24.45069 78.12502 C 19.561749 78.12502 15.625004 82.061765 15.625004 86.950706 L 15.625004 116.17435 C 15.625004 121.06328 19.561749 125.00003 24.45069 125.00003 L 24.496466 125.00003 L 24.496466 133.32828 C 24.50335 137.78366 27.340896 140.61804 31.796273 140.62504 L 47.628796 140.62504 L 124.45377 140.62504 C 128.61449 140.61815 131.73287 138.04694 131.75357 133.74027 L 131.75357 125.00003 L 131.79935 125.00003 C 136.6883 125.00003 140.62504 121.06328 140.62504 116.17435 L 140.62504 86.950706 C 140.62504 82.061765 136.6883 78.12502 131.79935 78.12502 L 131.75357 78.12502 L 131.75357 53.884901 C 131.74806 50.511703 130.13723 46.088692 128.10367 43.420421 C 127.04076 42.025708 124.68484 39.797123 123.35208 38.464365 L 116.74503 31.857308 L 109.17361 24.282843 C 107.80092 22.910159 105.25093 20.24566 103.80252 19.177251 C 101.09569 17.180868 96.716744 15.615404 93.338037 15.625004 L 51.620497 15.625004 L 37.854014 15.625004 L 30.694588 15.625004 z M 33.447274 24.560553 L 87.142967 24.560553 L 87.142967 53.198256 C 87.149851 57.403052 90.144408 60.210401 94.302392 60.217301 L 122.80277 60.217301 L 122.80277 78.12502 L 33.447274 78.12502 L 33.447274 24.560553 z M 95.953394 25.10987 C 97.72398 25.292987 98.91853 26.531527 100.09158 27.725227 L 102.80154 30.380257 L 112.34439 39.974986 L 117.45608 45.071423 C 119.11239 46.854399 121.98497 48.814329 122.25345 51.406874 L 95.953394 51.406874 L 95.953394 25.10987 z M 95.465112 89.706444 C 97.875999 89.706444 99.768094 90.271021 101.14138 91.40017 C 102.52485 92.519147 103.21658 94.050116 103.21658 95.993067 C 103.21658 96.888248 103.06399 97.727484 102.75882 98.510767 C 102.46381 99.294051 101.9501 100.1638 101.21768 101.12002 C 100.67853 101.81175 99.198427 103.36815 96.777369 105.78921 C 95.465114 107.10147 94.422427 108.14924 93.649316 108.93252 L 103.2471 108.93252 L 103.2471 112.89981 L 88.784813 112.89981 L 88.784813 109.05459 L 91.223168 106.4606 C 94.122335 103.37833 95.882187 101.48114 96.50271 100.76907 C 97.265649 99.894232 97.814967 99.121118 98.15066 98.449732 C 98.486353 97.768174 98.6542 97.096785 98.6542 96.435572 C 98.6542 95.41832 98.343937 94.635033 97.723414 94.085717 C 97.113063 93.526229 96.243309 93.246484 95.11416 93.246484 C 94.310531 93.246484 93.405174 93.409245 92.398095 93.734765 C 91.401188 94.050113 90.361553 94.512964 89.273094 95.123315 L 89.273094 90.927147 C 90.361553 90.530419 91.421533 90.230329 92.45913 90.026879 C 93.506899 89.813256 94.508896 89.706444 95.465112 89.706444 z M 52.835097 90.118431 L 57.33644 90.118431 L 57.33644 108.93252 L 66.964739 108.93252 L 66.964739 112.89981 L 52.835097 112.89981 L 52.835097 90.118431 z M 69.085711 90.118431 L 73.617573 90.118431 L 77.615376 109.14615 L 81.628439 90.118431 L 86.1603 90.118431 L 80.743429 112.89981 L 74.502583 112.89981 L 69.085711 90.118431 z M 33.447274 125.00003 L 122.80277 125.00003 L 122.80277 131.67423 L 33.447274 131.67423 L 33.447274 125.00003 z " />
</svg>
