<?xml version="1.0" encoding="UTF-8" standalone="no"?>
<svg
   width="100"
   height="100"
   viewBox="0 0 156.25 156.25008"
   version="1.1"
   id="svg1"
   sodipodi:docname="au.svg"
   inkscape:version="1.3.2 (091e20ef0f, 2023-11-25)"
   xmlns:inkscape="http://www.inkscape.org/namespaces/inkscape"
   xmlns:sodipodi="http://sodipodi.sourceforge.net/DTD/sodipodi-0.dtd"
   xmlns="http://www.w3.org/2000/svg"
   xmlns:svg="http://www.w3.org/2000/svg">
  <defs
     id="defs1">
    <rect
       x="-6.5939685"
       y="-27.102536"
       width="145.38636"
       height="153.39802"
       id="rect2" />
  </defs>
  <sodipodi:namedview
     id="namedview1"
     pagecolor="#ffffff"
     bordercolor="#000000"
     borderopacity="0.25"
     inkscape:showpageshadow="2"
     inkscape:pageopacity="0.0"
     inkscape:pagecheckerboard="0"
     inkscape:deskcolor="#d1d1d1"
     inkscape:document-units="in"
     inkscape:zoom="8"
     inkscape:cx="51.875"
     inkscape:cy="37.125"
     inkscape:window-width="1920"
     inkscape:window-height="1029"
     inkscape:window-x="0"
     inkscape:window-y="0"
     inkscape:window-maximized="1"
     inkscape:current-layer="svg1"
     inkscape:lockguides="false"
     showguides="true" />
  <path
     id="Выделение"
     style="fill:#9da3ca;fill-opacity:1;stroke:none"
     d="M 24.45069 54.687514 C 19.561774 54.687514 15.625004 58.624284 15.625004 63.5132 L 15.625004 92.73684 C 15.625004 97.62573 19.561774 101.56253 24.45069 101.56253 L 24.496466 101.56253 L 33.447274 101.56253 L 122.80277 101.56253 L 131.75357 101.56253 L 131.79935 101.56253 C 136.6883 101.56253 140.62504 97.62573 140.62504 92.73684 L 140.62504 63.5132 C 140.62504 58.624284 136.6883 54.687514 131.79935 54.687514 L 131.75357 54.687514 L 122.80277 54.687514 L 33.447274 54.687514 L 24.496466 54.687514 L 24.45069 54.687514 z M 65.448015 66.680925 L 70.956439 66.680925 L 77.105733 89.465355 L 72.604389 89.465355 L 71.20058 83.83486 L 65.173357 83.83486 L 63.800065 89.465355 L 59.295669 89.465355 L 65.448015 66.680925 z M 79.226705 66.680925 L 83.731101 66.680925 L 83.731101 82.186911 C 83.731101 83.326418 84.020924 84.221311 84.600852 84.872458 C 85.18078 85.513431 85.984149 85.833762 87.011741 85.833762 C 88.039333 85.833762 88.842702 85.513431 89.42263 84.872458 C 90.002558 84.221311 90.292382 83.326418 90.292382 82.186911 L 90.292382 66.680925 L 94.793725 66.680925 L 94.793725 81.05776 C 94.793725 84.15071 94.178487 86.39811 92.947411 87.802147 C 91.716336 89.206183 89.73842 89.90786 87.011741 89.90786 C 84.295236 89.90786 82.314268 89.206183 81.073019 87.802147 C 79.841943 86.39811 79.226705 84.15071 79.226705 81.05776 L 79.226705 66.680925 z M 68.194598 70.800799 L 66.073625 80.126974 L 70.330829 80.126974 L 68.194598 70.800799 z " />
  <text
     xml:space="preserve"
     transform="scale(1.5625004)"
     id="text2"
     style="font-style:normal;font-variant:normal;font-weight:bold;font-stretch:normal;font-size:66.6667px;font-family:Monospace;-inkscape-font-specification:'Monospace Bold';text-align:center;white-space:pre;shape-inside:url(#rect2);display:inline;fill:#b2a0a0;fill-opacity:1;stroke-width:0.672;stroke-linejoin:bevel;stroke-miterlimit:4.3" />
</svg>
