<?xml version="1.0" encoding="UTF-8" standalone="no"?>
<svg
   width="100"
   height="100"
   viewBox="0 0 156.25 156.25008"
   version="1.1"
   id="svg1"
   sodipodi:docname="clap_hover.svg"
   inkscape:version="1.3.2 (091e20ef0f, 2023-11-25)"
   xmlns:inkscape="http://www.inkscape.org/namespaces/inkscape"
   xmlns:sodipodi="http://sodipodi.sourceforge.net/DTD/sodipodi-0.dtd"
   xmlns="http://www.w3.org/2000/svg"
   xmlns:svg="http://www.w3.org/2000/svg">
  <defs
     id="defs1">
    <rect
       x="-6.5939685"
       y="-27.102536"
       width="145.38636"
       height="153.39802"
       id="rect2" />
  </defs>
  <sodipodi:namedview
     id="namedview1"
     pagecolor="#ffffff"
     bordercolor="#000000"
     borderopacity="0.25"
     inkscape:showpageshadow="2"
     inkscape:pageopacity="0.0"
     inkscape:pagecheckerboard="0"
     inkscape:deskcolor="#d1d1d1"
     inkscape:document-units="in"
     inkscape:zoom="3.7711164"
     inkscape:cx="84.855509"
     inkscape:cy="53.299866"
     inkscape:window-width="1920"
     inkscape:window-height="1029"
     inkscape:window-x="0"
     inkscape:window-y="0"
     inkscape:window-maximized="1"
     inkscape:current-layer="svg1"
     inkscape:lockguides="false" />
  <path
     id="Выделение"
     style="fill:#a0ea41;fill-opacity:1;stroke:none"
     d="M 30.694588 15.625004 L 29.318245 15.914921 C 26.063452 16.877315 24.501966 19.664098 24.496466 22.9065 L 24.496466 43.560802 L 24.496466 78.12502 L 24.45069 78.12502 C 19.561749 78.12502 15.625004 82.061765 15.625004 86.950706 L 15.625004 116.17435 C 15.625004 121.06328 19.561749 125.00003 24.45069 125.00003 L 24.496466 125.00003 L 24.496466 133.32828 C 24.50335 137.78366 27.340896 140.61804 31.796273 140.62504 L 47.628796 140.62504 L 124.45377 140.62504 C 128.61449 140.61815 131.73287 138.04694 131.75357 133.74027 L 131.75357 125.00003 L 131.79935 125.00003 C 136.6883 125.00003 140.62504 121.06328 140.62504 116.17435 L 140.62504 86.950706 C 140.62504 82.061765 136.6883 78.12502 131.79935 78.12502 L 131.75357 78.12502 L 131.75357 53.884901 C 131.74806 50.511703 130.13723 46.088692 128.10367 43.420421 C 127.04076 42.025708 124.68484 39.797123 123.35208 38.464365 L 116.74503 31.857308 L 109.17361 24.282843 C 107.80092 22.910159 105.25093 20.24566 103.80252 19.177251 C 101.09569 17.180868 96.716744 15.615404 93.338037 15.625004 L 51.620497 15.625004 L 37.854014 15.625004 L 30.694588 15.625004 z M 33.447274 24.560553 L 87.142967 24.560553 L 87.142967 53.198256 C 87.149851 57.403052 90.144408 60.210401 94.302392 60.217301 L 122.80277 60.217301 L 122.80277 78.12502 L 33.447274 78.12502 L 33.447274 24.560553 z M 95.953394 25.10987 C 97.72398 25.292987 98.91853 26.531527 100.09158 27.725227 L 102.80154 30.380257 L 112.34439 39.974986 L 117.45608 45.071423 C 119.11239 46.854399 121.98497 48.814329 122.25345 51.406874 L 95.953394 51.406874 L 95.953394 25.10987 z M 51.773085 89.706444 C 52.637748 89.706444 53.466812 89.797997 54.260268 89.981102 C 55.053724 90.164207 55.79632 90.438866 56.488052 90.805077 L 56.488052 95.809961 C 55.71494 95.097885 54.962171 94.579085 54.22975 94.253564 C 53.507502 93.917871 52.759819 93.750024 51.986708 93.750024 C 50.33876 93.750024 49.092622 94.406154 48.248303 95.718408 C 47.414157 97.02049 46.997082 98.958362 46.997082 101.53201 C 46.997082 104.09548 47.414157 106.03335 48.248303 107.34561 C 49.092622 108.64769 50.33876 109.29873 51.986708 109.29873 C 52.759819 109.29873 53.507502 109.13597 54.22975 108.81045 C 54.962171 108.47476 55.71494 107.95087 56.488052 107.2388 L 56.488052 112.24368 C 55.775975 112.60989 55.028293 112.88455 54.245009 113.06766 C 53.461725 113.25076 52.637748 113.34231 51.773085 113.34231 C 48.700985 113.34231 46.356211 112.33015 44.738781 110.30581 C 43.121351 108.28148 42.312633 105.35687 42.312633 101.53201 C 42.312633 97.69697 43.121351 94.767274 44.738781 92.742944 C 46.356211 90.718613 48.700985 89.706444 51.773085 89.706444 z M 62.240617 90.118431 L 66.74196 90.118431 L 66.74196 108.93252 L 76.370259 108.93252 L 76.370259 112.89981 L 62.240617 112.89981 L 62.240617 90.118431 z M 84.274314 90.118431 L 89.782738 90.118431 L 95.932031 112.89981 L 91.430687 112.89981 L 90.026879 107.26931 L 83.999655 107.26931 L 82.626364 112.89981 L 78.12502 112.89981 L 84.274314 90.118431 z M 98.907496 90.118431 L 105.08731 90.118431 C 108.23061 90.118431 110.48892 90.677922 111.86221 91.796898 C 113.24567 92.915875 113.93741 94.731676 113.93741 97.244288 C 113.93741 99.756899 113.24567 101.5727 111.86221 102.69168 C 110.48892 103.81065 108.23061 104.37014 105.08731 104.37014 L 103.40884 104.37014 L 103.40884 112.89981 L 98.907496 112.89981 L 98.907496 90.118431 z M 103.40884 93.902612 L 103.40884 100.58596 L 105.25515 100.58596 C 106.73017 100.58596 107.76268 100.33674 108.35269 99.838282 C 108.95287 99.339829 109.25296 98.475162 109.25296 97.244288 C 109.25296 96.013413 108.95287 95.148746 108.35269 94.650293 C 107.76268 94.15184 106.73017 93.902612 105.25515 93.902612 L 103.40884 93.902612 z M 87.020896 94.238305 L 84.899924 103.56143 L 89.157127 103.56143 L 87.020896 94.238305 z M 33.447274 125.00003 L 122.80277 125.00003 L 122.80277 131.67423 L 33.447274 131.67423 L 33.447274 125.00003 z " />
  <text
     xml:space="preserve"
     transform="scale(1.5625004)"
     id="text2"
     style="font-style:normal;font-variant:normal;font-weight:bold;font-stretch:normal;font-size:66.6667px;font-family:Monospace;-inkscape-font-specification:'Monospace Bold';text-align:center;white-space:pre;shape-inside:url(#rect2);display:inline;fill:#b2a0a0;fill-opacity:1;stroke-width:0.672;stroke-linejoin:bevel;stroke-miterlimit:4.3" />
</svg>
