<?xml version="1.0" encoding="UTF-8" standalone="no"?>
<svg
   width="100"
   height="100"
   viewBox="0 0 156.25 156.25008"
   version="1.1"
   id="svg1"
   sodipodi:docname="ladspa_hover.svg"
   inkscape:version="1.3.2 (091e20ef0f, 2023-11-25)"
   xmlns:inkscape="http://www.inkscape.org/namespaces/inkscape"
   xmlns:sodipodi="http://sodipodi.sourceforge.net/DTD/sodipodi-0.dtd"
   xmlns="http://www.w3.org/2000/svg"
   xmlns:svg="http://www.w3.org/2000/svg">
  <defs
     id="defs1" />
  <sodipodi:namedview
     id="namedview1"
     pagecolor="#ffffff"
     bordercolor="#000000"
     borderopacity="0.25"
     inkscape:showpageshadow="2"
     inkscape:pageopacity="0.0"
     inkscape:pagecheckerboard="0"
     inkscape:deskcolor="#d1d1d1"
     inkscape:document-units="in"
     inkscape:zoom="3.7711164"
     inkscape:cx="84.855509"
     inkscape:cy="53.299866"
     inkscape:window-width="1920"
     inkscape:window-height="1029"
     inkscape:window-x="0"
     inkscape:window-y="0"
     inkscape:window-maximized="1"
     inkscape:current-layer="svg1" />
  <path
     id="Выделение"
     style="fill:#a0ea41;fill-opacity:1;stroke:none"
     d="m 24.496466,54.687515 h -0.04578 c -4.888921,0 -8.825686,3.936765 -8.825686,8.825686 v 29.223644 c 0,4.88889 3.936765,8.825675 8.825686,8.825675 h 0.04578 8.950808 89.355496 l 8.9508,-1e-5 h 0.0458 c 4.88895,0 8.82569,-3.936785 8.82569,-8.825675 V 63.513201 c 0,-4.888921 -3.93674,-8.825686 -8.82569,-8.825686 h -0.0458 -8.9508 -89.355496 z m 62.054459,11.581424 c 1.047766,0 2.095547,0.122071 3.143312,0.366211 1.047765,0.233968 2.085373,0.584921 3.112794,1.052857 v 4.394532 c -0.966385,-0.681555 -1.948045,-1.200359 -2.944947,-1.556397 -0.996903,-0.356038 -1.983649,-0.534058 -2.960206,-0.534058 -1.088455,0 -1.922613,0.218714 -2.502442,0.656128 -0.579834,0.437419 -0.869752,1.063035 -0.869752,1.876832 0,0.630692 0.208538,1.154583 0.625611,1.571656 0.427246,0.406896 1.312262,0.859583 2.65503,1.358032 l 1.937867,0.732422 c 1.831045,0.671391 3.17892,1.561481 4.04358,2.670291 0.86466,1.1088 1.296997,2.50753 1.296997,4.19617 0,2.29894 -0.681565,4.01815 -2.044678,5.15747 -1.352941,1.12915 -3.402722,1.69372 -6.149294,1.69372 -1.129141,0 -2.263397,-0.13733 -3.40271,-0.41198 -1.129146,-0.26449 -2.222703,-0.66122 -3.280641,-1.19019 v -4.65393 c 1.200353,0.85449 2.360032,1.49028 3.479005,1.90735 1.129145,0.41707 2.243048,0.62561 3.341676,0.62561 1.108796,0 1.968385,-0.24923 2.578736,-0.74768 0.610346,-0.50863 0.915527,-1.21566 0.915527,-2.12097 0,-0.68156 -0.203451,-1.27666 -0.610352,-1.78528 -0.406896,-0.5188 -0.996908,-0.9257 -1.77002,-1.22071 l -2.212525,-0.83923 c -2.268459,-0.86466 -3.80453,-1.77002 -4.608155,-2.71607 -0.803625,-0.956188 -1.205445,-2.237962 -1.205445,-3.845211 0,-2.065013 0.661224,-3.687547 1.983643,-4.867555 1.322423,-1.180008 3.13824,-1.77002 5.447389,-1.77002 z m -62.408463,0.411987 h 4.501344 v 18.814089 h 9.628299 v 3.96729 H 24.142462 Z m 22.033697,0 h 5.508425 l 6.149293,22.781379 h -4.501344 l -1.403809,-5.6305 h -6.027223 l -1.373291,5.6305 h -4.501344 z m 14.251713,0 h 4.821778 c 3.723129,0 6.403617,0.890107 8.041384,2.670289 1.637771,1.77001 2.456666,4.66922 2.456666,8.69751 0,4.03849 -0.818895,6.95293 -2.456666,8.74329 -1.637767,1.78019 -4.318255,2.67029 -8.041384,2.67029 h -4.821778 z m 38.009653,0 h 6.179815 c 3.14326,0 5.40161,0.559499 6.7749,1.678467 1.38346,1.118973 2.0752,2.934786 2.0752,5.44739 0,2.512599 -0.69174,4.328412 -2.0752,5.447392 -1.37329,1.11897 -3.63164,1.67846 -6.7749,1.67846 h -1.67847 v 8.52967 h -4.501345 z m 22.995005,0 h 5.50842 l 6.14929,22.781379 h -4.50134 l -1.40381,-5.6305 h -6.02722 l -1.37329,5.6305 h -4.50135 z m -18.49366,3.784181 v 6.683348 h 1.84631 c 1.47502,0 2.50753,-0.24922 3.09754,-0.747678 0.60018,-0.498449 0.90027,-1.363128 0.90027,-2.593994 0,-1.230871 -0.30009,-2.095546 -0.90027,-2.593995 -0.59001,-0.498453 -1.62252,-0.747681 -3.09754,-0.747681 z m -38.009654,0.274658 v 14.6637 h 1.220703 c 1.770014,0 3.031419,-0.5544 3.784181,-1.66321 0.752762,-1.11897 1.129151,-3.01616 1.129151,-5.69153 0,-2.655005 -0.376389,-4.536951 -1.129151,-5.645751 -0.752762,-1.108801 -2.014167,-1.663209 -3.784181,-1.663209 z m -16.006474,0.06104 -2.120972,9.32313 h 4.257203 z m 75.256368,0 -2.12097,9.32313 h 4.2572 z"
     sodipodi:nodetypes="cssssccccssssccccscccsssscccsscsccccscsccccssscccccccccccccccccscscscccscscscccccccccccccccscscscccscsssccccccccc" />
</svg>
