<?xml version="1.0" encoding="UTF-8" standalone="no"?>
<svg
   width="100"
   height="100"
   viewBox="0 0 156.25 156.25008"
   version="1.1"
   id="svg1"
   sodipodi:docname="ladspa.svg"
   inkscape:version="1.3.2 (091e20ef0f, 2023-11-25)"
   xmlns:inkscape="http://www.inkscape.org/namespaces/inkscape"
   xmlns:sodipodi="http://sodipodi.sourceforge.net/DTD/sodipodi-0.dtd"
   xmlns="http://www.w3.org/2000/svg"
   xmlns:svg="http://www.w3.org/2000/svg">
  <defs
     id="defs1" />
  <sodipodi:namedview
     id="namedview1"
     pagecolor="#ffffff"
     bordercolor="#000000"
     borderopacity="0.25"
     inkscape:showpageshadow="2"
     inkscape:pageopacity="0.0"
     inkscape:pagecheckerboard="0"
     inkscape:deskcolor="#d1d1d1"
     inkscape:document-units="in"
     inkscape:zoom="3.7711164"
     inkscape:cx="84.855509"
     inkscape:cy="53.299866"
     inkscape:window-width="1920"
     inkscape:window-height="1029"
     inkscape:window-x="0"
     inkscape:window-y="0"
     inkscape:window-maximized="1"
     inkscape:current-layer="svg1" />
  <path
     id="Выделение"
     style="fill:#9da3ca;fill-opacity:1;stroke:none"
     d="M 30.694588 15.625004 L 29.318245 15.914921 C 26.063452 16.877315 24.501966 19.664098 24.496466 22.9065 L 24.496466 43.560802 L 24.496466 78.12502 L 24.45069 78.12502 C 19.561749 78.12502 15.625004 82.061765 15.625004 86.950706 L 15.625004 116.17435 C 15.625004 121.06328 19.561749 125.00003 24.45069 125.00003 L 24.496466 125.00003 L 24.496466 133.32828 C 24.50335 137.78366 27.340896 140.61804 31.796273 140.62504 L 47.628796 140.62504 L 124.45377 140.62504 C 128.61449 140.61815 131.73287 138.04694 131.75357 133.74027 L 131.75357 125.00003 L 131.79935 125.00003 C 136.6883 125.00003 140.62504 121.06328 140.62504 116.17435 L 140.62504 86.950706 C 140.62504 82.061765 136.6883 78.12502 131.79935 78.12502 L 131.75357 78.12502 L 131.75357 53.884901 C 131.74806 50.511703 130.13723 46.088692 128.10367 43.420421 C 127.04076 42.025708 124.68484 39.797123 123.35208 38.464365 L 116.74503 31.857308 L 109.17361 24.282843 C 107.80092 22.910159 105.25093 20.24566 103.80252 19.177251 C 101.09569 17.180868 96.716744 15.615404 93.338037 15.625004 L 51.620497 15.625004 L 37.854014 15.625004 L 30.694588 15.625004 z M 33.447274 24.560553 L 87.142967 24.560553 L 87.142967 53.198256 C 87.149851 57.403052 90.144408 60.210401 94.302392 60.217301 L 122.80277 60.217301 L 122.80277 78.12502 L 33.447274 78.12502 L 33.447274 24.560553 z M 95.953394 25.10987 C 97.72398 25.292987 98.91853 26.531527 100.09158 27.725227 L 102.80154 30.380257 L 112.34439 39.974986 L 117.45608 45.071423 C 119.11239 46.854399 121.98497 48.814329 122.25345 51.406874 L 95.953394 51.406874 L 95.953394 25.10987 z M 86.550925 89.706444 C 87.598695 89.706444 88.646468 89.828515 89.694237 90.072655 C 90.742006 90.306623 91.779606 90.657576 92.807031 91.125512 L 92.807031 95.520044 C 91.840642 94.838485 90.85899 94.319685 89.862084 93.963647 C 88.865177 93.607609 87.878439 93.429589 86.901878 93.429589 C 85.813419 93.429589 84.979269 93.648299 84.399436 94.085717 C 83.819602 94.523136 83.529684 95.148748 83.529684 95.962549 C 83.529684 96.593245 83.738222 97.117132 84.155295 97.534205 C 84.582541 97.941105 85.467553 98.393784 86.810325 98.892237 L 88.748192 99.624659 C 90.579245 100.29605 91.927108 101.18614 92.791772 102.29495 C 93.656436 103.40375 94.088769 104.80248 94.088769 106.49112 C 94.088769 108.7901 93.407208 110.50927 92.044091 111.64859 C 90.691146 112.77774 88.641377 113.34231 85.894797 113.34231 C 84.765648 113.34231 83.631408 113.20498 82.492087 112.93033 C 81.362937 112.66584 80.269388 112.26911 79.211446 111.74014 L 79.211446 107.08621 C 80.411803 107.9407 81.571474 108.57649 82.690451 108.99356 C 83.8196 109.41063 84.933495 109.61917 86.032127 109.61917 C 87.140931 109.61917 88.000512 109.36994 88.610863 108.87149 C 89.221213 108.36286 89.52639 107.65587 89.52639 106.75052 C 89.52639 106.06896 89.322939 105.47386 88.916038 104.96524 C 88.509138 104.44644 87.91913 104.03954 87.146018 103.74453 L 84.933493 102.9053 C 82.665022 102.04064 81.128967 101.13528 80.325338 100.18923 C 79.521709 99.233018 79.119893 97.951276 79.119893 96.344019 C 79.119893 94.278998 79.781109 92.656476 81.103536 91.476464 C 82.425963 90.296452 84.241764 89.706444 86.550925 89.706444 z M 24.142462 90.118431 L 28.643806 90.118431 L 28.643806 108.93252 L 38.272105 108.93252 L 38.272105 112.89981 L 24.142462 112.89981 L 24.142462 90.118431 z M 46.176159 90.118431 L 51.684584 90.118431 L 57.833877 112.89981 L 53.332533 112.89981 L 51.928724 107.26931 L 45.901501 107.26931 L 44.52821 112.89981 L 40.026866 112.89981 L 46.176159 90.118431 z M 60.427872 90.118431 L 65.24965 90.118431 C 68.972791 90.118431 71.653259 91.00853 73.291034 92.78872 C 74.928809 94.558738 75.7477 97.457916 75.7477 101.48623 C 75.7477 105.52472 74.928809 108.43916 73.291034 110.22952 C 71.653259 112.00971 68.972791 112.89981 65.24965 112.89981 L 60.427872 112.89981 L 60.427872 90.118431 z M 98.437525 90.118431 L 104.61734 90.118431 C 107.76064 90.118431 110.01895 90.677922 111.39224 91.796898 C 112.7757 92.915875 113.46744 94.731676 113.46744 97.244288 C 113.46744 99.756899 112.7757 101.5727 111.39224 102.69168 C 110.01895 103.81065 107.76064 104.37014 104.61734 104.37014 L 102.93887 104.37014 L 102.93887 112.89981 L 98.437525 112.89981 L 98.437525 90.118431 z M 121.43253 90.118431 L 126.94095 90.118431 L 133.09024 112.89981 L 128.5889 112.89981 L 127.18509 107.26931 L 121.15787 107.26931 L 119.78458 112.89981 L 115.28323 112.89981 L 121.43253 90.118431 z M 102.93887 93.902612 L 102.93887 100.58596 L 104.78518 100.58596 C 106.2602 100.58596 107.29271 100.33674 107.88272 99.838282 C 108.4829 99.339829 108.78299 98.475162 108.78299 97.244288 C 108.78299 96.013413 108.4829 95.148746 107.88272 94.650293 C 107.29271 94.15184 106.2602 93.902612 104.78518 93.902612 L 102.93887 93.902612 z M 64.929216 94.17727 L 64.929216 108.84097 L 66.149919 108.84097 C 67.919937 108.84097 69.181334 108.28657 69.9341 107.17776 C 70.686866 106.05879 71.063251 104.1616 71.063251 101.48623 C 71.063251 98.831205 70.686866 96.949283 69.9341 95.840479 C 69.181334 94.731674 67.919937 94.17727 66.149919 94.17727 L 64.929216 94.17727 z M 48.922742 94.238305 L 46.80177 103.56143 L 51.058973 103.56143 L 48.922742 94.238305 z M 124.17911 94.238305 L 122.05814 103.56143 L 126.31534 103.56143 L 124.17911 94.238305 z M 33.447274 125.00003 L 122.80277 125.00003 L 122.80277 131.67423 L 33.447274 131.67423 L 33.447274 125.00003 z " />
</svg>
