<?xml version="1.0" encoding="UTF-8" standalone="no"?>
<svg
   width="100"
   height="100"
   viewBox="0 0 156.25 156.25008"
   version="1.1"
   id="svg1"
   sodipodi:docname="lv2.svg"
   inkscape:version="1.3.2 (091e20ef0f, 2023-11-25)"
   xmlns:inkscape="http://www.inkscape.org/namespaces/inkscape"
   xmlns:sodipodi="http://sodipodi.sourceforge.net/DTD/sodipodi-0.dtd"
   xmlns="http://www.w3.org/2000/svg"
   xmlns:svg="http://www.w3.org/2000/svg">
  <defs
     id="defs1" />
  <sodipodi:namedview
     id="namedview1"
     pagecolor="#ffffff"
     bordercolor="#000000"
     borderopacity="0.25"
     inkscape:showpageshadow="2"
     inkscape:pageopacity="0.0"
     inkscape:pagecheckerboard="0"
     inkscape:deskcolor="#d1d1d1"
     inkscape:document-units="in"
     inkscape:zoom="3.7711164"
     inkscape:cx="84.855509"
     inkscape:cy="53.299866"
     inkscape:window-width="1920"
     inkscape:window-height="1029"
     inkscape:window-x="0"
     inkscape:window-y="0"
     inkscape:window-maximized="1"
     inkscape:current-layer="svg1"
     inkscape:lockguides="false" />
  <path
     id="Выделение"
     style="fill:#9da3ca;fill-opacity:1;stroke:none"
     d="M 122.80277,54.687517 H 33.447274 l -8.950808,-5e-6 h -0.04578 c -4.888921,0 -8.825686,3.936765 -8.825686,8.825686 v 29.223649 c 0,4.88888 3.936765,8.825683 8.825686,8.825683 h 0.04578 l 8.950808,-10e-6 h 89.355496 l 8.9508,-4e-5 h 0.0458 c 4.88895,0 8.82569,-3.936793 8.82569,-8.825683 V 63.513203 c 0,-4.888921 -3.93674,-8.825686 -8.82569,-8.825686 h -0.0458 z M 95.465112,66.268941 c 2.410879,0 4.303002,0.564581 5.676268,1.693726 1.38347,1.118973 2.0752,2.649954 2.0752,4.592897 0,0.895177 -0.15259,1.734421 -0.45776,2.5177 -0.29501,0.783284 -0.80872,1.653033 -1.54114,2.609253 -0.53915,0.69173 -2.019265,2.24813 -4.440311,4.66919 -1.312251,1.31226 -2.354946,2.36003 -3.128053,3.14331 h 9.597784 v 3.96729 H 88.784813 v -3.84522 l 2.438355,-2.59399 c 2.899155,-3.08227 4.659023,-4.97946 5.279542,-5.69153 0.762935,-0.874838 1.312257,-1.647952 1.64795,-2.319338 0.335693,-0.681554 0.50354,-1.352951 0.50354,-2.01416 0,-1.017248 -0.310267,-1.800539 -0.930786,-2.349855 -0.610351,-0.559484 -1.480109,-0.839233 -2.609254,-0.839233 -0.803625,0 -1.70899,0.162765 -2.716065,0.488281 -0.996903,0.315348 -2.036546,0.778203 -3.125001,1.38855 v -4.196168 c 1.088455,-0.396724 2.148443,-0.696822 3.186036,-0.900268 1.047765,-0.213623 2.04977,-0.320435 3.005982,-0.320435 z m -42.630015,0.411987 h 4.501343 v 18.814089 h 9.628299 v 3.96729 H 52.835097 Z m 16.250614,0 h 4.531862 l 3.997803,19.027719 4.013063,-19.027719 H 86.1603 l -5.416871,22.781379 h -6.240846 z"
     sodipodi:nodetypes="cccssssccccssssccscsccsccccccccscsccccsccccccccccccccc" />
</svg>
