<?xml version="1.0" encoding="UTF-8" standalone="no"?>
<svg
   width="100"
   height="100"
   viewBox="0 0 156.25 156.25008"
   version="1.1"
   id="svg1"
   sodipodi:docname="pw.svg"
   inkscape:version="1.3.2 (091e20ef0f, 2023-11-25)"
   xmlns:inkscape="http://www.inkscape.org/namespaces/inkscape"
   xmlns:sodipodi="http://sodipodi.sourceforge.net/DTD/sodipodi-0.dtd"
   xmlns="http://www.w3.org/2000/svg"
   xmlns:svg="http://www.w3.org/2000/svg">
  <defs
     id="defs1">
    <rect
       x="-6.5939685"
       y="-27.102536"
       width="145.38636"
       height="153.39802"
       id="rect2" />
  </defs>
  <sodipodi:namedview
     id="namedview1"
     pagecolor="#ffffff"
     bordercolor="#000000"
     borderopacity="0.25"
     inkscape:showpageshadow="2"
     inkscape:pageopacity="0.0"
     inkscape:pagecheckerboard="0"
     inkscape:deskcolor="#d1d1d1"
     inkscape:document-units="in"
     inkscape:zoom="5.6568543"
     inkscape:cx="63.63961"
     inkscape:cy="94.045201"
     inkscape:window-width="1920"
     inkscape:window-height="1029"
     inkscape:window-x="0"
     inkscape:window-y="0"
     inkscape:window-maximized="1"
     inkscape:current-layer="svg1"
     inkscape:lockguides="false" />
  <path
     id="Выделение"
     style="fill:#9da3ca;fill-opacity:1;stroke:none"
     d="M 30.694588 15.625004 L 29.318245 15.914921 C 26.063458 16.877313 24.501966 19.664104 24.496466 22.9065 L 24.496466 43.560802 L 24.496466 78.12502 L 24.45069 78.12502 C 19.561759 78.12502 15.625004 82.061775 15.625004 86.950706 L 15.625004 116.17435 C 15.625004 121.06326 19.561759 125.00003 24.45069 125.00003 L 24.496466 125.00003 L 24.496466 133.32828 C 24.50335 137.78366 27.340904 140.61804 31.796273 140.62504 L 47.628796 140.62504 L 124.45377 140.62504 C 128.61447 140.61815 131.73287 138.04692 131.75357 133.74027 L 131.75357 125.00003 L 131.79935 125.00003 C 136.6883 125.00003 140.62504 121.06326 140.62504 116.17435 L 140.62504 86.950706 C 140.62504 82.061775 136.6883 78.12502 131.79935 78.12502 L 131.75357 78.12502 L 131.75357 53.884901 C 131.74806 50.511711 130.13723 46.088688 128.10367 43.420421 C 127.04076 42.025712 124.68484 39.797121 123.35208 38.464365 L 116.74503 31.857308 L 109.17361 24.282843 C 107.80092 22.910163 105.25093 20.245658 103.80252 19.177251 C 101.09569 17.180872 96.716736 15.615404 93.338037 15.625004 L 51.620497 15.625004 L 37.854014 15.625004 L 30.694588 15.625004 z M 33.447274 24.560553 L 87.142967 24.560553 L 87.142967 53.198256 C 87.149851 57.403044 90.144416 60.210401 94.302392 60.217301 L 122.80277 60.217301 L 122.80277 78.12502 L 33.447274 78.12502 L 33.447274 24.560553 z M 95.953394 25.10987 C 97.723976 25.292987 98.91853 26.531529 100.09158 27.725227 L 102.80154 30.380257 L 112.34439 39.974986 L 117.45608 45.071423 C 119.11239 46.854395 121.98497 48.814333 122.25345 51.406874 L 95.953394 51.406874 L 95.953394 25.10987 z M 61.285416 90.121483 L 67.465227 90.121483 C 70.609048 90.121483 72.869669 90.680791 74.243183 91.79995 C 75.626871 92.91911 76.318379 94.73737 76.318379 97.250391 C 76.318379 99.763413 75.626871 101.57862 74.243183 102.69778 C 72.869669 103.81694 70.609048 104.37625 67.465227 104.37625 L 65.78676 104.37625 L 65.78676 112.90896 L 61.285416 112.90896 L 61.285416 90.121483 z M 77.630635 90.121483 L 81.567404 90.121483 L 83.200095 106.84817 L 85.168479 96.029688 L 88.906883 96.029688 L 91.195702 106.84817 L 92.480492 90.121483 L 96.447779 90.121483 L 93.823266 112.90896 L 89.624046 112.90896 L 87.030052 100.94302 L 84.603903 112.90896 L 80.438253 112.90896 L 77.630635 90.121483 z M 65.78676 93.908715 L 65.78676 100.59207 L 67.633074 100.59207 C 69.108329 100.59207 70.140507 100.34292 70.730609 99.844386 C 71.330885 99.345851 71.630878 98.481466 71.630878 97.250391 C 71.630878 96.019316 71.330885 95.154931 70.730609 94.656396 C 70.140507 94.157862 69.108329 93.908715 67.633074 93.908715 L 65.78676 93.908715 z M 33.447274 125.00003 L 122.80277 125.00003 L 122.80277 131.67423 L 33.447274 131.67423 L 33.447274 125.00003 z " />
  <text
     xml:space="preserve"
     transform="scale(1.5625004)"
     id="text2"
     style="font-style:normal;font-variant:normal;font-weight:bold;font-stretch:normal;font-size:66.6667px;font-family:Monospace;-inkscape-font-specification:'Monospace Bold';text-align:center;white-space:pre;shape-inside:url(#rect2);display:inline;fill:#b2a0a0;fill-opacity:1;stroke-width:0.672;stroke-linejoin:bevel;stroke-miterlimit:4.3" />
</svg>
