<?xml version="1.0" encoding="UTF-8" standalone="no"?>
<svg
   width="100"
   height="100"
   viewBox="0 0 156.25 156.25008"
   version="1.1"
   id="svg1"
   sodipodi:docname="pw_hover.svg"
   inkscape:version="1.3.2 (091e20ef0f, 2023-11-25)"
   xmlns:inkscape="http://www.inkscape.org/namespaces/inkscape"
   xmlns:sodipodi="http://sodipodi.sourceforge.net/DTD/sodipodi-0.dtd"
   xmlns="http://www.w3.org/2000/svg"
   xmlns:svg="http://www.w3.org/2000/svg">
  <defs
     id="defs1">
    <rect
       x="-6.5939685"
       y="-27.102536"
       width="145.38636"
       height="153.39802"
       id="rect2" />
  </defs>
  <sodipodi:namedview
     id="namedview1"
     pagecolor="#ffffff"
     bordercolor="#000000"
     borderopacity="0.25"
     inkscape:showpageshadow="2"
     inkscape:pageopacity="0.0"
     inkscape:pagecheckerboard="0"
     inkscape:deskcolor="#d1d1d1"
     inkscape:document-units="in"
     inkscape:zoom="8"
     inkscape:cx="51.875"
     inkscape:cy="37.125"
     inkscape:window-width="1920"
     inkscape:window-height="1029"
     inkscape:window-x="0"
     inkscape:window-y="0"
     inkscape:window-maximized="1"
     inkscape:current-layer="svg1"
     inkscape:lockguides="false"
     showguides="true" />
  <path
     id="Выделение"
     style="fill:#a0ea41;fill-opacity:1;stroke:none"
     d="M 24.45069 54.687514 C 19.561774 54.687514 15.625004 58.624284 15.625004 63.5132 L 15.625004 92.73684 C 15.625004 97.62573 19.561774 101.56253 24.45069 101.56253 L 24.496466 101.56253 L 33.447274 101.56253 L 122.80277 101.56253 L 131.75357 101.56253 L 131.79935 101.56253 C 136.6883 101.56253 140.62504 97.62573 140.62504 92.73684 L 140.62504 63.5132 C 140.62504 58.624284 136.6883 54.687514 131.79935 54.687514 L 131.75357 54.687514 L 122.80277 54.687514 L 33.447274 54.687514 L 24.496466 54.687514 L 24.45069 54.687514 z M 61.264054 66.680925 L 67.446917 66.680925 C 70.590737 66.680925 72.848307 67.240233 74.221821 68.359392 C 75.605509 69.478552 76.297017 71.29376 76.297017 73.806782 C 76.297017 76.319803 75.605509 78.138063 74.221821 79.257222 C 72.848307 80.376382 70.590737 80.93569 67.446917 80.93569 L 65.768449 80.93569 L 65.768449 89.465355 L 61.264054 89.465355 L 61.264054 66.680925 z M 77.609273 66.680925 L 81.546041 66.680925 L 83.181784 83.407614 L 85.150168 72.586078 L 88.888573 72.586078 L 91.177392 83.407614 L 92.45913 66.680925 L 96.426416 66.680925 L 93.801904 89.465355 L 89.605736 89.465355 L 87.011741 77.502461 L 84.585593 89.465355 L 80.416891 89.465355 L 77.609273 66.680925 z M 65.768449 70.465106 L 65.768449 77.151509 L 67.614763 77.151509 C 69.090019 77.151509 70.122196 76.902363 70.712298 76.403828 C 71.312575 75.905294 71.612567 75.037857 71.612567 73.806782 C 71.612567 72.575706 71.312575 71.711321 70.712298 71.212787 C 70.122196 70.714252 69.090019 70.465106 67.614763 70.465106 L 65.768449 70.465106 z " />
  <text
     xml:space="preserve"
     transform="scale(1.5625004)"
     id="text2"
     style="font-style:normal;font-variant:normal;font-weight:bold;font-stretch:normal;font-size:66.6667px;font-family:Monospace;-inkscape-font-specification:'Monospace Bold';text-align:center;white-space:pre;shape-inside:url(#rect2);display:inline;fill:#b2a0a0;fill-opacity:1;stroke-width:0.672;stroke-linejoin:bevel;stroke-miterlimit:4.3" />
</svg>
