<?xml version="1.0" encoding="UTF-8" standalone="no"?>
<svg
   width="100"
   height="100"
   viewBox="0 0 156.25 156.25008"
   version="1.1"
   id="svg1"
   sodipodi:docname="vst2_hover.svg"
   inkscape:version="1.3.2 (091e20ef0f, 2023-11-25)"
   xmlns:inkscape="http://www.inkscape.org/namespaces/inkscape"
   xmlns:sodipodi="http://sodipodi.sourceforge.net/DTD/sodipodi-0.dtd"
   xmlns="http://www.w3.org/2000/svg"
   xmlns:svg="http://www.w3.org/2000/svg">
  <defs
     id="defs1">
    <rect
       x="-6.5939685"
       y="-27.102536"
       width="145.38636"
       height="153.39802"
       id="rect2" />
  </defs>
  <sodipodi:namedview
     id="namedview1"
     pagecolor="#ffffff"
     bordercolor="#000000"
     borderopacity="0.25"
     inkscape:showpageshadow="2"
     inkscape:pageopacity="0.0"
     inkscape:pagecheckerboard="0"
     inkscape:deskcolor="#d1d1d1"
     inkscape:document-units="in"
     inkscape:zoom="3.7711164"
     inkscape:cx="84.855509"
     inkscape:cy="53.299866"
     inkscape:window-width="1920"
     inkscape:window-height="1029"
     inkscape:window-x="0"
     inkscape:window-y="0"
     inkscape:window-maximized="1"
     inkscape:current-layer="svg1"
     inkscape:lockguides="false" />
  <path
     id="Выделение"
     style="fill:#a0ea41;fill-opacity:1;stroke:none"
     d="M 30.694588 15.625004 L 29.318245 15.914921 C 26.063452 16.877315 24.501966 19.664098 24.496466 22.9065 L 24.496466 43.560802 L 24.496466 78.12502 L 24.45069 78.12502 C 19.561749 78.12502 15.625004 82.061765 15.625004 86.950706 L 15.625004 116.17435 C 15.625004 121.06328 19.561749 125.00003 24.45069 125.00003 L 24.496466 125.00003 L 24.496466 133.32828 C 24.50335 137.78366 27.340896 140.61804 31.796273 140.62504 L 47.628796 140.62504 L 124.45377 140.62504 C 128.61449 140.61815 131.73287 138.04694 131.75357 133.74027 L 131.75357 125.00003 L 131.79935 125.00003 C 136.6883 125.00003 140.62504 121.06328 140.62504 116.17435 L 140.62504 86.950706 C 140.62504 82.061765 136.6883 78.12502 131.79935 78.12502 L 131.75357 78.12502 L 131.75357 53.884901 C 131.74806 50.511703 130.13723 46.088692 128.10367 43.420421 C 127.04076 42.025708 124.68484 39.797123 123.35208 38.464365 L 116.74503 31.857308 L 109.17361 24.282843 C 107.80092 22.910159 105.25093 20.24566 103.80252 19.177251 C 101.09569 17.180868 96.716744 15.615404 93.338037 15.625004 L 51.620497 15.625004 L 37.854014 15.625004 L 30.694588 15.625004 z M 33.447274 24.560553 L 87.142967 24.560553 L 87.142967 53.198256 C 87.149851 57.403052 90.144408 60.210401 94.302392 60.217301 L 122.80277 60.217301 L 122.80277 78.12502 L 33.447274 78.12502 L 33.447274 24.560553 z M 95.953394 25.10987 C 97.72398 25.292987 98.91853 26.531527 100.09158 27.725227 L 102.80154 30.380257 L 112.34439 39.974986 L 117.45608 45.071423 C 119.11239 46.854399 121.98497 48.814329 122.25345 51.406874 L 95.953394 51.406874 L 95.953394 25.10987 z M 68.206805 89.706444 C 69.254574 89.706444 70.302347 89.828515 71.350116 90.072655 C 72.397885 90.306623 73.435486 90.657576 74.46291 91.125512 L 74.46291 95.520044 C 73.496521 94.838485 72.514869 94.319685 71.517963 93.963647 C 70.521056 93.607609 69.534318 93.429589 68.557757 93.429589 C 67.469298 93.429589 66.635148 93.648299 66.055315 94.085717 C 65.475481 94.523136 65.185564 95.148748 65.185564 95.962549 C 65.185564 96.593245 65.394101 97.117132 65.811174 97.534205 C 66.23842 97.941105 67.123432 98.393784 68.466204 98.892237 L 70.404071 99.624659 C 72.235124 100.29605 73.582987 101.18614 74.447651 102.29495 C 75.312315 103.40375 75.744648 104.80248 75.744648 106.49112 C 75.744648 108.7901 75.063087 110.50927 73.69997 111.64859 C 72.347025 112.77774 70.297256 113.34231 67.550676 113.34231 C 66.421527 113.34231 65.287287 113.20498 64.147966 112.93033 C 63.018816 112.66584 61.925267 112.26911 60.867325 111.74014 L 60.867325 107.08621 C 62.067682 107.9407 63.227353 108.57649 64.34633 108.99356 C 65.475479 109.41063 66.589374 109.61917 67.688006 109.61917 C 68.79681 109.61917 69.656391 109.36994 70.266742 108.87149 C 70.877093 108.36286 71.182269 107.65587 71.182269 106.75052 C 71.182269 106.06896 70.978818 105.47386 70.571917 104.96524 C 70.165017 104.44644 69.575009 104.03954 68.801897 103.74453 L 66.589373 102.9053 C 64.320901 102.04064 62.784846 101.13528 61.981217 100.18923 C 61.177588 99.233018 60.775772 97.951276 60.775772 96.344019 C 60.775772 94.278998 61.436988 92.656476 62.759415 91.476464 C 64.081843 90.296452 65.897643 89.706444 68.206805 89.706444 z M 104.87368 89.706444 C 107.28457 89.706444 109.17667 90.271021 110.54996 91.40017 C 111.93342 92.519147 112.62515 94.050116 112.62515 95.993067 C 112.62515 96.888248 112.47256 97.727484 112.16739 98.510767 C 111.87238 99.294051 111.35867 100.1638 110.62625 101.12002 C 110.08711 101.81175 108.607 103.36815 106.18594 105.78921 C 104.87369 107.10147 103.831 108.14924 103.05789 108.93252 L 112.65567 108.93252 L 112.65567 112.89981 L 98.190333 112.89981 L 98.190333 109.05459 L 100.63174 106.4606 C 103.53091 103.37833 105.29076 101.48114 105.91128 100.76907 C 106.67422 99.894232 107.22354 99.121118 107.55923 98.449732 C 107.89492 97.768174 108.06277 97.096785 108.06277 96.435572 C 108.06277 95.41832 107.75251 94.635033 107.13199 94.085717 C 106.52163 93.526229 105.65188 93.246484 104.52273 93.246484 C 103.7191 93.246484 102.81375 93.409245 101.80667 93.734765 C 100.80976 94.050113 99.767073 94.512964 98.678614 95.123315 L 98.678614 90.927147 C 99.767073 90.530419 100.83011 90.230329 101.8677 90.026879 C 102.91547 89.813256 103.91747 89.706444 104.87368 89.706444 z M 40.863048 90.118431 L 45.394909 90.118431 L 49.392713 109.14615 L 53.405775 90.118431 L 57.937637 90.118431 L 52.520765 112.89981 L 46.279919 112.89981 L 40.863048 90.118431 z M 78.994771 90.118431 L 95.06228 90.118431 L 95.06228 94.0552 L 89.279198 94.0552 L 89.279198 112.89981 L 84.777854 112.89981 L 84.777854 94.0552 L 78.994771 94.0552 L 78.994771 90.118431 z M 33.447274 125.00003 L 122.80277 125.00003 L 122.80277 131.67423 L 33.447274 131.67423 L 33.447274 125.00003 z " />
  <text
     xml:space="preserve"
     transform="scale(1.5625004)"
     id="text2"
     style="font-style:normal;font-variant:normal;font-weight:bold;font-stretch:normal;font-size:66.6667px;font-family:Monospace;-inkscape-font-specification:'Monospace Bold';text-align:center;white-space:pre;shape-inside:url(#rect2);display:inline;fill:#b2a0a0;fill-opacity:1;stroke-width:0.672;stroke-linejoin:bevel;stroke-miterlimit:4.3" />
</svg>
