<?xml version="1.0" encoding="UTF-8" standalone="no"?>
<svg
   width="100"
   height="100"
   viewBox="0 0 156.25 156.25008"
   version="1.1"
   id="svg1"
   sodipodi:docname="vst3_hover.svg"
   inkscape:version="1.3.2 (091e20ef0f, 2023-11-25)"
   xmlns:inkscape="http://www.inkscape.org/namespaces/inkscape"
   xmlns:sodipodi="http://sodipodi.sourceforge.net/DTD/sodipodi-0.dtd"
   xmlns="http://www.w3.org/2000/svg"
   xmlns:svg="http://www.w3.org/2000/svg">
  <defs
     id="defs1">
    <rect
       x="-6.5939685"
       y="-27.102536"
       width="145.38636"
       height="153.39802"
       id="rect2" />
  </defs>
  <sodipodi:namedview
     id="namedview1"
     pagecolor="#ffffff"
     bordercolor="#000000"
     borderopacity="0.25"
     inkscape:showpageshadow="2"
     inkscape:pageopacity="0.0"
     inkscape:pagecheckerboard="0"
     inkscape:deskcolor="#d1d1d1"
     inkscape:document-units="in"
     inkscape:zoom="3.7711164"
     inkscape:cx="84.855509"
     inkscape:cy="53.299866"
     inkscape:window-width="1920"
     inkscape:window-height="1029"
     inkscape:window-x="0"
     inkscape:window-y="0"
     inkscape:window-maximized="1"
     inkscape:current-layer="svg1"
     inkscape:lockguides="false" />
  <path
     id="Выделение"
     style="fill:#a0ea41;fill-opacity:1;stroke:none"
     d="m 24.496466,54.68751 h -0.04578 c -4.888926,0 -8.825686,3.93676 -8.825686,8.825686 V 92.73684 c 0,4.8889 3.93676,8.82568 8.825686,8.82568 h 0.04578 8.950808 89.355496 l 8.9508,10e-6 h 0.0458 c 4.88895,0 8.82569,-3.93678 8.82569,-8.82568 V 63.513196 c 0,-4.888926 -3.93674,-8.825686 -8.82569,-8.825686 h -0.0458 -8.9508 -89.355496 z m 43.710339,11.581424 c 1.047766,0 2.095545,0.122071 3.143311,0.366211 1.047766,0.233968 2.085373,0.584921 3.112794,1.052857 v 4.394532 c -0.966386,-0.681556 -1.948044,-1.200359 -2.944947,-1.556397 -0.996904,-0.356038 -1.983648,-0.534058 -2.960206,-0.534058 -1.088456,0 -1.922612,0.218713 -2.502442,0.656128 -0.579834,0.437419 -0.869751,1.063034 -0.869751,1.876832 0,0.630693 0.208537,1.154583 0.62561,1.571656 0.427246,0.406897 1.312261,0.859582 2.65503,1.358032 l 1.937867,0.732422 c 1.831047,0.671391 3.178919,1.561481 4.04358,2.670291 0.864661,1.1088 1.296997,2.50753 1.296997,4.19617 0,2.29895 -0.681564,4.01815 -2.044678,5.15747 -1.352942,1.12915 -3.40272,1.69372 -6.149294,1.69372 -1.129143,0 -2.263392,-0.13733 -3.40271,-0.41198 -1.129147,-0.26449 -2.222702,-0.66122 -3.280641,-1.19019 V 83.6487 c 1.200354,0.85449 2.360031,1.49028 3.479005,1.90735 1.129146,0.41707 2.243047,0.62561 3.341676,0.62561 1.108801,0 1.968385,-0.24923 2.578736,-0.74768 0.610348,-0.50863 0.915527,-1.21565 0.915527,-2.12097 0,-0.68156 -0.203451,-1.27666 -0.610352,-1.78528 -0.406897,-0.5188 -0.996908,-0.9257 -1.77002,-1.22071 l -2.212524,-0.83923 c -2.268466,-0.86466 -3.80453,-1.77002 -4.608156,-2.71607 -0.803626,-0.956194 -1.205445,-2.23796 -1.205445,-3.845211 0,-2.065015 0.661222,-3.687546 1.983643,-4.867555 1.322425,-1.180009 3.138234,-1.77002 5.44739,-1.77002 z m 36.849985,0 c 2.40071,0 4.27246,0.523889 5.61524,1.571656 1.34274,1.047763 2.01416,2.492277 2.01416,4.333497 0,1.352938 -0.38656,2.461753 -1.15967,3.326417 -0.77311,0.854488 -1.87684,1.413986 -3.31116,1.678466 1.6276,0.28483 2.86865,0.93587 3.72315,1.95313 0.85446,1.00708 1.28173,2.33459 1.28173,3.98254 0,2.20744 -0.70699,3.89099 -2.12097,5.05066 -1.41398,1.15967 -3.46883,1.7395 -6.16455,1.7395 -1.1495,0 -2.28373,-0.0966 -3.40271,-0.28991 -1.10881,-0.19328 -2.171841,-0.47303 -3.189089,-0.83924 v -4.18091 c 0.956213,0.47811 1.988729,0.84432 3.097539,1.09864 1.10877,0.24414 2.27356,0.36621 3.49426,0.36621 1.2207,0 2.18709,-0.27975 2.89917,-0.83924 0.71208,-0.56963 1.06812,-1.33263 1.06812,-2.28881 0,-1.16984 -0.35604,-2.07011 -1.06812,-2.70081 -0.71208,-0.64087 -1.71916,-0.9613 -3.02124,-0.9613 h -2.41089 v -3.967291 h 2.41089 c 1.11898,0 1.98364,-0.21871 2.59399,-0.656128 0.62053,-0.447587 0.93079,-1.073206 0.93079,-1.876831 0,-0.844316 -0.31026,-1.500449 -0.93079,-1.968385 -0.61035,-0.478105 -1.47501,-0.717163 -2.59399,-0.717163 -0.85449,0 -1.77002,0.106812 -2.74658,0.320435 -0.97657,0.213623 -1.98873,0.523888 -3.036504,0.930786 v -4.089356 c 1.047774,-0.315348 2.080284,-0.554403 3.097534,-0.717164 1.01725,-0.172929 1.99382,-0.259399 2.92969,-0.259399 z m -64.193742,0.411987 h 4.531861 l 3.997804,19.027719 4.013062,-19.027719 h 4.531862 L 52.520765,89.4623 h -6.240846 z m 38.131723,0 H 95.06228 V 70.61769 H 89.279198 V 89.4623 H 84.777854 V 70.61769 h -5.783083 z"
     sodipodi:nodetypes="cssssccccssssccccscccsssscccsscsccccscsccccsssssscccsssccccscscsccscscsscccsccccccccccccccccc" />
  <text
     xml:space="preserve"
     transform="scale(1.5625004)"
     id="text2"
     style="font-style:normal;font-variant:normal;font-weight:bold;font-stretch:normal;font-size:66.6667px;font-family:Monospace;-inkscape-font-specification:'Monospace Bold';text-align:center;white-space:pre;shape-inside:url(#rect2);display:inline;fill:#b2a0a0;fill-opacity:1;stroke-width:0.672;stroke-linejoin:bevel;stroke-miterlimit:4.3" />
</svg>
